<?xml version="1.0" encoding="UTF-8" standalone="no"?>
<svg
   xmlns:dc="http://purl.org/dc/elements/1.1/"
   xmlns:cc="http://creativecommons.org/ns#"
   xmlns:rdf="http://www.w3.org/1999/02/22-rdf-syntax-ns#"
   xmlns:svg="http://www.w3.org/2000/svg"
   xmlns="http://www.w3.org/2000/svg"
   xmlns:sodipodi="http://sodipodi.sourceforge.net/DTD/sodipodi-0.dtd"
   xmlns:inkscape="http://www.inkscape.org/namespaces/inkscape"
   width="197"
   height="148"
   viewBox="0 0 197 148"
   id="svg2"
   version="1.1"
   inkscape:version="1.0.2 (394de47547, 2021-03-26)"
   sodipodi:docname="keys_up.svg">
  <defs
     id="defs4" />
  <sodipodi:namedview
     id="base"
     pagecolor="#2d2d2d"
     bordercolor="#666666"
     borderopacity="1.0"
     inkscape:pageopacity="0"
     inkscape:pageshadow="2"
     inkscape:zoom="2.8284271"
     inkscape:cx="75.872631"
     inkscape:cy="23.463383"
     inkscape:document-units="px"
     inkscape:current-layer="layer1"
     showgrid="false"
     units="px"
     inkscape:showpageshadow="false"
     borderlayer="true"
     showguides="true"
     inkscape:window-width="1920"
     inkscape:window-height="1016"
     inkscape:window-x="0"
     inkscape:window-y="27"
     inkscape:window-maximized="1"
     inkscape:document-rotation="0"
     objecttolerance="4.7"
     guidetolerance="4.9"
     fit-margin-top="4"
     fit-margin-left="4"
     fit-margin-right="4"
     fit-margin-bottom="4" />
  <metadata
     id="metadata7">
    <rdf:RDF>
      <cc:Work
         rdf:about="">
        <dc:format>image/svg+xml</dc:format>
        <dc:type
           rdf:resource="http://purl.org/dc/dcmitype/StillImage" />
        <dc:title></dc:title>
      </cc:Work>
    </rdf:RDF>
  </metadata>
  <g
     inkscape:label="Layer 1"
     inkscape:groupmode="layer"
     id="layer1"
     transform="translate(0,-940.36212)"
     style="display:inline">
    <g
       aria-label="Page"
       id="text1093-3"
       style="font-style:normal;font-variant:normal;font-weight:bold;font-stretch:normal;font-size:11.3333px;line-height:1.25;font-family:'Ubuntu Mono';-inkscape-font-specification:'Ubuntu Mono, Bold';font-variant-ligatures:normal;font-variant-caps:normal;font-variant-numeric:normal;font-variant-east-asian:normal;display:inline;fill:#c39d5f;fill-opacity:1;stroke:none;stroke-width:0.297158">
      <path
         d="m 64.92666,1007.3621 q 1.337329,0 2.073993,0.5554 0.736665,0.544 0.736665,1.7906 0,1.258 -0.747998,1.8247 -0.736664,0.5553 -2.09666,0.5553 h -0.498665 v 2.3687 h -1.393996 v -6.9247 q 0.203999,-0.045 0.453332,-0.079 0.260666,-0.034 0.521331,-0.045 0.260666,-0.023 0.509999,-0.034 0.249333,-0.011 0.441999,-0.011 z m 0.158666,1.2127 q -0.124666,0 -0.351332,0.011 -0.215333,0 -0.339999,0.023 v 2.2667 h 0.566665 q 0.668664,0 1.008663,-0.2607 0.339999,-0.272 0.339999,-0.918 0,-0.612 -0.339999,-0.8613 -0.328666,-0.2607 -0.883997,-0.2607 z"
         style="font-style:normal;font-variant:normal;font-weight:bold;font-stretch:normal;font-size:11.3333px;font-family:'Ubuntu Mono';-inkscape-font-specification:'Ubuntu Mono, Bold';font-variant-ligatures:normal;font-variant-caps:normal;font-variant-numeric:normal;font-variant-east-asian:normal;stroke-width:0.297158"
         id="path1257" />
      <path
         d="m 70.899309,1013.4595 q 0.226666,0 0.441998,0 0.215333,-0.011 0.373999,-0.034 v -1.224 q -0.136,-0.023 -0.328666,-0.034 -0.192666,-0.023 -0.351332,-0.023 -0.215333,0 -0.419332,0.034 -0.203999,0.023 -0.362666,0.091 -0.147332,0.068 -0.237999,0.1926 -0.09067,0.1247 -0.09067,0.3287 0,0.3627 0.271999,0.5213 0.271999,0.1474 0.702665,0.1474 z m -0.124667,-4.4654 q 0.657332,0 1.087997,0.1587 0.441999,0.1473 0.702665,0.4307 0.260665,0.272 0.373998,0.68 0.113333,0.3966 0.113333,0.8953 v 3.1733 q -0.305999,0.068 -0.906664,0.1587 -0.600664,0.091 -1.348662,0.091 -0.509999,0 -0.929331,-0.091 -0.407999,-0.091 -0.702664,-0.2947 -0.294666,-0.2153 -0.453332,-0.544 -0.158667,-0.34 -0.158667,-0.8273 0,-0.4647 0.181333,-0.782 0.181333,-0.3173 0.487332,-0.51 0.305999,-0.1927 0.702665,-0.272 0.396665,-0.091 0.827331,-0.091 0.543998,0 0.96333,0.091 v -0.17 q 0,-0.3967 -0.249333,-0.6573 -0.249332,-0.272 -0.86133,-0.272 -0.396666,0 -0.770665,0.057 -0.362665,0.057 -0.589331,0.136 l -0.192666,-1.122 q 0.260666,-0.091 0.736664,-0.1586 0.475999,-0.079 0.985997,-0.079 z"
         style="font-style:normal;font-variant:normal;font-weight:bold;font-stretch:normal;font-size:11.3333px;font-family:'Ubuntu Mono';-inkscape-font-specification:'Ubuntu Mono, Bold';font-variant-ligatures:normal;font-variant-caps:normal;font-variant-numeric:normal;font-variant-east-asian:normal;stroke-width:0.297158"
         id="path1259" />
      <path
         d="m 75.511961,1011.6235 q 0,0.6573 0.238,1.0086 0.237999,0.34 0.747998,0.34 0.226666,0 0.419332,-0.057 0.203999,-0.057 0.362665,-0.1474 v -2.5613 q -0.158666,-0.034 -0.283332,-0.045 -0.124667,-0.011 -0.260666,-0.011 -1.223997,0 -1.223997,1.4734 z m 3.173324,2.1873 q 0,1.3033 -0.634664,1.9266 -0.623332,0.6234 -2.017328,0.6234 -0.498665,0 -0.96333,-0.102 -0.453332,-0.102 -0.872664,-0.238 l 0.260666,-1.1787 q 0.328665,0.1247 0.691331,0.2267 0.362665,0.1133 0.906664,0.1133 0.362665,0 0.600665,-0.091 0.237999,-0.079 0.373999,-0.2267 0.135999,-0.1473 0.192666,-0.3513 0.05667,-0.1927 0.05667,-0.4194 v -0.2153 q -0.294666,0.1133 -0.543998,0.17 -0.237999,0.057 -0.521332,0.057 -1.042664,0 -1.586662,-0.6574 -0.532665,-0.6573 -0.532665,-1.8246 0,-1.3147 0.725331,-1.9607 0.725331,-0.646 1.971994,-0.646 0.872664,0 1.892661,0.2833 z"
         style="font-style:normal;font-variant:normal;font-weight:bold;font-stretch:normal;font-size:11.3333px;font-family:'Ubuntu Mono';-inkscape-font-specification:'Ubuntu Mono, Bold';font-variant-ligatures:normal;font-variant-caps:normal;font-variant-numeric:normal;font-variant-east-asian:normal;stroke-width:0.297158"
         id="path1261" />
      <path
         d="m 79.739283,1011.8388 q 0,-0.7027 0.215333,-1.2353 0.215333,-0.5327 0.566665,-0.884 0.351332,-0.3627 0.804664,-0.544 0.453332,-0.1814 0.929331,-0.1814 1.178663,0 1.790661,0.7027 0.611998,0.6913 0.611998,2.0287 0,0.136 -0.01133,0.2833 0,0.1473 -0.01133,0.238 h -3.456657 q 0,0.5213 0.430666,0.8273 0.430665,0.2947 1.110663,0.2947 0.419332,0 0.793331,-0.091 0.385332,-0.091 0.645998,-0.1813 l 0.192666,1.19 q -0.362665,0.1247 -0.770664,0.204 -0.407999,0.091 -0.917998,0.091 -0.679997,0 -1.223996,-0.17 -0.532665,-0.1814 -0.917997,-0.5214 -0.373999,-0.3513 -0.577998,-0.8613 -0.204,-0.51 -0.204,-1.19 z m 3.56999,-0.5553 q 0,-0.2154 -0.05667,-0.408 -0.05667,-0.204 -0.181333,-0.3627 -0.124666,-0.1587 -0.317332,-0.2493 -0.192666,-0.102 -0.475999,-0.102 -0.271999,0 -0.475998,0.091 -0.192666,0.091 -0.328666,0.2494 -0.124666,0.1586 -0.203999,0.3626 -0.068,0.204 -0.09067,0.4194 z"
         style="font-style:normal;font-variant:normal;font-weight:bold;font-stretch:normal;font-size:11.3333px;font-family:'Ubuntu Mono';-inkscape-font-specification:'Ubuntu Mono, Bold';font-variant-ligatures:normal;font-variant-caps:normal;font-variant-numeric:normal;font-variant-east-asian:normal;stroke-width:0.297158"
         id="path1263" />
    </g>
    <rect
       style="fill:none;stroke:#c39d5f;stroke-width:2;stroke-miterlimit:4;stroke-dasharray:none;stroke-opacity:1;paint-order:markers stroke fill"
       id="rect1953"
       width="43"
       height="43"
       x="5"
       y="993.36212"
       rx="7"
       ry="7" />
    <rect
       style="display:inline;fill:none;stroke:#c39d5f;stroke-width:1;stroke-miterlimit:4;stroke-dasharray:none;stroke-opacity:1;paint-order:markers stroke fill"
       id="rect1953-3"
       width="32"
       height="32"
       x="10.5"
       y="996.86212"
       rx="5"
       ry="5" />
    <path
       style="fill:none;stroke:#c39d5f;stroke-width:1px;stroke-linecap:butt;stroke-linejoin:miter;stroke-opacity:1"
       d="m 12,1027.3621 -6,7"
       id="path2006"
       sodipodi:nodetypes="cc" />
    <path
       style="display:inline;fill:none;stroke:#c39d5f;stroke-width:1px;stroke-linecap:butt;stroke-linejoin:miter;stroke-opacity:1"
       d="m 41,1027.3621 6,7"
       id="path2006-6"
       sodipodi:nodetypes="cc" />
    <path
       style="display:inline;fill:none;stroke:#c39d5f;stroke-width:1px;stroke-linecap:butt;stroke-linejoin:miter;stroke-opacity:1"
       d="m 41,998.36208 5,-4"
       id="path2006-6-7"
       sodipodi:nodetypes="cc" />
    <path
       style="display:inline;fill:none;stroke:#c39d5f;stroke-width:1px;stroke-linecap:butt;stroke-linejoin:miter;stroke-opacity:1"
       d="m 12,998.36208 -5,-4"
       id="path2006-6-7-5"
       sodipodi:nodetypes="cc" />
    <path
       d="m 27.50947,1020.3787 -4.19757,-6.015 11.1881,-0.073 -0.0309,-2.8205 -11.199,-0.066 4.2393,-6.0361 -3.27129,-0.033 -5.73811,7.5383 5.71526,7.5157 z"
       id="path2819"
       style="fill:#c39d5f;fill-opacity:1;stroke-width:0.0417635"
       sodipodi:nodetypes="cccccccccc" />
    <rect
       style="fill:none;stroke:#a17b3d;stroke-width:1;stroke-miterlimit:4;stroke-dasharray:none;stroke-opacity:1;paint-order:markers stroke fill"
       id="rect1953-5"
       width="43"
       height="43"
       x="5"
       y="1040.3621"
       rx="7"
       ry="7" />
    <rect
       style="display:inline;fill:none;stroke:#c39d5f;stroke-width:0.868706;stroke-miterlimit:4;stroke-dasharray:none;stroke-opacity:1;paint-order:markers stroke fill"
       id="rect1953-3-6"
       width="27.79859"
       height="27.79859"
       x="12.600708"
       y="1046.2253"
       rx="4.3435297"
       ry="4.3435297" />
    <path
       style="fill:none;stroke:#c39d5f;stroke-width:0.868706px;stroke-linecap:butt;stroke-linejoin:miter;stroke-opacity:1"
       d="m 13.90376,1072.7209 -5.21223,6.081"
       id="path2006-2"
       sodipodi:nodetypes="cc" />
    <path
       style="display:inline;fill:none;stroke:#c39d5f;stroke-width:0.868706px;stroke-linecap:butt;stroke-linejoin:miter;stroke-opacity:1"
       d="m 39.09624,1072.7209 5.21223,6.081"
       id="path2006-6-9"
       sodipodi:nodetypes="cc" />
    <path
       style="display:inline;fill:none;stroke:#c39d5f;stroke-width:0.868706px;stroke-linecap:butt;stroke-linejoin:miter;stroke-opacity:1"
       d="m 39.09624,1047.5284 4.34353,-3.4748"
       id="path2006-6-7-1"
       sodipodi:nodetypes="cc" />
    <path
       style="display:inline;fill:none;stroke:#c39d5f;stroke-width:0.868706px;stroke-linecap:butt;stroke-linejoin:miter;stroke-opacity:1"
       d="m 13.90376,1047.5284 -4.34353,-3.4748"
       id="path2006-6-7-5-2"
       sodipodi:nodetypes="cc" />
    <path
       d="m 27.37693,1066.6544 -3.64645,-5.2253 9.71917,-0.063 -0.0268,-2.4502 -9.72863,-0.057 3.6827,-5.2435 -2.84179,-0.029 -4.98473,6.5485 4.96488,6.529 z"
       id="path2819-7"
       style="display:inline;fill:#c39d5f;fill-opacity:1;stroke-width:0.0362802"
       sodipodi:nodetypes="cccccccccc" />
    <rect
       style="display:inline;fill:none;stroke:#c39d5f;stroke-width:1.737;stroke-miterlimit:4;stroke-dasharray:none;stroke-opacity:1;paint-order:markers stroke fill"
       id="rect1953-5-0"
       width="37.354355"
       height="37.354355"
       x="7.8228302"
       y="1043.1849"
       rx="6.0809412"
       ry="6.0809412" />
    <rect
       style="display:inline;fill:none;stroke:#636363;stroke-width:2;stroke-miterlimit:4;stroke-dasharray:none;stroke-opacity:1;paint-order:markers stroke fill"
       id="rect1953-9"
       width="43"
       height="43"
       x="5"
       y="945.36212"
       rx="7"
       ry="7" />
    <rect
       style="display:inline;fill:none;stroke:#636363;stroke-width:1;stroke-miterlimit:4;stroke-dasharray:none;stroke-opacity:1;paint-order:markers stroke fill"
       id="rect1953-3-3"
       width="32"
       height="32"
       x="10.5"
       y="948.86212"
       rx="5"
       ry="5" />
    <path
       style="display:inline;fill:none;stroke:#636363;stroke-width:1px;stroke-linecap:butt;stroke-linejoin:miter;stroke-opacity:1"
       d="m 12,979.36207 -6,7"
       id="path2006-60"
       sodipodi:nodetypes="cc" />
    <path
       style="display:inline;fill:none;stroke:#636363;stroke-width:1px;stroke-linecap:butt;stroke-linejoin:miter;stroke-opacity:1"
       d="m 41,979.36207 6,7"
       id="path2006-6-6"
       sodipodi:nodetypes="cc" />
    <path
       style="display:inline;fill:none;stroke:#636363;stroke-width:1px;stroke-linecap:butt;stroke-linejoin:miter;stroke-opacity:1"
       d="m 41,950.36207 5,-4"
       id="path2006-6-7-2"
       sodipodi:nodetypes="cc" />
    <path
       style="display:inline;fill:none;stroke:#636363;stroke-width:1px;stroke-linecap:butt;stroke-linejoin:miter;stroke-opacity:1"
       d="m 12,950.36207 -5,-4"
       id="path2006-6-7-5-6"
       sodipodi:nodetypes="cc" />
    <path
       d="m 27.50947,972.37868 -4.19757,-6.01505 11.1881,-0.0731 -0.0309,-2.8205 -11.199,-0.0659 4.2393,-6.03605 -3.27129,-0.033 -5.73811,7.53826 5.71526,7.51575 z"
       id="path2819-1"
       style="display:inline;fill:#636363;fill-opacity:1;stroke-width:0.0417635"
       sodipodi:nodetypes="cccccccccc" />
    <rect
       style="display:inline;fill:none;stroke:#c39d5f;stroke-width:2;stroke-miterlimit:4;stroke-dasharray:none;stroke-opacity:1;paint-order:markers stroke fill"
       id="rect1953-8"
       width="43"
       height="43"
       x="53"
       y="993.36218"
       rx="7"
       ry="7" />
    <rect
       style="display:inline;fill:none;stroke:#c39d5f;stroke-width:1;stroke-miterlimit:4;stroke-dasharray:none;stroke-opacity:1;paint-order:markers stroke fill"
       id="rect1953-3-7"
       width="32"
       height="32"
       x="58.5"
       y="996.86218"
       rx="5"
       ry="5" />
    <path
       style="display:inline;fill:none;stroke:#c39d5f;stroke-width:1px;stroke-linecap:butt;stroke-linejoin:miter;stroke-opacity:1"
       d="m 60,1027.3621 -6,7"
       id="path2006-9"
       sodipodi:nodetypes="cc" />
    <path
       style="display:inline;fill:none;stroke:#c39d5f;stroke-width:1px;stroke-linecap:butt;stroke-linejoin:miter;stroke-opacity:1"
       d="m 89,1027.3621 6,7"
       id="path2006-6-2"
       sodipodi:nodetypes="cc" />
    <path
       style="display:inline;fill:none;stroke:#c39d5f;stroke-width:1px;stroke-linecap:butt;stroke-linejoin:miter;stroke-opacity:1"
       d="m 89,998.36213 5,-4"
       id="path2006-6-7-0"
       sodipodi:nodetypes="cc" />
    <path
       style="display:inline;fill:none;stroke:#c39d5f;stroke-width:1px;stroke-linecap:butt;stroke-linejoin:miter;stroke-opacity:1"
       d="m 60,998.36213 -5,-4"
       id="path2006-6-7-5-23"
       sodipodi:nodetypes="cc" />
    <rect
       style="display:inline;fill:none;stroke:#a17b3d;stroke-width:1;stroke-miterlimit:4;stroke-dasharray:none;stroke-opacity:1;paint-order:markers stroke fill"
       id="rect1953-5-9"
       width="43"
       height="43"
       x="53"
       y="1040.3621"
       rx="7"
       ry="7" />
    <rect
       style="display:inline;fill:none;stroke:#c39d5f;stroke-width:0.868706;stroke-miterlimit:4;stroke-dasharray:none;stroke-opacity:1;paint-order:markers stroke fill"
       id="rect1953-3-6-2"
       width="27.79859"
       height="27.79859"
       x="60.600708"
       y="1046.2253"
       rx="4.3435297"
       ry="4.3435297" />
    <path
       style="display:inline;fill:none;stroke:#c39d5f;stroke-width:0.868706px;stroke-linecap:butt;stroke-linejoin:miter;stroke-opacity:1"
       d="m 61.90376,1072.7209 -5.21223,6.081"
       id="path2006-2-2"
       sodipodi:nodetypes="cc" />
    <path
       style="display:inline;fill:none;stroke:#c39d5f;stroke-width:0.868706px;stroke-linecap:butt;stroke-linejoin:miter;stroke-opacity:1"
       d="m 87.09624,1072.7209 5.21223,6.081"
       id="path2006-6-9-8"
       sodipodi:nodetypes="cc" />
    <path
       style="display:inline;fill:none;stroke:#c39d5f;stroke-width:0.868706px;stroke-linecap:butt;stroke-linejoin:miter;stroke-opacity:1"
       d="m 87.09624,1047.5285 4.34353,-3.4749"
       id="path2006-6-7-1-9"
       sodipodi:nodetypes="cc" />
    <path
       style="display:inline;fill:none;stroke:#c39d5f;stroke-width:0.868706px;stroke-linecap:butt;stroke-linejoin:miter;stroke-opacity:1"
       d="m 61.90376,1047.5285 -4.34353,-3.4749"
       id="path2006-6-7-5-2-7"
       sodipodi:nodetypes="cc" />
    <rect
       style="display:inline;fill:none;stroke:#c39d5f;stroke-width:1.737;stroke-miterlimit:4;stroke-dasharray:none;stroke-opacity:1;paint-order:markers stroke fill"
       id="rect1953-5-0-6"
       width="37.354355"
       height="37.354355"
       x="55.82283"
       y="1043.1849"
       rx="6.0809412"
       ry="6.0809412" />
    <rect
       style="display:inline;fill:none;stroke:#636363;stroke-width:2;stroke-miterlimit:4;stroke-dasharray:none;stroke-opacity:1;paint-order:markers stroke fill"
       id="rect1953-9-1"
       width="43"
       height="43"
       x="53"
       y="945.36218"
       rx="7"
       ry="7" />
    <rect
       style="display:inline;fill:none;stroke:#636363;stroke-width:1;stroke-miterlimit:4;stroke-dasharray:none;stroke-opacity:1;paint-order:markers stroke fill"
       id="rect1953-3-3-2"
       width="32"
       height="32"
       x="58.5"
       y="948.86218"
       rx="5"
       ry="5" />
    <path
       style="display:inline;fill:none;stroke:#636363;stroke-width:1px;stroke-linecap:butt;stroke-linejoin:miter;stroke-opacity:1"
       d="m 60,979.36212 -6,7"
       id="path2006-60-9"
       sodipodi:nodetypes="cc" />
    <path
       style="display:inline;fill:none;stroke:#636363;stroke-width:1px;stroke-linecap:butt;stroke-linejoin:miter;stroke-opacity:1"
       d="m 89,979.36212 6,7"
       id="path2006-6-6-3"
       sodipodi:nodetypes="cc" />
    <path
       style="display:inline;fill:none;stroke:#636363;stroke-width:1px;stroke-linecap:butt;stroke-linejoin:miter;stroke-opacity:1"
       d="m 89,950.36212 5,-4"
       id="path2006-6-7-2-1"
       sodipodi:nodetypes="cc" />
    <path
       style="display:inline;fill:none;stroke:#636363;stroke-width:1px;stroke-linecap:butt;stroke-linejoin:miter;stroke-opacity:1"
       d="m 60,950.36212 -5,-4"
       id="path2006-6-7-5-6-9"
       sodipodi:nodetypes="cc" />
    <rect
       style="display:inline;fill:none;stroke:#c39d5f;stroke-width:2;stroke-miterlimit:4;stroke-dasharray:none;stroke-opacity:1;paint-order:markers stroke fill"
       id="rect1953-7"
       width="43"
       height="43"
       x="101"
       y="993.36218"
       rx="7"
       ry="7" />
    <rect
       style="display:inline;fill:none;stroke:#c39d5f;stroke-width:1;stroke-miterlimit:4;stroke-dasharray:none;stroke-opacity:1;paint-order:markers stroke fill"
       id="rect1953-3-8"
       width="32"
       height="32"
       x="106.5"
       y="996.86218"
       rx="5"
       ry="5" />
    <path
       style="display:inline;fill:none;stroke:#c39d5f;stroke-width:1px;stroke-linecap:butt;stroke-linejoin:miter;stroke-opacity:1"
       d="m 108,1027.3621 -6,7"
       id="path2006-4"
       sodipodi:nodetypes="cc" />
    <path
       style="display:inline;fill:none;stroke:#c39d5f;stroke-width:1px;stroke-linecap:butt;stroke-linejoin:miter;stroke-opacity:1"
       d="m 137,1027.3621 6,7"
       id="path2006-6-5"
       sodipodi:nodetypes="cc" />
    <path
       style="display:inline;fill:none;stroke:#c39d5f;stroke-width:1px;stroke-linecap:butt;stroke-linejoin:miter;stroke-opacity:1"
       d="m 137,998.36213 5,-4"
       id="path2006-6-7-03"
       sodipodi:nodetypes="cc" />
    <path
       style="display:inline;fill:none;stroke:#c39d5f;stroke-width:1px;stroke-linecap:butt;stroke-linejoin:miter;stroke-opacity:1"
       d="m 108,998.36213 -5,-4"
       id="path2006-6-7-5-61"
       sodipodi:nodetypes="cc" />
    <path
       d="m 121.49053,1020.3787 4.19757,-6.015 -11.1881,-0.073 0.0309,-2.8205 11.199,-0.066 -4.2393,-6.0361 3.27129,-0.033 5.73811,7.5383 -5.71526,7.5157 z"
       id="path2819-0"
       style="display:inline;fill:#c39d5f;fill-opacity:1;stroke-width:0.0417635"
       sodipodi:nodetypes="cccccccccc" />
    <rect
       style="display:inline;fill:none;stroke:#a17b3d;stroke-width:1;stroke-miterlimit:4;stroke-dasharray:none;stroke-opacity:1;paint-order:markers stroke fill"
       id="rect1953-5-6"
       width="43"
       height="43"
       x="101"
       y="1040.3621"
       rx="7"
       ry="7" />
    <rect
       style="display:inline;fill:none;stroke:#c39d5f;stroke-width:0.868706;stroke-miterlimit:4;stroke-dasharray:none;stroke-opacity:1;paint-order:markers stroke fill"
       id="rect1953-3-6-3"
       width="27.79859"
       height="27.79859"
       x="108.60071"
       y="1046.2253"
       rx="4.3435297"
       ry="4.3435297" />
    <path
       style="display:inline;fill:none;stroke:#c39d5f;stroke-width:0.868706px;stroke-linecap:butt;stroke-linejoin:miter;stroke-opacity:1"
       d="m 109.90376,1072.7209 -5.21223,6.081"
       id="path2006-2-20"
       sodipodi:nodetypes="cc" />
    <path
       style="display:inline;fill:none;stroke:#c39d5f;stroke-width:0.868706px;stroke-linecap:butt;stroke-linejoin:miter;stroke-opacity:1"
       d="m 135.09624,1072.7209 5.21223,6.081"
       id="path2006-6-9-6"
       sodipodi:nodetypes="cc" />
    <path
       style="display:inline;fill:none;stroke:#c39d5f;stroke-width:0.868706px;stroke-linecap:butt;stroke-linejoin:miter;stroke-opacity:1"
       d="m 135.09624,1047.5285 4.34353,-3.4749"
       id="path2006-6-7-1-1"
       sodipodi:nodetypes="cc" />
    <path
       style="display:inline;fill:none;stroke:#c39d5f;stroke-width:0.868706px;stroke-linecap:butt;stroke-linejoin:miter;stroke-opacity:1"
       d="m 109.90376,1047.5285 -4.34353,-3.4749"
       id="path2006-6-7-5-2-5"
       sodipodi:nodetypes="cc" />
    <path
       d="m 121.62307,1066.6544 3.64645,-5.2253 -9.71917,-0.063 0.0268,-2.4502 9.72863,-0.057 -3.6827,-5.2435 2.84179,-0.029 4.98473,6.5485 -4.96488,6.529 z"
       id="path2819-7-5"
       style="display:inline;fill:#c39d5f;fill-opacity:1;stroke-width:0.0362802"
       sodipodi:nodetypes="cccccccccc" />
    <rect
       style="display:inline;fill:none;stroke:#c39d5f;stroke-width:1.737;stroke-miterlimit:4;stroke-dasharray:none;stroke-opacity:1;paint-order:markers stroke fill"
       id="rect1953-5-0-4"
       width="37.354355"
       height="37.354355"
       x="103.82281"
       y="1043.1849"
       rx="6.0809412"
       ry="6.0809412" />
    <rect
       style="display:inline;fill:none;stroke:#636363;stroke-width:2;stroke-miterlimit:4;stroke-dasharray:none;stroke-opacity:1;paint-order:markers stroke fill"
       id="rect1953-9-7"
       width="43"
       height="43"
       x="101"
       y="945.36218"
       rx="7"
       ry="7" />
    <rect
       style="display:inline;fill:none;stroke:#636363;stroke-width:1;stroke-miterlimit:4;stroke-dasharray:none;stroke-opacity:1;paint-order:markers stroke fill"
       id="rect1953-3-3-6"
       width="32"
       height="32"
       x="106.5"
       y="948.86218"
       rx="5"
       ry="5" />
    <path
       style="display:inline;fill:none;stroke:#636363;stroke-width:1px;stroke-linecap:butt;stroke-linejoin:miter;stroke-opacity:1"
       d="m 108,979.36212 -6,7"
       id="path2006-60-5"
       sodipodi:nodetypes="cc" />
    <path
       style="display:inline;fill:none;stroke:#636363;stroke-width:1px;stroke-linecap:butt;stroke-linejoin:miter;stroke-opacity:1"
       d="m 137,979.36212 6,7"
       id="path2006-6-6-6"
       sodipodi:nodetypes="cc" />
    <path
       style="display:inline;fill:none;stroke:#636363;stroke-width:1px;stroke-linecap:butt;stroke-linejoin:miter;stroke-opacity:1"
       d="m 137,950.36212 5,-4"
       id="path2006-6-7-2-9"
       sodipodi:nodetypes="cc" />
    <path
       style="display:inline;fill:none;stroke:#636363;stroke-width:1px;stroke-linecap:butt;stroke-linejoin:miter;stroke-opacity:1"
       d="m 108,950.36212 -5,-4"
       id="path2006-6-7-5-6-3"
       sodipodi:nodetypes="cc" />
    <path
       d="m 121.49053,972.37873 4.19757,-6.01505 -11.1881,-0.0731 0.0309,-2.8205 11.199,-0.0659 -4.2393,-6.03605 3.27129,-0.033 5.73811,7.53826 -5.71526,7.51575 z"
       id="path2819-1-7"
       style="display:inline;fill:#636363;fill-opacity:1;stroke-width:0.0417635"
       sodipodi:nodetypes="cccccccccc" />
    <rect
       style="display:inline;fill:none;stroke:#c39d5f;stroke-width:2;stroke-miterlimit:4;stroke-dasharray:none;stroke-opacity:1;paint-order:markers stroke fill"
       id="rect1953-8-4"
       width="43"
       height="43"
       x="149"
       y="993.36224"
       rx="7"
       ry="7" />
    <rect
       style="display:inline;fill:none;stroke:#c39d5f;stroke-width:1;stroke-miterlimit:4;stroke-dasharray:none;stroke-opacity:1;paint-order:markers stroke fill"
       id="rect1953-3-7-5"
       width="32"
       height="32"
       x="154.5"
       y="996.86224"
       rx="5"
       ry="5" />
    <path
       style="display:inline;fill:none;stroke:#c39d5f;stroke-width:1px;stroke-linecap:butt;stroke-linejoin:miter;stroke-opacity:1"
       d="m 156,1027.3621 -6,7"
       id="path2006-9-2"
       sodipodi:nodetypes="cc" />
    <path
       style="display:inline;fill:none;stroke:#c39d5f;stroke-width:1px;stroke-linecap:butt;stroke-linejoin:miter;stroke-opacity:1"
       d="m 185,1027.3621 6,7"
       id="path2006-6-2-5"
       sodipodi:nodetypes="cc" />
    <path
       style="display:inline;fill:none;stroke:#c39d5f;stroke-width:1px;stroke-linecap:butt;stroke-linejoin:miter;stroke-opacity:1"
       d="m 185,998.36218 5,-4"
       id="path2006-6-7-0-4"
       sodipodi:nodetypes="cc" />
    <path
       style="display:inline;fill:none;stroke:#c39d5f;stroke-width:1px;stroke-linecap:butt;stroke-linejoin:miter;stroke-opacity:1"
       d="m 156,998.36218 -5,-4"
       id="path2006-6-7-5-23-7"
       sodipodi:nodetypes="cc" />
    <rect
       style="display:inline;fill:none;stroke:#a17b3d;stroke-width:1;stroke-miterlimit:4;stroke-dasharray:none;stroke-opacity:1;paint-order:markers stroke fill"
       id="rect1953-5-9-4"
       width="43"
       height="43"
       x="149"
       y="1040.3621"
       rx="7"
       ry="7" />
    <rect
       style="display:inline;fill:none;stroke:#c39d5f;stroke-width:0.868706;stroke-miterlimit:4;stroke-dasharray:none;stroke-opacity:1;paint-order:markers stroke fill"
       id="rect1953-3-6-2-3"
       width="27.79859"
       height="27.79859"
       x="156.60071"
       y="1046.2253"
       rx="4.3435297"
       ry="4.3435297" />
    <path
       style="display:inline;fill:none;stroke:#c39d5f;stroke-width:0.868706px;stroke-linecap:butt;stroke-linejoin:miter;stroke-opacity:1"
       d="m 157.90376,1072.721 -5.21223,6.081"
       id="path2006-2-2-0"
       sodipodi:nodetypes="cc" />
    <path
       style="display:inline;fill:none;stroke:#c39d5f;stroke-width:0.868706px;stroke-linecap:butt;stroke-linejoin:miter;stroke-opacity:1"
       d="m 183.09624,1072.721 5.21223,6.081"
       id="path2006-6-9-8-7"
       sodipodi:nodetypes="cc" />
    <path
       style="display:inline;fill:none;stroke:#c39d5f;stroke-width:0.868706px;stroke-linecap:butt;stroke-linejoin:miter;stroke-opacity:1"
       d="m 183.09624,1047.5286 4.34353,-3.475"
       id="path2006-6-7-1-9-8"
       sodipodi:nodetypes="cc" />
    <path
       style="display:inline;fill:none;stroke:#c39d5f;stroke-width:0.868706px;stroke-linecap:butt;stroke-linejoin:miter;stroke-opacity:1"
       d="m 157.90376,1047.5286 -4.34353,-3.475"
       id="path2006-6-7-5-2-7-6"
       sodipodi:nodetypes="cc" />
    <rect
       style="display:inline;fill:none;stroke:#c39d5f;stroke-width:1.737;stroke-miterlimit:4;stroke-dasharray:none;stroke-opacity:1;paint-order:markers stroke fill"
       id="rect1953-5-0-6-8"
       width="37.354355"
       height="37.354355"
       x="151.82281"
       y="1043.1849"
       rx="6.0809412"
       ry="6.0809412" />
    <rect
       style="display:inline;fill:none;stroke:#636363;stroke-width:2;stroke-miterlimit:4;stroke-dasharray:none;stroke-opacity:1;paint-order:markers stroke fill"
       id="rect1953-9-1-4"
       width="43"
       height="43"
       x="149"
       y="945.36224"
       rx="7"
       ry="7" />
    <rect
       style="display:inline;fill:none;stroke:#636363;stroke-width:1;stroke-miterlimit:4;stroke-dasharray:none;stroke-opacity:1;paint-order:markers stroke fill"
       id="rect1953-3-3-2-3"
       width="32"
       height="32"
       x="154.5"
       y="948.86224"
       rx="5"
       ry="5" />
    <path
       style="display:inline;fill:none;stroke:#636363;stroke-width:1px;stroke-linecap:butt;stroke-linejoin:miter;stroke-opacity:1"
       d="m 156,979.36217 -6,7"
       id="path2006-60-9-1"
       sodipodi:nodetypes="cc" />
    <path
       style="display:inline;fill:none;stroke:#636363;stroke-width:1px;stroke-linecap:butt;stroke-linejoin:miter;stroke-opacity:1"
       d="m 185,979.36217 6,7"
       id="path2006-6-6-3-4"
       sodipodi:nodetypes="cc" />
    <path
       style="display:inline;fill:none;stroke:#636363;stroke-width:1px;stroke-linecap:butt;stroke-linejoin:miter;stroke-opacity:1"
       d="m 185,950.36217 5,-4"
       id="path2006-6-7-2-1-9"
       sodipodi:nodetypes="cc" />
    <path
       style="display:inline;fill:none;stroke:#636363;stroke-width:1px;stroke-linecap:butt;stroke-linejoin:miter;stroke-opacity:1"
       d="m 156,950.36217 -5,-4"
       id="path2006-6-7-5-6-9-2"
       sodipodi:nodetypes="cc" />
    <g
       aria-label="Down"
       id="text1093"
       style="font-style:normal;font-variant:normal;font-weight:bold;font-stretch:normal;font-size:11.3333px;line-height:1.25;font-family:'Ubuntu Mono';-inkscape-font-specification:'Ubuntu Mono, Bold';font-variant-ligatures:normal;font-variant-caps:normal;font-variant-numeric:normal;font-variant-east-asian:normal;fill:#c39d5f;fill-opacity:1;stroke:none;stroke-width:0.297158">
      <path
         d="m 64.393995,1023.3235 q 0.05667,0.011 0.124666,0.011 0.068,0 0.124666,0 0.475999,0 0.793331,-0.1813 0.328666,-0.1814 0.521332,-0.4987 0.203999,-0.3173 0.283332,-0.748 0.09067,-0.442 0.09067,-0.9633 0,-0.4534 -0.068,-0.884 -0.068,-0.4307 -0.237999,-0.7594 -0.17,-0.3286 -0.464666,-0.5213 -0.294665,-0.204 -0.759331,-0.204 -0.09067,0 -0.203999,0.011 -0.113333,0 -0.203999,0.023 z m 3.354656,-2.38 q 0,0.9746 -0.249332,1.666 -0.238,0.68 -0.668665,1.1106 -0.430665,0.4307 -1.03133,0.6347 -0.589332,0.1927 -1.30333,0.1927 -0.373999,0 -0.736664,-0.045 -0.351333,-0.034 -0.759331,-0.1246 v -6.8454 q 0.475998,-0.102 0.89533,-0.136 0.419332,-0.034 0.781998,-0.034 0.691331,0 1.257996,0.204 0.577999,0.204 0.974664,0.646 0.396666,0.4307 0.611998,1.1107 0.226666,0.6687 0.226666,1.6207 z"
         style="font-style:normal;font-variant:normal;font-weight:bold;font-stretch:normal;font-size:11.3333px;font-family:'Ubuntu Mono';-inkscape-font-specification:'Ubuntu Mono, Bold';font-variant-ligatures:normal;font-variant-caps:normal;font-variant-numeric:normal;font-variant-east-asian:normal;stroke-width:0.297158"
         id="path1266" />
      <path
         d="m 73.403968,1021.7821 q 0,0.6347 -0.181333,1.156 -0.181333,0.51 -0.509999,0.884 -0.328665,0.374 -0.793331,0.578 -0.453332,0.204 -1.019996,0.204 -0.566665,0 -1.031331,-0.204 -0.453332,-0.204 -0.793331,-0.578 -0.328665,-0.374 -0.509998,-0.884 -0.181333,-0.5213 -0.181333,-1.156 0,-0.6233 0.181333,-1.1333 0.192666,-0.5213 0.521332,-0.884 0.339999,-0.374 0.804664,-0.5667 0.464665,-0.204 1.008664,-0.204 0.555331,0 1.008663,0.204 0.464665,0.1927 0.793331,0.5667 0.339999,0.3627 0.521332,0.884 0.181333,0.51 0.181333,1.1333 z m -3.60399,0.011 q 0,0.714 0.249333,1.156 0.260666,0.442 0.827331,0.442 0.543998,0 0.815997,-0.442 0.283333,-0.442 0.283333,-1.156 0,-0.714 -0.260666,-1.1447 -0.249333,-0.442 -0.815997,-0.442 -0.543999,0 -0.827331,0.442 -0.272,0.4307 -0.272,1.1447 z"
         style="font-style:normal;font-variant:normal;font-weight:bold;font-stretch:normal;font-size:11.3333px;font-family:'Ubuntu Mono';-inkscape-font-specification:'Ubuntu Mono, Bold';font-variant-ligatures:normal;font-variant-caps:normal;font-variant-numeric:normal;font-variant-east-asian:normal;stroke-width:0.297158"
         id="path1268" />
      <path
         d="m 77.370623,1024.4568 q -0.124667,-0.3513 -0.238,-0.646 -0.101999,-0.2947 -0.203999,-0.5667 -0.09067,-0.2833 -0.192666,-0.578 -0.09067,-0.306 -0.192666,-0.6686 -0.113333,0.3626 -0.204,0.6573 -0.09067,0.2833 -0.192666,0.5667 -0.09067,0.2833 -0.192666,0.578 -0.102,0.2946 -0.249332,0.6573 h -1.053997 q -0.136,-0.4987 -0.260666,-1.0993 -0.113333,-0.612 -0.215333,-1.292 -0.102,-0.6914 -0.181333,-1.428 -0.07933,-0.7367 -0.147333,-1.5074 h 1.189997 q 0.04533,0.986 0.09067,1.9267 0.05667,0.9407 0.192666,1.938 0.147333,-0.4307 0.249333,-0.7933 0.113333,-0.374 0.192666,-0.7027 0.09067,-0.34 0.158666,-0.646 0.07933,-0.3173 0.158666,-0.646 h 1.008664 q 0.068,0.3287 0.136,0.646 0.07933,0.306 0.158666,0.646 0.09067,0.3287 0.181333,0.7027 0.101999,0.3626 0.237999,0.7933 0.068,-0.5213 0.113333,-0.9973 0.04533,-0.476 0.068,-0.9407 0.034,-0.476 0.04533,-0.9407 0.02267,-0.476 0.04533,-0.986 h 1.189997 q -0.124667,1.5527 -0.351333,2.924 -0.215332,1.3714 -0.487332,2.4027 z"
         style="font-style:normal;font-variant:normal;font-weight:bold;font-stretch:normal;font-size:11.3333px;font-family:'Ubuntu Mono';-inkscape-font-specification:'Ubuntu Mono, Bold';font-variant-ligatures:normal;font-variant-caps:normal;font-variant-numeric:normal;font-variant-east-asian:normal;stroke-width:0.297158"
         id="path1270" />
      <path
         d="m 80.101949,1019.3001 q 0.373999,-0.102 0.917997,-0.1926 0.555332,-0.091 1.20133,-0.091 0.634665,0 1.053997,0.1813 0.419332,0.17 0.657331,0.4987 0.249333,0.3173 0.351332,0.7707 0.102,0.442 0.102,0.986 v 3.0033 H 82.99194 v -2.822 q 0,-0.748 -0.169999,-1.0767 -0.17,-0.3286 -0.691332,-0.3286 -0.158666,0 -0.317332,0.011 -0.147333,0.011 -0.317332,0.034 v 4.182 h -1.393996 z"
         style="font-style:normal;font-variant:normal;font-weight:bold;font-stretch:normal;font-size:11.3333px;font-family:'Ubuntu Mono';-inkscape-font-specification:'Ubuntu Mono, Bold';font-variant-ligatures:normal;font-variant-caps:normal;font-variant-numeric:normal;font-variant-east-asian:normal;stroke-width:0.297158"
         id="path1272" />
    </g>
    <g
       aria-label="Page"
       id="text1093-3-1"
       style="font-style:normal;font-variant:normal;font-weight:bold;font-stretch:normal;font-size:11.3333px;line-height:1.25;font-family:'Ubuntu Mono';-inkscape-font-specification:'Ubuntu Mono, Bold';font-variant-ligatures:normal;font-variant-caps:normal;font-variant-numeric:normal;font-variant-east-asian:normal;display:inline;fill:#c39d5f;fill-opacity:1;stroke:none;stroke-width:0.297158">
      <path
         d="m 160.92666,1007.3621 q 1.33733,0 2.07399,0.5554 0.73667,0.544 0.73667,1.7906 0,1.258 -0.748,1.8247 -0.73666,0.5553 -2.09666,0.5553 h -0.49867 v 2.3687 H 159 v -6.9247 q 0.204,-0.045 0.45333,-0.079 0.26067,-0.034 0.52133,-0.045 0.26067,-0.023 0.51,-0.034 0.24933,-0.011 0.442,-0.011 z m 0.15867,1.2127 q -0.12467,0 -0.35134,0.011 -0.21533,0 -0.34,0.023 v 2.2667 h 0.56667 q 0.66866,0 1.00866,-0.2607 0.34,-0.272 0.34,-0.918 0,-0.612 -0.34,-0.8613 -0.32866,-0.2607 -0.88399,-0.2607 z"
         style="font-style:normal;font-variant:normal;font-weight:bold;font-stretch:normal;font-size:11.3333px;font-family:'Ubuntu Mono';-inkscape-font-specification:'Ubuntu Mono, Bold';font-variant-ligatures:normal;font-variant-caps:normal;font-variant-numeric:normal;font-variant-east-asian:normal;stroke-width:0.297158"
         id="path1280" />
      <path
         d="m 166.89931,1013.4595 q 0.22666,0 0.442,0 0.21533,-0.011 0.374,-0.034 v -1.224 q -0.136,-0.023 -0.32867,-0.034 -0.19267,-0.023 -0.35133,-0.023 -0.21533,0 -0.41933,0.034 -0.204,0.023 -0.36267,0.091 -0.14733,0.068 -0.238,0.1926 -0.0907,0.1247 -0.0907,0.3287 0,0.3627 0.272,0.5213 0.272,0.1474 0.70267,0.1474 z m -0.12467,-4.4654 q 0.65733,0 1.088,0.1587 0.442,0.1473 0.70266,0.4307 0.26067,0.272 0.374,0.68 0.11334,0.3966 0.11334,0.8953 v 3.1733 q -0.306,0.068 -0.90667,0.1587 -0.60066,0.091 -1.34866,0.091 -0.51,0 -0.92933,-0.091 -0.408,-0.091 -0.70267,-0.2947 -0.29466,-0.2153 -0.45333,-0.544 -0.15866,-0.34 -0.15866,-0.8273 0,-0.4647 0.18133,-0.782 0.18133,-0.3173 0.48733,-0.51 0.306,-0.1927 0.70266,-0.272 0.39667,-0.091 0.82734,-0.091 0.54399,0 0.96333,0.091 v -0.17 q 0,-0.3967 -0.24934,-0.6573 -0.24933,-0.272 -0.86133,-0.272 -0.39666,0 -0.77066,0.057 -0.36267,0.057 -0.58933,0.136 l -0.19267,-1.122 q 0.26067,-0.091 0.73667,-0.1586 0.47599,-0.079 0.98599,-0.079 z"
         style="font-style:normal;font-variant:normal;font-weight:bold;font-stretch:normal;font-size:11.3333px;font-family:'Ubuntu Mono';-inkscape-font-specification:'Ubuntu Mono, Bold';font-variant-ligatures:normal;font-variant-caps:normal;font-variant-numeric:normal;font-variant-east-asian:normal;stroke-width:0.297158"
         id="path1282" />
      <path
         d="m 171.51196,1011.6235 q 0,0.6573 0.238,1.0086 0.238,0.34 0.748,0.34 0.22666,0 0.41933,-0.057 0.204,-0.057 0.36267,-0.1474 v -2.5613 q -0.15867,-0.034 -0.28334,-0.045 -0.12466,-0.011 -0.26066,-0.011 -1.224,0 -1.224,1.4734 z m 3.17333,2.1873 q 0,1.3033 -0.63467,1.9266 -0.62333,0.6234 -2.01733,0.6234 -0.49866,0 -0.96333,-0.102 -0.45333,-0.102 -0.87266,-0.238 l 0.26066,-1.1787 q 0.32867,0.1247 0.69134,0.2267 0.36266,0.1133 0.90666,0.1133 0.36267,0 0.60066,-0.091 0.238,-0.079 0.374,-0.2267 0.136,-0.1473 0.19267,-0.3513 0.0567,-0.1927 0.0567,-0.4194 v -0.2153 q -0.29467,0.1133 -0.544,0.17 -0.238,0.057 -0.52133,0.057 -1.04267,0 -1.58667,-0.6574 -0.53266,-0.6573 -0.53266,-1.8246 0,-1.3147 0.72533,-1.9607 0.72533,-0.646 1.97199,-0.646 0.87267,0 1.89267,0.2833 z"
         style="font-style:normal;font-variant:normal;font-weight:bold;font-stretch:normal;font-size:11.3333px;font-family:'Ubuntu Mono';-inkscape-font-specification:'Ubuntu Mono, Bold';font-variant-ligatures:normal;font-variant-caps:normal;font-variant-numeric:normal;font-variant-east-asian:normal;stroke-width:0.297158"
         id="path1284" />
      <path
         d="m 175.73928,1011.8388 q 0,-0.7027 0.21534,-1.2353 0.21533,-0.5327 0.56666,-0.884 0.35133,-0.3627 0.80467,-0.544 0.45333,-0.1814 0.92933,-0.1814 1.17866,0 1.79066,0.7027 0.612,0.6913 0.612,2.0287 0,0.136 -0.0113,0.2833 0,0.1473 -0.0113,0.238 h -3.45666 q 0,0.5213 0.43067,0.8273 0.43066,0.2947 1.11066,0.2947 0.41933,0 0.79333,-0.091 0.38533,-0.091 0.646,-0.1813 l 0.19267,1.19 q -0.36267,0.1247 -0.77067,0.204 -0.408,0.091 -0.918,0.091 -0.67999,0 -1.22399,-0.17 -0.53267,-0.1814 -0.918,-0.5214 -0.374,-0.3513 -0.578,-0.8613 -0.204,-0.51 -0.204,-1.19 z m 3.56999,-0.5553 q 0,-0.2154 -0.0567,-0.408 -0.0567,-0.204 -0.18134,-0.3627 -0.12466,-0.1587 -0.31733,-0.2493 -0.19267,-0.102 -0.476,-0.102 -0.272,0 -0.476,0.091 -0.19266,0.091 -0.32866,0.2494 -0.12467,0.1586 -0.204,0.3626 -0.068,0.204 -0.0907,0.4194 z"
         style="font-style:normal;font-variant:normal;font-weight:bold;font-stretch:normal;font-size:11.3333px;font-family:'Ubuntu Mono';-inkscape-font-specification:'Ubuntu Mono, Bold';font-variant-ligatures:normal;font-variant-caps:normal;font-variant-numeric:normal;font-variant-east-asian:normal;stroke-width:0.297158"
         id="path1286" />
    </g>
    <g
       aria-label="Up"
       id="text1093-9"
       style="font-style:normal;font-variant:normal;font-weight:bold;font-stretch:normal;font-size:11.3333px;line-height:1.25;font-family:'Ubuntu Mono';-inkscape-font-specification:'Ubuntu Mono, Bold';font-variant-ligatures:normal;font-variant-caps:normal;font-variant-numeric:normal;font-variant-east-asian:normal;display:inline;fill:#c39d5f;fill-opacity:1;stroke:none;stroke-width:0.297158">
      <path
         d="m 161.19866,1024.6041 q -0.68,0 -1.14466,-0.1813 -0.45334,-0.1927 -0.72534,-0.544 -0.27199,-0.3513 -0.38533,-0.85 -0.11333,-0.4987 -0.11333,-1.1107 v -4.4766 h 1.40533 v 4.386 q 0,0.442 0.0453,0.748 0.0453,0.2946 0.14733,0.476 0.11334,0.1813 0.306,0.2606 0.19267,0.079 0.48734,0.079 0.29466,0 0.48733,-0.079 0.19266,-0.079 0.306,-0.2606 0.11333,-0.1927 0.15866,-0.4874 0.0453,-0.306 0.0453,-0.748 v -4.3746 h 1.39399 v 4.4766 q 0,0.612 -0.11333,1.1107 -0.11333,0.4987 -0.39667,0.85 -0.28333,0.3513 -0.74799,0.544 -0.46467,0.1813 -1.156,0.1813 z"
         style="font-style:normal;font-variant:normal;font-weight:bold;font-stretch:normal;font-size:11.3333px;font-family:'Ubuntu Mono';-inkscape-font-specification:'Ubuntu Mono, Bold';font-variant-ligatures:normal;font-variant-caps:normal;font-variant-numeric:normal;font-variant-east-asian:normal;stroke-width:0.297158"
         id="path1275" />
      <path
         d="m 167.95331,1021.8388 q 0,-0.714 -0.28334,-1.1673 -0.28333,-0.4647 -0.86133,-0.4647 -0.15866,0 -0.34,0.023 -0.18133,0.011 -0.306,0.023 v 2.924 q 0.136,0.091 0.36267,0.1474 0.22667,0.057 0.45333,0.057 0.49867,0 0.73667,-0.3966 0.238,-0.408 0.238,-1.1447 z m 1.41666,-0.045 q 0,0.612 -0.136,1.1333 -0.136,0.51 -0.39667,0.884 -0.26066,0.3627 -0.65733,0.5667 -0.39666,0.204 -0.918,0.204 -0.53266,0 -1.09933,-0.2607 v 2.006 h -1.39399 v -7.0267 q 0.38533,-0.1246 0.94066,-0.204 0.56667,-0.079 1.11067,-0.079 1.23533,0 1.89266,0.748 0.65733,0.748 0.65733,2.0287 z"
         style="font-style:normal;font-variant:normal;font-weight:bold;font-stretch:normal;font-size:11.3333px;font-family:'Ubuntu Mono';-inkscape-font-specification:'Ubuntu Mono, Bold';font-variant-ligatures:normal;font-variant-caps:normal;font-variant-numeric:normal;font-variant-east-asian:normal;stroke-width:0.297158"
         id="path1277" />
    </g>
    <g
       aria-label="Page"
       id="text1093-3-6"
       style="font-style:normal;font-variant:normal;font-weight:bold;font-stretch:normal;font-size:10.0187px;line-height:1.25;font-family:'Ubuntu Mono';-inkscape-font-specification:'Ubuntu Mono, Bold';font-variant-ligatures:normal;font-variant-caps:normal;font-variant-numeric:normal;font-variant-east-asian:normal;display:inline;fill:#c39d5f;fill-opacity:1;stroke:none;stroke-width:0.262689">
      <path
         d="m 65.703177,1054.3621 q 1.182206,0 1.833422,0.4909 0.651215,0.4809 0.651215,1.583 0,1.112 -0.661234,1.613 -0.651215,0.4909 -1.853459,0.4909 h -0.440823 v 2.0939 h -1.2323 v -6.1214 q 0.180337,-0.04 0.400748,-0.07 0.23043,-0.03 0.46086,-0.04 0.23043,-0.02 0.450842,-0.03 0.220411,-0.01 0.390729,-0.01 z m 0.140262,1.072 q -0.110206,0 -0.31058,0.01 -0.190355,0 -0.300561,0.02 v 2.0038 h 0.500935 q 0.591103,0 0.891664,-0.2305 0.300561,-0.2404 0.300561,-0.8115 0,-0.541 -0.300561,-0.7614 -0.290542,-0.2304 -0.781458,-0.2304 z"
         style="font-style:normal;font-variant:normal;font-weight:bold;font-stretch:normal;font-size:10.0187px;font-family:'Ubuntu Mono';-inkscape-font-specification:'Ubuntu Mono, Bold';font-variant-ligatures:normal;font-variant-caps:normal;font-variant-numeric:normal;font-variant-east-asian:normal;stroke-width:0.262689"
         id="path1303" />
      <path
         d="m 70.983032,1059.7521 q 0.200374,0 0.390729,0 0.190355,-0.01 0.330617,-0.03 v -1.082 q -0.120224,-0.02 -0.290542,-0.03 -0.170318,-0.02 -0.31058,-0.02 -0.190355,0 -0.370692,0.03 -0.180336,0.02 -0.320598,0.08 -0.130243,0.06 -0.210393,0.1703 -0.08015,0.1102 -0.08015,0.2905 0,0.3206 0.240449,0.4609 0.240449,0.1302 0.62116,0.1302 z m -0.110206,-3.9473 q 0.581085,0 0.961795,0.1402 0.390729,0.1303 0.621159,0.3807 0.230431,0.2405 0.330618,0.6012 0.100187,0.3506 0.100187,0.7914 v 2.8053 q -0.270505,0.06 -0.801496,0.1402 -0.530991,0.08 -1.192226,0.08 -0.450841,0 -0.821533,-0.08 -0.360673,-0.08 -0.621159,-0.2604 -0.260487,-0.1904 -0.400748,-0.4809 -0.140262,-0.3006 -0.140262,-0.7314 0,-0.4108 0.160299,-0.6913 0.160299,-0.2805 0.430804,-0.4508 0.270505,-0.1704 0.621159,-0.2405 0.350655,-0.08 0.731366,-0.08 0.480897,0 0.851589,0.08 v -0.1503 q 0,-0.3506 -0.220411,-0.581 -0.220412,-0.2405 -0.761422,-0.2405 -0.350654,0 -0.681271,0.05 -0.320599,0.05 -0.520973,0.1202 l -0.170317,-0.9918 q 0.23043,-0.08 0.651215,-0.1403 0.420785,-0.07 0.871627,-0.07 z"
         style="font-style:normal;font-variant:normal;font-weight:bold;font-stretch:normal;font-size:10.0187px;font-family:'Ubuntu Mono';-inkscape-font-specification:'Ubuntu Mono, Bold';font-variant-ligatures:normal;font-variant-caps:normal;font-variant-numeric:normal;font-variant-east-asian:normal;stroke-width:0.262689"
         id="path1305" />
      <path
         d="m 75.060642,1058.1291 q 0,0.5811 0.210393,0.8917 0.210393,0.3005 0.661234,0.3005 0.200374,0 0.370692,-0.05 0.180337,-0.05 0.320599,-0.1302 v -2.2642 q -0.140262,-0.03 -0.250468,-0.04 -0.110206,-0.01 -0.23043,-0.01 -1.08202,0 -1.08202,1.3024 z m 2.805236,1.9336 q 0,1.1522 -0.561047,1.7032 -0.551028,0.551 -1.783328,0.551 -0.440823,0 -0.85159,-0.09 -0.400748,-0.09 -0.77144,-0.2104 l 0.23043,-1.042 q 0.290543,0.1102 0.611141,0.2004 0.320598,0.1002 0.801496,0.1002 0.320598,0 0.530991,-0.08 0.210393,-0.07 0.330617,-0.2003 0.120225,-0.1303 0.170318,-0.3106 0.05009,-0.1703 0.05009,-0.3707 v -0.1904 q -0.260487,0.1002 -0.480898,0.1503 -0.210393,0.05 -0.46086,0.05 -0.921721,0 -1.402618,-0.5811 -0.470879,-0.5811 -0.470879,-1.613 0,-1.1622 0.641197,-1.7332 0.641196,-0.5711 1.743253,-0.5711 0.77144,0 1.673123,0.2505 z"
         style="font-style:normal;font-variant:normal;font-weight:bold;font-stretch:normal;font-size:10.0187px;font-family:'Ubuntu Mono';-inkscape-font-specification:'Ubuntu Mono, Bold';font-variant-ligatures:normal;font-variant-caps:normal;font-variant-numeric:normal;font-variant-east-asian:normal;stroke-width:0.262689"
         id="path1307" />
      <path
         d="m 78.797617,1058.3195 q 0,-0.6212 0.190356,-1.0921 0.190355,-0.4708 0.500935,-0.7814 0.310579,-0.3206 0.711327,-0.4809 0.400748,-0.1603 0.821534,-0.1603 1.041944,0 1.582954,0.6211 0.54101,0.6112 0.54101,1.7934 0,0.1202 -0.01002,0.2504 0,0.1303 -0.01002,0.2104 h -3.055704 q 0,0.4609 0.380711,0.7314 0.38071,0.2605 0.981832,0.2605 0.370692,0 0.701309,-0.08 0.340636,-0.08 0.571066,-0.1603 l 0.170318,1.052 q -0.320598,0.1102 -0.681271,0.1803 -0.360674,0.08 -0.811515,0.08 -0.601122,0 -1.08202,-0.1503 -0.470879,-0.1603 -0.811514,-0.4608 -0.330617,-0.3106 -0.510954,-0.7615 -0.180337,-0.4508 -0.180337,-1.0519 z m 3.155891,-0.4909 q 0,-0.1904 -0.05009,-0.3607 -0.05009,-0.1804 -0.160299,-0.3206 -0.110206,-0.1403 -0.280524,-0.2204 -0.170317,-0.09 -0.420785,-0.09 -0.240449,0 -0.420785,0.08 -0.170318,0.08 -0.290543,0.2204 -0.110205,0.1402 -0.180336,0.3206 -0.06011,0.1803 -0.08015,0.3707 z"
         style="font-style:normal;font-variant:normal;font-weight:bold;font-stretch:normal;font-size:10.0187px;font-family:'Ubuntu Mono';-inkscape-font-specification:'Ubuntu Mono, Bold';font-variant-ligatures:normal;font-variant-caps:normal;font-variant-numeric:normal;font-variant-east-asian:normal;stroke-width:0.262689"
         id="path1309" />
    </g>
    <g
       aria-label="Down"
       id="text1093-2"
       style="font-style:normal;font-variant:normal;font-weight:bold;font-stretch:normal;font-size:10.0187px;line-height:1.25;font-family:'Ubuntu Mono';-inkscape-font-specification:'Ubuntu Mono, Bold';font-variant-ligatures:normal;font-variant-caps:normal;font-variant-numeric:normal;font-variant-east-asian:normal;display:inline;fill:#c39d5f;fill-opacity:1;stroke:none;stroke-width:0.262689">
      <path
         d="m 65.232298,1068.472 q 0.05009,0.01 0.110206,0.01 0.06011,0 0.110205,0 0.420786,0 0.701309,-0.1603 0.290543,-0.1603 0.460861,-0.4408 0.180336,-0.2805 0.250467,-0.6612 0.08015,-0.3908 0.08015,-0.8516 0,-0.4008 -0.06011,-0.7815 -0.06011,-0.3807 -0.210392,-0.6712 -0.150281,-0.2906 -0.410767,-0.4609 -0.260486,-0.1803 -0.671253,-0.1803 -0.08015,0 -0.180336,0.01 -0.100187,0 -0.180337,0.02 z m 2.965535,-2.1039 q 0,0.8616 -0.220411,1.4727 -0.210393,0.6012 -0.591104,0.9819 -0.38071,0.3807 -0.911701,0.561 -0.520973,0.1703 -1.152151,0.1703 -0.330617,0 -0.651215,-0.04 -0.31058,-0.03 -0.671253,-0.1103 v -6.0512 q 0.420785,-0.09 0.791477,-0.1203 0.370692,-0.03 0.691291,-0.03 0.61114,0 1.112075,0.1803 0.510954,0.1803 0.861608,0.5711 0.350655,0.3807 0.54101,0.9818 0.200374,0.5911 0.200374,1.4327 z"
         style="font-style:normal;font-variant:normal;font-weight:bold;font-stretch:normal;font-size:10.0187px;font-family:'Ubuntu Mono';-inkscape-font-specification:'Ubuntu Mono, Bold';font-variant-ligatures:normal;font-variant-caps:normal;font-variant-numeric:normal;font-variant-east-asian:normal;stroke-width:0.262689"
         id="path1312" />
      <path
         d="m 73.197164,1067.1095 q 0,0.561 -0.160299,1.0219 -0.160299,0.4508 -0.450841,0.7814 -0.290543,0.3306 -0.701309,0.511 -0.400748,0.1803 -0.901683,0.1803 -0.500935,0 -0.911702,-0.1803 -0.400748,-0.1804 -0.701309,-0.511 -0.290542,-0.3306 -0.450842,-0.7814 -0.160299,-0.4609 -0.160299,-1.0219 0,-0.5511 0.160299,-1.0019 0.170318,-0.4609 0.460861,-0.7815 0.300561,-0.3306 0.711327,-0.5009 0.410767,-0.1803 0.891665,-0.1803 0.490916,0 0.891664,0.1803 0.410767,0.1703 0.701309,0.5009 0.300561,0.3206 0.46086,0.7815 0.160299,0.4508 0.160299,1.0019 z m -3.185946,0.01 q 0,0.6312 0.220411,1.0219 0.23043,0.3907 0.731365,0.3907 0.480898,0 0.721347,-0.3907 0.250467,-0.3907 0.250467,-1.0219 0,-0.6312 -0.23043,-1.0119 -0.220411,-0.3907 -0.721346,-0.3907 -0.480898,0 -0.731365,0.3907 -0.240449,0.3807 -0.240449,1.0119 z"
         style="font-style:normal;font-variant:normal;font-weight:bold;font-stretch:normal;font-size:10.0187px;font-family:'Ubuntu Mono';-inkscape-font-specification:'Ubuntu Mono, Bold';font-variant-ligatures:normal;font-variant-caps:normal;font-variant-numeric:normal;font-variant-east-asian:normal;stroke-width:0.262689"
         id="path1314" />
      <path
         d="m 76.703709,1069.4739 q -0.110206,-0.3106 -0.210393,-0.5711 -0.09017,-0.2605 -0.180336,-0.5009 -0.08015,-0.2505 -0.170318,-0.511 -0.08015,-0.2705 -0.170318,-0.5911 -0.100187,0.3206 -0.180337,0.5811 -0.08015,0.2505 -0.170317,0.5009 -0.08015,0.2505 -0.170318,0.511 -0.09017,0.2605 -0.220412,0.5811 h -0.931739 q -0.120224,-0.4408 -0.23043,-0.9718 -0.100187,-0.541 -0.190355,-1.1422 -0.09017,-0.6111 -0.160299,-1.2623 -0.07013,-0.6512 -0.130243,-1.3325 h 1.051963 q 0.04007,0.8716 0.08015,1.7032 0.05009,0.8315 0.170317,1.7132 0.130244,-0.3807 0.220412,-0.7013 0.100187,-0.3307 0.170318,-0.6212 0.08015,-0.3006 0.140262,-0.5711 0.07013,-0.2805 0.140261,-0.571 h 0.891665 q 0.06011,0.2905 0.120224,0.571 0.07013,0.2705 0.140262,0.5711 0.08015,0.2905 0.160299,0.6212 0.09017,0.3206 0.210393,0.7013 0.06011,-0.4609 0.100187,-0.8817 0.04008,-0.4208 0.06011,-0.8315 0.03006,-0.4208 0.04008,-0.8316 0.02004,-0.4208 0.04007,-0.8716 h 1.051964 q -0.110206,1.3725 -0.31058,2.5848 -0.190355,1.2123 -0.430804,2.124 z"
         style="font-style:normal;font-variant:normal;font-weight:bold;font-stretch:normal;font-size:10.0187px;font-family:'Ubuntu Mono';-inkscape-font-specification:'Ubuntu Mono, Bold';font-variant-ligatures:normal;font-variant-caps:normal;font-variant-numeric:normal;font-variant-east-asian:normal;stroke-width:0.262689"
         id="path1316" />
      <path
         d="m 79.118216,1064.9154 q 0.330617,-0.09 0.811514,-0.1703 0.490917,-0.08 1.061983,-0.08 0.561047,0 0.931739,0.1603 0.370692,0.1503 0.581084,0.4408 0.220412,0.2805 0.31058,0.6813 0.09017,0.3907 0.09017,0.8716 v 2.655 h -1.2323 v -2.4947 q 0,-0.6612 -0.15028,-0.9518 -0.150281,-0.2905 -0.611141,-0.2905 -0.140262,0 -0.280524,0.01 -0.130243,0.01 -0.280523,0.03 v 3.6969 h -1.2323 z"
         style="font-style:normal;font-variant:normal;font-weight:bold;font-stretch:normal;font-size:10.0187px;font-family:'Ubuntu Mono';-inkscape-font-specification:'Ubuntu Mono, Bold';font-variant-ligatures:normal;font-variant-caps:normal;font-variant-numeric:normal;font-variant-east-asian:normal;stroke-width:0.262689"
         id="path1318" />
    </g>
    <g
       aria-label="Page"
       id="text1093-3-1-8"
       style="font-style:normal;font-variant:normal;font-weight:bold;font-stretch:normal;font-size:10.1383px;line-height:1.25;font-family:'Ubuntu Mono';-inkscape-font-specification:'Ubuntu Mono, Bold';font-variant-ligatures:normal;font-variant-caps:normal;font-variant-numeric:normal;font-variant-east-asian:normal;display:inline;fill:#c39d5f;fill-opacity:1;stroke:none;stroke-width:0.265826">
      <path
         d="m 161.87558,1054.3622 q 1.19632,0 1.85531,0.4967 0.65899,0.4867 0.65899,1.6019 0,1.1253 -0.66913,1.6323 -0.65899,0.4967 -1.87559,0.4967 h -0.44608 v 2.1189 h -1.24701 v -6.1945 q 0.18249,-0.041 0.40553,-0.071 0.23318,-0.03 0.46636,-0.041 0.23318,-0.02 0.45622,-0.03 0.22305,-0.01 0.3954,-0.01 z m 0.14193,1.0848 q -0.11152,0 -0.31428,0.01 -0.19263,0 -0.30415,0.02 v 2.0276 h 0.50691 q 0.59816,0 0.90231,-0.2331 0.30415,-0.2434 0.30415,-0.8212 0,-0.5475 -0.30415,-0.7706 -0.29401,-0.2331 -0.79079,-0.2331 z"
         style="font-style:normal;font-variant:normal;font-weight:bold;font-stretch:normal;font-size:10.1383px;font-family:'Ubuntu Mono';-inkscape-font-specification:'Ubuntu Mono, Bold';font-variant-ligatures:normal;font-variant-caps:normal;font-variant-numeric:normal;font-variant-east-asian:normal;stroke-width:0.265826"
         id="path1289" />
      <path
         d="m 167.21846,1059.8166 q 0.20277,0 0.3954,0 0.19262,-0.01 0.33456,-0.03 v -1.095 q -0.12166,-0.02 -0.29401,-0.03 -0.17235,-0.02 -0.31429,-0.02 -0.19263,0 -0.37512,0.03 -0.18248,0.02 -0.32442,0.081 -0.1318,0.061 -0.21291,0.1724 -0.0811,0.1115 -0.0811,0.294 0,0.3244 0.24332,0.4664 0.24332,0.1318 0.62857,0.1318 z m -0.11152,-3.9945 q 0.58802,0 0.97328,0.1419 0.39539,0.1318 0.62857,0.3853 0.23318,0.2433 0.33457,0.6083 0.10138,0.3548 0.10138,0.8009 v 2.8387 q -0.27373,0.061 -0.81106,0.142 -0.53733,0.081 -1.20646,0.081 -0.45623,0 -0.83134,-0.081 -0.36498,-0.081 -0.62858,-0.2636 -0.26359,-0.1927 -0.40553,-0.4867 -0.14194,-0.3041 -0.14194,-0.7401 0,-0.4156 0.16222,-0.6995 0.16221,-0.2839 0.43594,-0.4562 0.27374,-0.1724 0.62858,-0.2434 0.35484,-0.081 0.74009,-0.081 0.48664,0 0.86176,0.081 v -0.152 q 0,-0.3549 -0.22304,-0.5881 -0.22305,-0.2433 -0.77051,-0.2433 -0.35484,0 -0.68941,0.051 -0.32442,0.051 -0.52719,0.1217 l -0.17235,-1.0037 q 0.23318,-0.081 0.65899,-0.142 0.42581,-0.071 0.88203,-0.071 z"
         style="font-style:normal;font-variant:normal;font-weight:bold;font-stretch:normal;font-size:10.1383px;font-family:'Ubuntu Mono';-inkscape-font-specification:'Ubuntu Mono, Bold';font-variant-ligatures:normal;font-variant-caps:normal;font-variant-numeric:normal;font-variant-east-asian:normal;stroke-width:0.265826"
         id="path1291" />
      <path
         d="m 171.34475,1058.1742 q 0,0.588 0.2129,0.9023 0.21291,0.3041 0.66913,0.3041 0.20277,0 0.37512,-0.051 0.18249,-0.051 0.32443,-0.1318 v -2.2912 q -0.14194,-0.03 -0.25346,-0.041 -0.11152,-0.01 -0.23318,-0.01 -1.09494,0 -1.09494,1.318 z m 2.83872,1.9567 q 0,1.1659 -0.56774,1.7235 -0.55761,0.5576 -1.80462,0.5576 -0.44608,0 -0.86175,-0.091 -0.40554,-0.091 -0.78065,-0.2129 l 0.23318,-1.0544 q 0.29401,0.1116 0.61843,0.2028 0.32443,0.1014 0.81107,0.1014 0.32442,0 0.53733,-0.081 0.2129,-0.071 0.33456,-0.2028 0.12166,-0.1318 0.17235,-0.3143 0.0507,-0.1723 0.0507,-0.3751 v -0.1926 q -0.2636,0.1014 -0.48664,0.1521 -0.21291,0.051 -0.46637,0.051 -0.93272,0 -1.41936,-0.5881 -0.4765,-0.588 -0.4765,-1.6322 0,-1.1761 0.64885,-1.754 0.64886,-0.5778 1.76407,-0.5778 0.78065,0 1.69309,0.2534 z"
         style="font-style:normal;font-variant:normal;font-weight:bold;font-stretch:normal;font-size:10.1383px;font-family:'Ubuntu Mono';-inkscape-font-specification:'Ubuntu Mono, Bold';font-variant-ligatures:normal;font-variant-caps:normal;font-variant-numeric:normal;font-variant-east-asian:normal;stroke-width:0.265826"
         id="path1293" />
      <path
         d="m 175.12634,1058.3668 q 0,-0.6286 0.19262,-1.1051 0.19263,-0.4765 0.50692,-0.7908 0.31429,-0.3244 0.71982,-0.4866 0.40553,-0.1622 0.83134,-0.1622 1.05438,0 1.60185,0.6286 0.54747,0.6184 0.54747,1.8147 0,0.1217 -0.0101,0.2535 0,0.1318 -0.0101,0.2129 h -3.09218 q 0,0.4663 0.38526,0.7401 0.38525,0.2636 0.99355,0.2636 0.37512,0 0.70968,-0.081 0.3447,-0.081 0.57788,-0.1623 l 0.17235,1.0646 q -0.32442,0.1115 -0.6894,0.1825 -0.36498,0.081 -0.8212,0.081 -0.6083,0 -1.09494,-0.1521 -0.4765,-0.1622 -0.8212,-0.4664 -0.33456,-0.3143 -0.51705,-0.7705 -0.18249,-0.4562 -0.18249,-1.0645 z m 3.19356,-0.4968 q 0,-0.1926 -0.0507,-0.365 -0.0507,-0.1825 -0.16221,-0.3244 -0.11152,-0.1419 -0.28388,-0.223 -0.17235,-0.091 -0.4258,-0.091 -0.24332,0 -0.42581,0.081 -0.17235,0.081 -0.29401,0.2231 -0.11153,0.1419 -0.18249,0.3244 -0.0608,0.1825 -0.0811,0.3751 z"
         style="font-style:normal;font-variant:normal;font-weight:bold;font-stretch:normal;font-size:10.1383px;font-family:'Ubuntu Mono';-inkscape-font-specification:'Ubuntu Mono, Bold';font-variant-ligatures:normal;font-variant-caps:normal;font-variant-numeric:normal;font-variant-east-asian:normal;stroke-width:0.265826"
         id="path1295" />
    </g>
    <g
       aria-label="Up"
       id="text1093-9-0"
       style="font-style:normal;font-variant:normal;font-weight:bold;font-stretch:normal;font-size:10.1383px;line-height:1.25;font-family:'Ubuntu Mono';-inkscape-font-specification:'Ubuntu Mono, Bold';font-variant-ligatures:normal;font-variant-caps:normal;font-variant-numeric:normal;font-variant-east-asian:normal;display:inline;fill:#c39d5f;fill-opacity:1;stroke:none;stroke-width:0.265826">
      <path
         d="m 162.1189,1069.7861 q -0.6083,0 -1.02397,-0.1622 -0.40553,-0.1724 -0.64885,-0.4867 -0.24332,-0.3142 -0.3447,-0.7603 -0.10139,-0.4461 -0.10139,-0.9936 v -4.0046 h 1.25715 v 3.9235 q 0,0.3954 0.0406,0.6691 0.0405,0.2636 0.13179,0.4258 0.10139,0.1623 0.27374,0.2332 0.17235,0.071 0.43594,0.071 0.2636,0 0.43595,-0.071 0.17235,-0.071 0.27373,-0.2332 0.10139,-0.1723 0.14194,-0.4359 0.0405,-0.2737 0.0405,-0.6691 v -3.9134 h 1.24702 v 4.0046 q 0,0.5475 -0.10139,0.9936 -0.10138,0.4461 -0.35484,0.7603 -0.25346,0.3143 -0.66913,0.4867 -0.41567,0.1622 -1.0341,0.1622 z"
         style="font-style:normal;font-variant:normal;font-weight:bold;font-stretch:normal;font-size:10.1383px;font-family:'Ubuntu Mono';-inkscape-font-specification:'Ubuntu Mono, Bold';font-variant-ligatures:normal;font-variant-caps:normal;font-variant-numeric:normal;font-variant-east-asian:normal;stroke-width:0.265826"
         id="path1298" />
      <path
         d="m 168.16132,1067.3123 q 0,-0.6387 -0.25345,-1.0442 -0.25346,-0.4157 -0.77051,-0.4157 -0.14194,0 -0.30415,0.02 -0.16222,0.01 -0.27374,0.02 v 2.6157 q 0.12166,0.081 0.32443,0.1318 0.20276,0.051 0.40553,0.051 0.44609,0 0.65899,-0.3549 0.2129,-0.365 0.2129,-1.024 z m 1.26729,-0.041 q 0,0.5475 -0.12166,1.0138 -0.12166,0.4562 -0.35484,0.7908 -0.23318,0.3244 -0.58802,0.5069 -0.35484,0.1825 -0.8212,0.1825 -0.4765,0 -0.98342,-0.2332 v 1.7945 h -1.24701 v -6.2857 q 0.3447,-0.1116 0.84148,-0.1825 0.50692,-0.071 0.99355,-0.071 1.10508,0 1.6931,0.6691 0.58802,0.6692 0.58802,1.8148 z"
         style="font-style:normal;font-variant:normal;font-weight:bold;font-stretch:normal;font-size:10.1383px;font-family:'Ubuntu Mono';-inkscape-font-specification:'Ubuntu Mono, Bold';font-variant-ligatures:normal;font-variant-caps:normal;font-variant-numeric:normal;font-variant-east-asian:normal;stroke-width:0.265826"
         id="path1300" />
    </g>
    <g
       aria-label="Page"
       id="text1093-3-9"
       style="font-style:normal;font-variant:normal;font-weight:bold;font-stretch:normal;font-size:11.3333px;line-height:1.25;font-family:'Ubuntu Mono';-inkscape-font-specification:'Ubuntu Mono, Bold';font-variant-ligatures:normal;font-variant-caps:normal;font-variant-numeric:normal;font-variant-east-asian:normal;display:inline;fill:#636363;fill-opacity:1;stroke:none;stroke-width:0.297158">
      <path
         d="m 64.92666,959.36214 q 1.337329,0 2.073993,0.55533 0.736665,0.544 0.736665,1.79066 0,1.258 -0.747998,1.82467 -0.736664,0.55533 -2.09666,0.55533 h -0.498665 v 2.36866 h -1.393996 v -6.92465 q 0.203999,-0.0453 0.453332,-0.0793 0.260666,-0.034 0.521331,-0.0453 0.260666,-0.0227 0.509999,-0.034 0.249333,-0.0113 0.441999,-0.0113 z m 0.158666,1.21266 q -0.124666,0 -0.351332,0.0113 -0.215333,0 -0.339999,0.0227 v 2.26666 h 0.566665 q 0.668664,0 1.008663,-0.26066 0.339999,-0.272 0.339999,-0.918 0,-0.612 -0.339999,-0.86133 -0.328666,-0.26067 -0.883997,-0.26067 z"
         style="font-style:normal;font-variant:normal;font-weight:bold;font-stretch:normal;font-size:11.3333px;font-family:'Ubuntu Mono';-inkscape-font-specification:'Ubuntu Mono, Bold';font-variant-ligatures:normal;font-variant-caps:normal;font-variant-numeric:normal;font-variant-east-asian:normal;fill:#636363;fill-opacity:1;stroke-width:0.297158"
         id="path1330" />
      <path
         d="m 70.899309,965.45946 q 0.226666,0 0.441998,0 0.215333,-0.0113 0.373999,-0.034 v -1.224 q -0.136,-0.0227 -0.328666,-0.034 -0.192666,-0.0227 -0.351332,-0.0227 -0.215333,0 -0.419332,0.034 -0.203999,0.0227 -0.362666,0.0907 -0.147332,0.068 -0.237999,0.19267 -0.09067,0.12466 -0.09067,0.32866 0,0.36267 0.271999,0.52133 0.271999,0.14734 0.702665,0.14734 z m -0.124667,-4.46532 q 0.657332,0 1.087997,0.15866 0.441999,0.14734 0.702665,0.43067 0.260665,0.272 0.373998,0.68 0.113333,0.39666 0.113333,0.89533 v 3.17332 q -0.305999,0.068 -0.906664,0.15867 -0.600664,0.0907 -1.348662,0.0907 -0.509999,0 -0.929331,-0.0907 -0.407999,-0.0907 -0.702664,-0.29467 -0.294666,-0.21533 -0.453332,-0.544 -0.158667,-0.34 -0.158667,-0.82733 0,-0.46466 0.181333,-0.782 0.181333,-0.31733 0.487332,-0.50999 0.305999,-0.19267 0.702665,-0.272 0.396665,-0.0907 0.827331,-0.0907 0.543998,0 0.96333,0.0907 v -0.17 q 0,-0.39667 -0.249333,-0.65733 -0.249332,-0.272 -0.86133,-0.272 -0.396666,0 -0.770665,0.0567 -0.362665,0.0567 -0.589331,0.136 l -0.192666,-1.12199 q 0.260666,-0.0907 0.736664,-0.15867 0.475999,-0.0793 0.985997,-0.0793 z"
         style="font-style:normal;font-variant:normal;font-weight:bold;font-stretch:normal;font-size:11.3333px;font-family:'Ubuntu Mono';-inkscape-font-specification:'Ubuntu Mono, Bold';font-variant-ligatures:normal;font-variant-caps:normal;font-variant-numeric:normal;font-variant-east-asian:normal;fill:#636363;fill-opacity:1;stroke-width:0.297158"
         id="path1332" />
      <path
         d="m 75.511961,963.62346 q 0,0.65733 0.238,1.00867 0.237999,0.33999 0.747998,0.33999 0.226666,0 0.419332,-0.0567 0.203999,-0.0567 0.362665,-0.14733 v -2.56133 q -0.158666,-0.034 -0.283332,-0.0453 -0.124667,-0.0113 -0.260666,-0.0113 -1.223997,0 -1.223997,1.47333 z m 3.173324,2.18733 q 0,1.30333 -0.634664,1.92666 -0.623332,0.62333 -2.017328,0.62333 -0.498665,0 -0.96333,-0.102 -0.453332,-0.102 -0.872664,-0.238 l 0.260666,-1.17866 q 0.328665,0.12467 0.691331,0.22667 0.362665,0.11333 0.906664,0.11333 0.362665,0 0.600665,-0.0907 0.237999,-0.0793 0.373999,-0.22666 0.135999,-0.14734 0.192666,-0.35134 0.05667,-0.19266 0.05667,-0.41933 v -0.21533 q -0.294666,0.11333 -0.543998,0.17 -0.237999,0.0567 -0.521332,0.0567 -1.042664,0 -1.586662,-0.65733 -0.532665,-0.65733 -0.532665,-1.82466 0,-1.31466 0.725331,-1.96066 0.725331,-0.646 1.971994,-0.646 0.872664,0 1.892661,0.28334 z"
         style="font-style:normal;font-variant:normal;font-weight:bold;font-stretch:normal;font-size:11.3333px;font-family:'Ubuntu Mono';-inkscape-font-specification:'Ubuntu Mono, Bold';font-variant-ligatures:normal;font-variant-caps:normal;font-variant-numeric:normal;font-variant-east-asian:normal;fill:#636363;fill-opacity:1;stroke-width:0.297158"
         id="path1334" />
      <path
         d="m 79.739283,963.83879 q 0,-0.70266 0.215333,-1.23532 0.215333,-0.53267 0.566665,-0.884 0.351332,-0.36267 0.804664,-0.544 0.453332,-0.18133 0.929331,-0.18133 1.178663,0 1.790661,0.70266 0.611998,0.69133 0.611998,2.02866 0,0.136 -0.01133,0.28333 0,0.14734 -0.01133,0.238 h -3.456657 q 0,0.52134 0.430666,0.82733 0.430665,0.29467 1.110663,0.29467 0.419332,0 0.793331,-0.0907 0.385332,-0.0907 0.645998,-0.18133 l 0.192666,1.19 q -0.362665,0.12466 -0.770664,0.204 -0.407999,0.0907 -0.917998,0.0907 -0.679997,0 -1.223996,-0.17 -0.532665,-0.18133 -0.917997,-0.52133 -0.373999,-0.35133 -0.577998,-0.86133 -0.204,-0.51 -0.204,-1.19 z m 3.56999,-0.55533 q 0,-0.21533 -0.05667,-0.408 -0.05667,-0.20399 -0.181333,-0.36266 -0.124666,-0.15867 -0.317332,-0.24933 -0.192666,-0.102 -0.475999,-0.102 -0.271999,0 -0.475998,0.0907 -0.192666,0.0907 -0.328666,0.24934 -0.124666,0.15866 -0.203999,0.36266 -0.068,0.204 -0.09067,0.41933 z"
         style="font-style:normal;font-variant:normal;font-weight:bold;font-stretch:normal;font-size:11.3333px;font-family:'Ubuntu Mono';-inkscape-font-specification:'Ubuntu Mono, Bold';font-variant-ligatures:normal;font-variant-caps:normal;font-variant-numeric:normal;font-variant-east-asian:normal;fill:#636363;fill-opacity:1;stroke-width:0.297158"
         id="path1336" />
    </g>
    <g
       aria-label="Down"
       id="text1093-7"
       style="font-style:normal;font-variant:normal;font-weight:bold;font-stretch:normal;font-size:11.3333px;line-height:1.25;font-family:'Ubuntu Mono';-inkscape-font-specification:'Ubuntu Mono, Bold';font-variant-ligatures:normal;font-variant-caps:normal;font-variant-numeric:normal;font-variant-east-asian:normal;display:inline;fill:#636363;fill-opacity:1;stroke:none;stroke-width:0.297158">
      <path
         d="m 64.393995,975.32346 q 0.05667,0.0113 0.124666,0.0113 0.068,0 0.124666,0 0.475999,0 0.793331,-0.18133 0.328666,-0.18134 0.521332,-0.49867 0.203999,-0.31733 0.283332,-0.748 0.09067,-0.44199 0.09067,-0.96333 0,-0.45333 -0.068,-0.88399 -0.068,-0.43067 -0.237999,-0.75933 -0.17,-0.32867 -0.464666,-0.52134 -0.294665,-0.204 -0.759331,-0.204 -0.09067,0 -0.203999,0.0113 -0.113333,0 -0.203999,0.0227 z m 3.354656,-2.38 q 0,0.97467 -0.249332,1.666 -0.238,0.68 -0.668665,1.11066 -0.430665,0.43067 -1.03133,0.63467 -0.589332,0.19266 -1.30333,0.19266 -0.373999,0 -0.736664,-0.0453 -0.351333,-0.034 -0.759331,-0.12467 v -6.84531 q 0.475998,-0.102 0.89533,-0.136 0.419332,-0.034 0.781998,-0.034 0.691331,0 1.257996,0.204 0.577999,0.204 0.974664,0.646 0.396666,0.43066 0.611998,1.11066 0.226666,0.66867 0.226666,1.62066 z"
         style="font-style:normal;font-variant:normal;font-weight:bold;font-stretch:normal;font-size:11.3333px;font-family:'Ubuntu Mono';-inkscape-font-specification:'Ubuntu Mono, Bold';font-variant-ligatures:normal;font-variant-caps:normal;font-variant-numeric:normal;font-variant-east-asian:normal;fill:#636363;fill-opacity:1;stroke-width:0.297158"
         id="path1321" />
      <path
         d="m 73.403968,973.78213 q 0,0.63466 -0.181333,1.15599 -0.181333,0.51 -0.509999,0.884 -0.328665,0.374 -0.793331,0.578 -0.453332,0.204 -1.019996,0.204 -0.566665,0 -1.031331,-0.204 -0.453332,-0.204 -0.793331,-0.578 -0.328665,-0.374 -0.509998,-0.884 -0.181333,-0.52133 -0.181333,-1.15599 0,-0.62333 0.181333,-1.13333 0.192666,-0.52133 0.521332,-0.884 0.339999,-0.374 0.804664,-0.56666 0.464665,-0.204 1.008664,-0.204 0.555331,0 1.008663,0.204 0.464665,0.19266 0.793331,0.56666 0.339999,0.36267 0.521332,0.884 0.181333,0.51 0.181333,1.13333 z m -3.60399,0.0113 q 0,0.714 0.249333,1.156 0.260666,0.442 0.827331,0.442 0.543998,0 0.815997,-0.442 0.283333,-0.442 0.283333,-1.156 0,-0.714 -0.260666,-1.14466 -0.249333,-0.442 -0.815997,-0.442 -0.543999,0 -0.827331,0.442 -0.272,0.43066 -0.272,1.14466 z"
         style="font-style:normal;font-variant:normal;font-weight:bold;font-stretch:normal;font-size:11.3333px;font-family:'Ubuntu Mono';-inkscape-font-specification:'Ubuntu Mono, Bold';font-variant-ligatures:normal;font-variant-caps:normal;font-variant-numeric:normal;font-variant-east-asian:normal;fill:#636363;fill-opacity:1;stroke-width:0.297158"
         id="path1323" />
      <path
         d="m 77.370623,976.45679 q -0.124667,-0.35134 -0.238,-0.646 -0.101999,-0.29467 -0.203999,-0.56667 -0.09067,-0.28333 -0.192666,-0.57799 -0.09067,-0.306 -0.192666,-0.66867 -0.113333,0.36267 -0.204,0.65733 -0.09067,0.28333 -0.192666,0.56667 -0.09067,0.28333 -0.192666,0.578 -0.102,0.29466 -0.249332,0.65733 h -1.053997 q -0.136,-0.49867 -0.260666,-1.09933 -0.113333,-0.612 -0.215333,-1.292 -0.102,-0.69133 -0.181333,-1.42799 -0.07933,-0.73667 -0.147333,-1.50733 h 1.189997 q 0.04533,0.98599 0.09067,1.92666 0.05667,0.94066 0.192666,1.93799 0.147333,-0.43066 0.249333,-0.79333 0.113333,-0.374 0.192666,-0.70266 0.09067,-0.34 0.158666,-0.646 0.07933,-0.31733 0.158666,-0.646 h 1.008664 q 0.068,0.32867 0.136,0.646 0.07933,0.306 0.158666,0.646 0.09067,0.32866 0.181333,0.70266 0.101999,0.36267 0.237999,0.79333 0.068,-0.52133 0.113333,-0.99733 0.04533,-0.476 0.068,-0.94066 0.034,-0.476 0.04533,-0.94067 0.02267,-0.476 0.04533,-0.98599 h 1.189997 q -0.124667,1.55266 -0.351333,2.92399 -0.215332,1.37133 -0.487332,2.40266 z"
         style="font-style:normal;font-variant:normal;font-weight:bold;font-stretch:normal;font-size:11.3333px;font-family:'Ubuntu Mono';-inkscape-font-specification:'Ubuntu Mono, Bold';font-variant-ligatures:normal;font-variant-caps:normal;font-variant-numeric:normal;font-variant-east-asian:normal;fill:#636363;fill-opacity:1;stroke-width:0.297158"
         id="path1325" />
      <path
         d="m 80.101949,971.30014 q 0.373999,-0.102 0.917997,-0.19267 0.555332,-0.0907 1.20133,-0.0907 0.634665,0 1.053997,0.18134 0.419332,0.17 0.657331,0.49866 0.249333,0.31733 0.351332,0.77067 0.102,0.44199 0.102,0.98599 v 3.00333 H 82.99194 v -2.82199 q 0,-0.748 -0.169999,-1.07667 -0.17,-0.32866 -0.691332,-0.32866 -0.158666,0 -0.317332,0.0113 -0.147333,0.0113 -0.317332,0.034 v 4.18199 h -1.393996 z"
         style="font-style:normal;font-variant:normal;font-weight:bold;font-stretch:normal;font-size:11.3333px;font-family:'Ubuntu Mono';-inkscape-font-specification:'Ubuntu Mono, Bold';font-variant-ligatures:normal;font-variant-caps:normal;font-variant-numeric:normal;font-variant-east-asian:normal;fill:#636363;fill-opacity:1;stroke-width:0.297158"
         id="path1327" />
    </g>
    <g
       aria-label="Page"
       id="text1093-3-1-0"
       style="font-style:normal;font-variant:normal;font-weight:bold;font-stretch:normal;font-size:11.3333px;line-height:1.25;font-family:'Ubuntu Mono';-inkscape-font-specification:'Ubuntu Mono, Bold';font-variant-ligatures:normal;font-variant-caps:normal;font-variant-numeric:normal;font-variant-east-asian:normal;display:inline;fill:#636363;fill-opacity:1;stroke:none;stroke-width:0.297158">
      <path
         d="m 160.92666,959.36214 q 1.33733,0 2.07399,0.55533 0.73667,0.544 0.73667,1.79066 0,1.258 -0.748,1.82467 -0.73666,0.55533 -2.09666,0.55533 h -0.49867 v 2.36866 H 159 v -6.92465 q 0.204,-0.0453 0.45333,-0.0793 0.26067,-0.034 0.52133,-0.0453 0.26067,-0.0227 0.51,-0.034 0.24933,-0.0113 0.442,-0.0113 z m 0.15867,1.21266 q -0.12467,0 -0.35134,0.0113 -0.21533,0 -0.34,0.0227 v 2.26666 h 0.56667 q 0.66866,0 1.00866,-0.26066 0.34,-0.272 0.34,-0.918 0,-0.612 -0.34,-0.86133 -0.32866,-0.26067 -0.88399,-0.26067 z"
         style="font-style:normal;font-variant:normal;font-weight:bold;font-stretch:normal;font-size:11.3333px;font-family:'Ubuntu Mono';-inkscape-font-specification:'Ubuntu Mono, Bold';font-variant-ligatures:normal;font-variant-caps:normal;font-variant-numeric:normal;font-variant-east-asian:normal;fill:#636363;fill-opacity:1;stroke-width:0.297158"
         id="path1339" />
      <path
         d="m 166.89931,965.45946 q 0.22666,0 0.442,0 0.21533,-0.0113 0.374,-0.034 v -1.224 q -0.136,-0.0227 -0.32867,-0.034 -0.19267,-0.0227 -0.35133,-0.0227 -0.21533,0 -0.41933,0.034 -0.204,0.0227 -0.36267,0.0907 -0.14733,0.068 -0.238,0.19267 -0.0907,0.12466 -0.0907,0.32866 0,0.36267 0.272,0.52133 0.272,0.14734 0.70267,0.14734 z m -0.12467,-4.46532 q 0.65733,0 1.088,0.15866 0.442,0.14734 0.70266,0.43067 0.26067,0.272 0.374,0.68 0.11334,0.39666 0.11334,0.89533 v 3.17332 q -0.306,0.068 -0.90667,0.15867 -0.60066,0.0907 -1.34866,0.0907 -0.51,0 -0.92933,-0.0907 -0.408,-0.0907 -0.70267,-0.29467 -0.29466,-0.21533 -0.45333,-0.544 -0.15866,-0.34 -0.15866,-0.82733 0,-0.46466 0.18133,-0.782 0.18133,-0.31733 0.48733,-0.50999 0.306,-0.19267 0.70266,-0.272 0.39667,-0.0907 0.82734,-0.0907 0.54399,0 0.96333,0.0907 v -0.17 q 0,-0.39667 -0.24934,-0.65733 -0.24933,-0.272 -0.86133,-0.272 -0.39666,0 -0.77066,0.0567 -0.36267,0.0567 -0.58933,0.136 l -0.19267,-1.12199 q 0.26067,-0.0907 0.73667,-0.15867 0.47599,-0.0793 0.98599,-0.0793 z"
         style="font-style:normal;font-variant:normal;font-weight:bold;font-stretch:normal;font-size:11.3333px;font-family:'Ubuntu Mono';-inkscape-font-specification:'Ubuntu Mono, Bold';font-variant-ligatures:normal;font-variant-caps:normal;font-variant-numeric:normal;font-variant-east-asian:normal;fill:#636363;fill-opacity:1;stroke-width:0.297158"
         id="path1341" />
      <path
         d="m 171.51196,963.62346 q 0,0.65733 0.238,1.00867 0.238,0.33999 0.748,0.33999 0.22666,0 0.41933,-0.0567 0.204,-0.0567 0.36267,-0.14733 v -2.56133 q -0.15867,-0.034 -0.28334,-0.0453 -0.12466,-0.0113 -0.26066,-0.0113 -1.224,0 -1.224,1.47333 z m 3.17333,2.18733 q 0,1.30333 -0.63467,1.92666 -0.62333,0.62333 -2.01733,0.62333 -0.49866,0 -0.96333,-0.102 -0.45333,-0.102 -0.87266,-0.238 l 0.26066,-1.17866 q 0.32867,0.12467 0.69134,0.22667 0.36266,0.11333 0.90666,0.11333 0.36267,0 0.60066,-0.0907 0.238,-0.0793 0.374,-0.22666 0.136,-0.14734 0.19267,-0.35134 0.0567,-0.19266 0.0567,-0.41933 v -0.21533 q -0.29467,0.11333 -0.544,0.17 -0.238,0.0567 -0.52133,0.0567 -1.04267,0 -1.58667,-0.65733 -0.53266,-0.65733 -0.53266,-1.82466 0,-1.31466 0.72533,-1.96066 0.72533,-0.646 1.97199,-0.646 0.87267,0 1.89267,0.28334 z"
         style="font-style:normal;font-variant:normal;font-weight:bold;font-stretch:normal;font-size:11.3333px;font-family:'Ubuntu Mono';-inkscape-font-specification:'Ubuntu Mono, Bold';font-variant-ligatures:normal;font-variant-caps:normal;font-variant-numeric:normal;font-variant-east-asian:normal;fill:#636363;fill-opacity:1;stroke-width:0.297158"
         id="path1343" />
      <path
         d="m 175.73928,963.83879 q 0,-0.70266 0.21534,-1.23532 0.21533,-0.53267 0.56666,-0.884 0.35133,-0.36267 0.80467,-0.544 0.45333,-0.18133 0.92933,-0.18133 1.17866,0 1.79066,0.70266 0.612,0.69133 0.612,2.02866 0,0.136 -0.0113,0.28333 0,0.14734 -0.0113,0.238 h -3.45666 q 0,0.52134 0.43067,0.82733 0.43066,0.29467 1.11066,0.29467 0.41933,0 0.79333,-0.0907 0.38533,-0.0907 0.646,-0.18133 l 0.19267,1.19 q -0.36267,0.12466 -0.77067,0.204 -0.408,0.0907 -0.918,0.0907 -0.67999,0 -1.22399,-0.17 -0.53267,-0.18133 -0.918,-0.52133 -0.374,-0.35133 -0.578,-0.86133 -0.204,-0.51 -0.204,-1.19 z m 3.56999,-0.55533 q 0,-0.21533 -0.0567,-0.408 -0.0567,-0.20399 -0.18134,-0.36266 -0.12466,-0.15867 -0.31733,-0.24933 -0.19267,-0.102 -0.476,-0.102 -0.272,0 -0.476,0.0907 -0.19266,0.0907 -0.32866,0.24934 -0.12467,0.15866 -0.204,0.36266 -0.068,0.204 -0.0907,0.41933 z"
         style="font-style:normal;font-variant:normal;font-weight:bold;font-stretch:normal;font-size:11.3333px;font-family:'Ubuntu Mono';-inkscape-font-specification:'Ubuntu Mono, Bold';font-variant-ligatures:normal;font-variant-caps:normal;font-variant-numeric:normal;font-variant-east-asian:normal;fill:#636363;fill-opacity:1;stroke-width:0.297158"
         id="path1345" />
    </g>
    <g
       aria-label="Up"
       id="text1093-9-1"
       style="font-style:normal;font-variant:normal;font-weight:bold;font-stretch:normal;font-size:11.3333px;line-height:1.25;font-family:'Ubuntu Mono';-inkscape-font-specification:'Ubuntu Mono, Bold';font-variant-ligatures:normal;font-variant-caps:normal;font-variant-numeric:normal;font-variant-east-asian:normal;display:inline;fill:#636363;fill-opacity:1;stroke:none;stroke-width:0.297158">
      <path
         d="m 161.19866,976.60412 q -0.68,0 -1.14466,-0.18133 -0.45334,-0.19267 -0.72534,-0.544 -0.27199,-0.35133 -0.38533,-0.85 -0.11333,-0.49866 -0.11333,-1.11066 v -4.47666 h 1.40533 v 4.38599 q 0,0.442 0.0453,0.748 0.0453,0.29467 0.14733,0.476 0.11334,0.18133 0.306,0.26066 0.19267,0.0793 0.48734,0.0793 0.29466,0 0.48733,-0.0793 0.19266,-0.0793 0.306,-0.26066 0.11333,-0.19267 0.15866,-0.48733 0.0453,-0.306 0.0453,-0.748 v -4.37466 h 1.39399 v 4.47666 q 0,0.612 -0.11333,1.11066 -0.11333,0.49867 -0.39667,0.85 -0.28333,0.35133 -0.74799,0.544 -0.46467,0.18133 -1.156,0.18133 z"
         style="font-style:normal;font-variant:normal;font-weight:bold;font-stretch:normal;font-size:11.3333px;font-family:'Ubuntu Mono';-inkscape-font-specification:'Ubuntu Mono, Bold';font-variant-ligatures:normal;font-variant-caps:normal;font-variant-numeric:normal;font-variant-east-asian:normal;fill:#636363;fill-opacity:1;stroke-width:0.297158"
         id="path1348" />
      <path
         d="m 167.95331,973.83879 q 0,-0.71399 -0.28334,-1.16732 -0.28333,-0.46467 -0.86133,-0.46467 -0.15866,0 -0.34,0.0227 -0.18133,0.0113 -0.306,0.0227 v 2.92399 q 0.136,0.0907 0.36267,0.14734 0.22667,0.0567 0.45333,0.0567 0.49867,0 0.73667,-0.39666 0.238,-0.408 0.238,-1.14467 z m 1.41666,-0.0453 q 0,0.612 -0.136,1.13333 -0.136,0.51 -0.39667,0.884 -0.26066,0.36266 -0.65733,0.56666 -0.39666,0.204 -0.918,0.204 -0.53266,0 -1.09933,-0.26066 v 2.00599 h -1.39399 v -7.02664 q 0.38533,-0.12467 0.94066,-0.204 0.56667,-0.0793 1.11067,-0.0793 1.23533,0 1.89266,0.748 0.65733,0.748 0.65733,2.02866 z"
         style="font-style:normal;font-variant:normal;font-weight:bold;font-stretch:normal;font-size:11.3333px;font-family:'Ubuntu Mono';-inkscape-font-specification:'Ubuntu Mono, Bold';font-variant-ligatures:normal;font-variant-caps:normal;font-variant-numeric:normal;font-variant-east-asian:normal;fill:#636363;fill-opacity:1;stroke-width:0.297158"
         id="path1350" />
    </g>
  </g>
</svg>
