<?xml version="1.0" encoding="UTF-8" standalone="no"?>
<!-- Created with Inkscape (http://www.inkscape.org/) -->

<svg
   xmlns:dc="http://purl.org/dc/elements/1.1/"
   xmlns:cc="http://creativecommons.org/ns#"
   xmlns:rdf="http://www.w3.org/1999/02/22-rdf-syntax-ns#"
   xmlns:svg="http://www.w3.org/2000/svg"
   xmlns="http://www.w3.org/2000/svg"
   xmlns:sodipodi="http://sodipodi.sourceforge.net/DTD/sodipodi-0.dtd"
   xmlns:inkscape="http://www.inkscape.org/namespaces/inkscape"
   width="544"
   height="128"
   viewBox="-16592.001 0 0 128"
   id="svg2"
   version="1.1"
   inkscape:version="0.91 r13725"
   sodipodi:docname="pem_full_text_guidelined.svg"
   inkscape:export-filename="/mnt/shared/Users/framirez/Documents/web/portfolio/resources/theme/pem_der_rwth.png"
   inkscape:export-xdpi="45"
   inkscape:export-ydpi="45">
  <defs
     id="defs4" />
  <sodipodi:namedview
     id="base"
     pagecolor="#050912"
     bordercolor="#666666"
     borderopacity="1.0"
     inkscape:pageopacity="0"
     inkscape:pageshadow="2"
     inkscape:zoom="2.203924"
     inkscape:cx="205.76058"
     inkscape:cy="75.757193"
     inkscape:document-units="px"
     inkscape:current-layer="layer1"
     showgrid="false"
     units="px"
     inkscape:showpageshadow="false"
     borderlayer="true"
     inkscape:window-width="1920"
     inkscape:window-height="1056"
     inkscape:window-x="1920"
     inkscape:window-y="144"
     inkscape:window-maximized="1" />
  <metadata
     id="metadata7">
    <rdf:RDF>
      <cc:Work
         rdf:about="">
        <dc:format>image/svg+xml</dc:format>
        <dc:type
           rdf:resource="http://purl.org/dc/dcmitype/StillImage" />
        <dc:title />
      </cc:Work>
    </rdf:RDF>
  </metadata>
  <g
     inkscape:label="Layer 1"
     inkscape:groupmode="layer"
     id="layer1"
     transform="translate(0,-924.3621)">
    <circle
       style="color:#000000;clip-rule:nonzero;display:inline;overflow:visible;visibility:visible;opacity:1;isolation:auto;mix-blend-mode:normal;color-interpolation:sRGB;color-interpolation-filters:linearRGB;solid-color:#000000;solid-opacity:1;fill:#ffffff;fill-opacity:1;fill-rule:evenodd;stroke:none;stroke-width:1;stroke-linecap:round;stroke-linejoin:miter;stroke-miterlimit:4;stroke-dasharray:none;stroke-dashoffset:0;stroke-opacity:1;color-rendering:auto;image-rendering:auto;shape-rendering:auto;text-rendering:auto;enable-background:accumulate"
       id="path4136"
       cx="53.5"
       cy="988.86212"
       r="53.500004" />
    <g
       style="font-style:normal;font-variant:normal;font-weight:bold;font-stretch:normal;font-size:106.9375px;line-height:125%;font-family:Umpush;-inkscape-font-specification:'Umpush, Bold';text-align:center;letter-spacing:0px;word-spacing:0px;writing-mode:lr-tb;text-anchor:middle;display:inline;fill:#050912;fill-opacity:1;stroke:#050912;stroke-width:5.72068787;stroke-linecap:butt;stroke-linejoin:miter;stroke-miterlimit:4;stroke-dasharray:none;stroke-opacity:1"
       id="text4138"
       transform="matrix(0.3496083,0,0,0.3496083,-173.80453,759.33638)">
      <path
         d="m 601.33548,641.56396 q 0,5.43042 -1.61868,9.60767 -1.61869,4.12503 -4.28168,6.68359 -2.61078,2.50635 -6.42252,4.12504 -3.81173,1.61868 -7.78012,2.24526 -3.91617,0.62659 -8.56335,0.62659 l -17.23114,0 0,30.28504 -12.53174,0 0,-75.71259 28.87521,0 q 8.3545,0 14.20264,1.56647 5.84814,1.56647 9.13773,4.59497 3.28958,2.97629 4.75161,6.89245 1.46204,3.86396 1.46204,9.08551 z m -12.53174,0.3133 q 0,-6.16144 -4.64718,-8.56336 -4.59498,-2.40191 -13.62827,-2.40191 l -15.0903,0 0,22.4527 15.29916,0 q 5.11713,0 8.72,-0.83545 3.60288,-0.83545 5.58707,-2.40192 1.98419,-1.56647 2.87186,-3.55066 0.88766,-2.03641 0.88766,-4.6994 z"
         id="path4197"
         inkscape:connector-curvature="0"
         style="fill:#050912;fill-opacity:1;stroke:#050912;stroke-width:5.72068787;stroke-linejoin:miter;stroke-miterlimit:4;stroke-dasharray:none;stroke-opacity:1" />
      <path
         d="m 614.8071,695.13715 0,-75.71259 55.34851,0 0,11.48743 -42.81677,0 0,20.05078 32.32144,0 0,11.48743 -32.32144,0 0,21.19952 42.81677,0 0,11.48743 -55.34851,0 z"
         id="path4199"
         inkscape:connector-curvature="0"
         style="fill:#050912;fill-opacity:1;stroke:#050912;stroke-width:5.72068787;stroke-linejoin:miter;stroke-miterlimit:4;stroke-dasharray:none;stroke-opacity:1" />
      <path
         d="m 682.94843,695.13715 0,-75.71259 12.21844,0 24.28024,51.16504 24.28025,-51.16504 12.21844,0 0,75.71259 -12.53174,0 0,-43.78827 -20.82922,43.78827 -6.27545,0 -20.82923,-43.78827 0,43.78827 z"
         id="path4201"
         inkscape:connector-curvature="0"
         sodipodi:nodetypes="cccccccccccccc"
         style="fill:#050912;fill-opacity:1;stroke:#050912;stroke-width:5.72068787;stroke-linejoin:miter;stroke-miterlimit:4;stroke-dasharray:none;stroke-opacity:1" />
    </g>
    <path
       style="fill:#ffffff;fill-opacity:1"
       d="m 173,938.97929 0,0.37109 0,41.50781 0,5.31055 15.07031,0 0.61914,0 0,-36.25586 6.11328,0 c 1.85299,0 3.27541,0.80226 4.26368,1.91406 0.9265,1.23533 1.35812,2.34768 1.41992,3.83008 -0.0618,2.96479 -1.97634,4.56984 -3.27344,5.1875 -1.79123,0.86474 -3.21219,0.49484 -5.12695,0.55664 1.54416,3.64423 3.02615,7.16438 4.57031,10.8086 l 3.83008,9.08007 c 0.67943,1.35887 1.23585,2.84109 1.85351,4.26172 0.12354,0.1853 0.2461,0.55664 0.2461,0.55664 l 15.75,0 0.125,0 -3.70703,-8.95703 c -1.17356,-2.5942 -2.22414,-5.18779 -3.33594,-7.84375 -0.5559,-1.2971 -1.04957,-2.47072 -1.60547,-3.95312 4.07659,-4.32366 5.62131,-10.31601 3.83008,-15.875 -1.97653,-5.99135 -7.96765,-10.5 -14.94727,-10.5 l -10.625,0 -15.07031,0 z m 37.55469,0 c 0.30883,0.98827 0.8025,1.85279 1.11133,2.77929 l 3.58203,8.33985 2.4707,5.86719 0.18555,0.37109 c 1.11179,2.71772 2.03859,4.87846 3.15039,7.47266 3.21186,7.59728 6.29987,14.88562 9.51172,22.35937 l 16.18359,0 0,-24.64453 c 0.43237,1.42063 0.74,2.84109 1.04883,4.26172 2.71773,6.79431 5.68218,13.651 8.52344,20.44531 l 16.18359,0 0,-19.14844 0,-17.10937 11.05664,0 0,15.9375 0,0.74023 0,19.51758 15.56445,0 0.12305,0 0,-16.18164 0,-15.50391 0,-3.39648 0,-1.11328 10.93359,0 0,36.19531 6.91797,0 c 2.84126,-0.0618 5.93023,0 8.77149,0 l 0,-19.20898 0.12304,0 9.38868,0 1.48242,0 0,19.20898 3.45898,0 12.22852,0 0,-47.12695 0,-0.0625 -7.41211,0 -8.15235,0 0,17.04883 -10.2539,0 -0.74024,0 0,-14.08399 0,-2.96484 -11.30273,0 -39.83984,0 -10.99414,0 -1.29883,0 0,21.18554 c 0.12354,0.98827 0.31006,1.97658 0.43359,2.96485 l -4.26172,-9.63477 c -1.91476,-4.44719 -3.70633,-8.8946 -5.62109,-13.34179 -0.1853,-0.3706 -0.30884,-0.67969 -0.49414,-1.17383 l -16.1836,0 c 0,2.28537 0.0618,4.87991 0,7.10351 l 0,14.08203 c 0.12354,0.86473 0.43311,2.03835 0.55664,2.96485 l -0.12304,-0.1836 c -3.45893,-7.90612 -6.79547,-15.87537 -10.13086,-23.96679 l -16.18164,0 z"
       id="path7508"
       inkscape:connector-curvature="0" />
    <g
       id="g7599"
       style="fill:#8ebae5;fill-opacity:1"
       transform="translate(18,0)">
      <path
         id="path7490"
         d="m 402.93082,997.4109 4.44719,0 c 4.26189,0 6.54725,2.16182 6.54725,6.4855 0,5.0648 -2.59419,7.0414 -7.10315,7.0414 l -3.89129,0 0,-13.5269 z m -9.45028,40.0247 9.45028,0 0,-19.8271 5.06485,0 c 3.82953,0 5.43546,2.2236 5.62076,5.9296 l 0.24706,9.0179 c 0.0618,1.853 0.24707,3.6443 1.17357,4.9414 l 10.25324,0 0,-0.3706 c -1.79123,-0.9265 -2.0383,-3.459 -2.10006,-8.4003 -0.12354,-9.9444 -1.1118,-13.4651 -7.53552,-14.3298 l 0,-0.1235 c 5.31192,-1.1118 7.84435,-5.312 7.84435,-11.5504 0,-8.02963 -4.75602,-12.10622 -12.47684,-12.10622 l -17.47992,0 0,46.81902 z"
         class="st0"
         inkscape:connector-curvature="0"
         style="fill:#8ebae5;fill-opacity:1" />
      <path
         id="path7492"
         d="m 253.8882,990.49305 0,32.73625 c 0,12.5386 7.28845,15.1328 15.00926,15.1328 7.72082,0 15.00927,-3.1501 15.00927,-15.1328 l 0,-32.73625 -9.45028,0 0,32.73625 c 0,4.6943 -1.1118,8.1532 -5.49722,8.1532 -4.38542,0 -5.49722,-3.4589 -5.49722,-8.1532 l 0,-32.73625 -9.57381,0 z"
         class="st0"
         inkscape:connector-curvature="0"
         style="fill:#8ebae5;fill-opacity:1" />
      <path
         transform="matrix(0.61766523,0,0,0.61766523,138.5701,786.29292)"
         style="fill:#8ebae5;fill-opacity:1"
         d="m 239,406.6 14,0 0,-53.3 0.2,0 18.8,53.3 17.4,0 0,-76 -14,0 0,52 -0.2,0 -18.5,-52 -17.7,0 z"
         id="polygon7494" />
      <path
         style="fill:#8ebae5;fill-opacity:1"
         d="m 319.79306,990.49304 9.45028,0 0,46.94256 -9.45028,0 z"
         id="rect7496" />
      <path
         transform="matrix(0.61766523,0,0,0.61766523,138.5701,786.29292)"
         style="fill:#8ebae5;fill-opacity:1"
         d="m 327.2,406.6 19.7,0 17.5,-76 -15.9,0 -11.3,56.2 -0.3,0 -10.8,-56.2 -16.3,0 z"
         id="polygon7498" />
      <path
         transform="matrix(0.61766523,0,0,0.61766523,138.5701,786.29292)"
         style="fill:#8ebae5;fill-opacity:1"
         d="m 365.7,406.6 43.6,0 0,-12.6 -28.2,0 0,-20.4 25.5,0 0,-12.6 -25.5,0 0,-17.9 27.1,0 0,-12.5 -42.5,0 z"
         id="polygon7500" />
      <path
         id="path7502"
         d="m 424.24027,1022.7352 0,1.9147 c 0,8.7091 4.20012,13.6504 14.9475,13.6504 10.25324,0 16.30636,-4.4472 16.30636,-14.3916 0,-5.7443 -1.853,-9.3267 -8.95615,-12.415 l -7.28845,-3.1501 c -4.01482,-1.7295 -4.87955,-3.459 -4.87955,-6.362 0,-2.77948 1.1118,-5.43544 5.37369,-5.43544 3.64422,0 5.12662,2.5942 5.12662,6.97964 l 9.07968,0 0,-1.2971 c 0,-9.01793 -6.11489,-12.60039 -14.51514,-12.60039 -8.95614,0 -14.51513,4.69426 -14.51513,13.83569 0,7.8444 3.89129,11.3033 12.29154,14.2063 6.23842,2.1618 8.40025,3.7678 8.40025,8.0297 0,3.953 -2.7795,5.806 -5.68252,5.806 -5.00309,0 -6.23842,-2.8412 -6.23842,-7.2267 l 0,-1.3588 -9.45028,0 z"
         class="st0"
         inkscape:connector-curvature="0"
         style="fill:#8ebae5;fill-opacity:1" />
      <path
         style="fill:#8ebae5;fill-opacity:1"
         d="m 456.72943,990.49304 9.45028,0 0,46.94256 -9.45028,0 z"
         id="rect7504" />
      <path
         transform="matrix(0.61766523,0,0,0.61766523,138.5701,786.29292)"
         style="fill:#8ebae5;fill-opacity:1"
         d="m 599.4,359.9 -0.2,0 -10,-29.3 -56.8,0 0,12.5 16.6,0 0,63.5 15.3,0 0,-63.5 13,0 14.3,33.6 0,29.9 15.3,0 0,-29.9 19.7,-46.1 -16.6,0 z"
         id="polygon7506" />
      <path
         id="path7512"
         d="m 390.57751,939.04153 -11.73564,0 -9.88264,37.18345 -9.82088,-37.18345 -11.73564,0 -12.47683,47.18962 9.88264,0 2.16183,-9.94441 12.5386,0 2.16183,9.94441 14.51513,0 2.16183,-9.94441 12.53861,0 2.16182,9.94441 9.88265,0 -12.35331,-47.18962 z m -41.93947,29.40087 4.57073,-21.18592 0.12353,0 4.57072,21.18592 -9.26498,0 z m 31.43916,0 4.57073,-21.18592 0.12353,0 4.57072,21.18592 -9.26498,0 z"
         class="st0"
         inkscape:connector-curvature="0"
         style="fill:#8ebae5;fill-opacity:1" />
      <path
         id="path7514"
         d="m 431.40519,955.10083 c 0,-6.85609 -0.98827,-16.73873 -14.51514,-16.73873 -14.2063,0 -15.99753,10.12971 -15.99753,24.39778 0,14.26806 1.79123,24.39777 15.99753,24.39777 12.41507,0 14.9475,-8.77084 14.9475,-18.90055 l -9.45028,0 c 0,10.12971 -2.47066,11.92094 -5.92958,11.92094 -4.07659,0 -6.05312,-2.5942 -6.05312,-16.73873 0,-13.2798 1.1118,-18.09759 5.92958,-18.09759 4.26189,0 5.68252,2.96479 5.68252,9.82087 l 9.38852,0 z"
         class="st0"
         inkscape:connector-curvature="0"
         style="fill:#8ebae5;fill-opacity:1" />
      <path
         transform="matrix(0.61766523,0,0,0.61766523,138.5701,786.29292)"
         style="fill:#8ebae5;fill-opacity:1"
         d="m 493.1,323.6 0,-33.8 18,0 0,33.8 15.4,0 0,-76.3 -15.4,0 0,29.2 -18,0 0,-29.2 -15.4,0 0,76.3 z"
         id="polygon7516" />
      <path
         transform="matrix(0.61766523,0,0,0.61766523,138.5701,786.29292)"
         style="fill:#8ebae5;fill-opacity:1"
         d="m 529.8,323.6 43.8,0 0,-12.6 -28.4,0 0,-20.5 25.7,0 0,-12.6 -25.7,0 0,-18 27.3,0 0,-12.6 -42.7,0 z"
         id="polygon7518" />
      <path
         transform="matrix(0.61766523,0,0,0.61766523,138.5701,786.29292)"
         style="fill:#8ebae5;fill-opacity:1"
         d="m 575.9,323.6 14.1,0 0,-53.4 0.2,0 18.8,53.4 17.6,0 0,-76.3 -14.2,0 0,52.3 -0.2,0 -18.6,-52.3 -17.7,0 z"
         id="polygon7520" />
    </g>
    <rect
       style="color:#000000;clip-rule:nonzero;display:inline;overflow:visible;visibility:visible;opacity:1;isolation:auto;mix-blend-mode:normal;color-interpolation:sRGB;color-interpolation-filters:linearRGB;solid-color:#000000;solid-opacity:1;fill:#ffffff;fill-opacity:1;fill-rule:nonzero;stroke:none;stroke-width:1.5;stroke-linecap:round;stroke-linejoin:bevel;stroke-miterlimit:4;stroke-dasharray:none;stroke-dashoffset:0;stroke-opacity:1;color-rendering:auto;image-rendering:auto;shape-rendering:auto;text-rendering:auto;enable-background:accumulate"
       id="rect7547"
       width="2"
       height="100"
       x="139"
       y="938.36212" />
  </g>
  <style
     id="style7488"
     type="text/css">
	.st0{fill:#8FBAE5;}
	.st1{fill:#00549E;}
</style>
</svg>
