<?xml version="1.0" encoding="UTF-8" standalone="no"?>
<svg
   xmlns:dc="http://purl.org/dc/elements/1.1/"
   xmlns:cc="http://creativecommons.org/ns#"
   xmlns:rdf="http://www.w3.org/1999/02/22-rdf-syntax-ns#"
   xmlns:svg="http://www.w3.org/2000/svg"
   xmlns="http://www.w3.org/2000/svg"
   xmlns:xlink="http://www.w3.org/1999/xlink"
   version="1.1"
   id="svg2"
   viewBox="0 0 112 592"
   height="592"
   width="112">
  <defs
     id="defs4">
    <linearGradient
       id="linearGradient5761">
      <stop
         id="stop5763"
         offset="0"
         style="stop-color:#fffcf9;stop-opacity:1" />
      <stop
         id="stop5765"
         offset="1"
         style="stop-color:#c38613;stop-opacity:1" />
    </linearGradient>
    <radialGradient
       gradientUnits="userSpaceOnUse"
       gradientTransform="matrix(2.827447,-0.28853589,0.2961098,2.9016657,-969.8058,873.76148)"
       r="22.535154"
       fy="95.309174"
       fx="442.25806"
       cy="95.309174"
       cx="442.25806"
       id="radialGradient6175"
       xlink:href="#linearGradient5761" />
    <radialGradient
       gradientUnits="userSpaceOnUse"
       gradientTransform="matrix(2.8569865,6.6252671e-7,-6.709737e-7,2.8934121,-954.62963,-1833.957)"
       r="27.52"
       fy="964.65479"
       fx="456.49664"
       cy="964.65479"
       cx="456.49664"
       id="radialGradient6183"
       xlink:href="#linearGradient5761" />
    <radialGradient
       gradientUnits="userSpaceOnUse"
       gradientTransform="matrix(21.028877,-2.164036e-5,2.0334641e-5,19.760054,-8715.2368,-705.90196)"
       r="2.663085"
       fy="86.702599"
       fx="428.75656"
       cy="86.702599"
       cx="428.75656"
       id="radialGradient6191"
       xlink:href="#linearGradient5761" />
    <radialGradient
       gradientUnits="userSpaceOnUse"
       gradientTransform="matrix(12.282217,0.11665241,-0.11845032,12.471518,-4919.5896,-125.50558)"
       r="5.2001948"
       fy="86.571144"
       fx="421.13382"
       cy="86.571144"
       cx="421.13382"
       id="radialGradient6199"
       xlink:href="#linearGradient5761" />
    <radialGradient
       gradientUnits="userSpaceOnUse"
       gradientTransform="matrix(0.00450358,1.4043218,-1.2725384,0.00408097,1366.5967,431.3595)"
       r="21"
       fy="971.84387"
       fx="390.61942"
       cy="971.84387"
       cx="390.61942"
       id="radialGradient6244"
       xlink:href="#linearGradient5761" />
    <radialGradient
       gradientUnits="userSpaceOnUse"
       gradientTransform="matrix(5.0508994e-5,23.065295,-26.327352,5.7630518e-5,2390.5459,-7559.3416)"
       r="2.5341799"
       fy="85.69355"
       fx="368.70404"
       cy="85.69355"
       cx="368.70404"
       id="radialGradient6252"
       xlink:href="#linearGradient5761" />
    <radialGradient
       gradientUnits="userSpaceOnUse"
       gradientTransform="matrix(9.0765241e-8,3.8480828,-3.6828143,8.6867032e-8,433.19461,-479.86641)"
       r="16.185545"
       fy="80.175613"
       fx="383.94974"
       cy="80.175613"
       cx="383.94974"
       id="radialGradient6260"
       xlink:href="#linearGradient5761" />
    <radialGradient
       gradientUnits="userSpaceOnUse"
       gradientTransform="matrix(2.3520999e-6,3.0079219,-3.0214445,2.3626742e-6,395.22855,-152.92393)"
       r="16.185545"
       fy="103.78928"
       fx="384.64969"
       cy="103.78928"
       cx="384.64969"
       id="radialGradient6268"
       xlink:href="#linearGradient5761" />
    <radialGradient
       gradientUnits="userSpaceOnUse"
       gradientTransform="matrix(2.6603746e-5,10.235795,-8.7076072,2.2631851e-5,8629.1767,-3097.1164)"
       r="2.3777001"
       fy="976.70197"
       fx="406.10361"
       cy="976.70197"
       cx="406.10361"
       id="radialGradient6276"
       xlink:href="#linearGradient5761" />
    <radialGradient
       gradientUnits="userSpaceOnUse"
       gradientTransform="matrix(0.01225288,1.4042757,-1.4031292,0.01224289,1486.4049,423.25848)"
       r="21"
       fy="984.64178"
       fx="391.62555"
       cy="984.64178"
       cx="391.62555"
       id="radialGradient6244-3"
       xlink:href="#linearGradient5761" />
    <radialGradient
       gradientUnits="userSpaceOnUse"
       gradientTransform="matrix(7.6734343,-5.6697433e-6,4.6614704e-6,6.3088372,-2635.9583,-5278.5516)"
       r="2.3777001"
       fy="999.93384"
       fx="408.98434"
       cy="999.93384"
       cx="408.98434"
       id="radialGradient6284-7"
       xlink:href="#linearGradient5761" />
    <radialGradient
       gradientUnits="userSpaceOnUse"
       gradientTransform="matrix(8.5229268,-2.2151848e-5,1.8844613e-5,7.2504675,-2953.2224,-6085.2699)"
       r="2.3777001"
       fy="975.79828"
       fx="404.58273"
       cy="975.79828"
       cx="404.58273"
       id="radialGradient6276-2"
       xlink:href="#linearGradient5761" />
    <radialGradient
       gradientUnits="userSpaceOnUse"
       gradientTransform="matrix(10.577324,-2.8094983e-5,2.549247e-5,9.5975181,-3817.1103,-8192.5735)"
       r="2.3777001"
       fy="952.73456"
       fx="408.25342"
       cy="952.73456"
       cx="408.25342"
       id="radialGradient6228-0"
       xlink:href="#linearGradient5761" />
    <radialGradient
       gradientUnits="userSpaceOnUse"
       gradientTransform="matrix(2.8787404,0,-2.3340634e-5,2.2329934,-650.3368,819.55879)"
       r="20.44043"
       fy="58.713348"
       fx="392.28839"
       cy="58.713348"
       cx="392.28839"
       id="radialGradient6220-2"
       xlink:href="#linearGradient5761" />
    <radialGradient
       gradientUnits="userSpaceOnUse"
       gradientTransform="matrix(1.9895517,-1.4848065e-6,1.3603654e-6,1.8228081,-304.56948,836.24126)"
       r="21"
       fy="127.44377"
       fx="387.95874"
       cy="127.44377"
       cx="387.95874"
       id="radialGradient6300-1"
       xlink:href="#linearGradient5761" />
    <radialGradient
       gradientUnits="userSpaceOnUse"
       gradientTransform="matrix(1.9413371,4.8806138e-7,-4.5549204e-7,1.8117878,-285.93029,840.96252)"
       r="16.185545"
       fy="99.656151"
       fx="383.11414"
       cy="99.656151"
       cx="383.11414"
       id="radialGradient6268-7"
       xlink:href="#linearGradient5761" />
    <radialGradient
       gradientUnits="userSpaceOnUse"
       gradientTransform="matrix(1.9808632,3.3734278e-8,-3.5437326e-8,2.0808656,-301.27777,818.21431)"
       r="16.185545"
       fy="80.997047"
       fx="390.20599"
       cy="80.997047"
       cx="390.20599"
       id="radialGradient6260-5"
       xlink:href="#linearGradient5761" />
    <radialGradient
       gradientUnits="userSpaceOnUse"
       gradientTransform="matrix(2.1227054,0,0,2.2568717,-355.98188,809.45366)"
       r="20.44043"
       fy="83.994148"
       fx="381.72906"
       cy="83.994148"
       cx="381.72906"
       id="radialGradient6236-1"
       xlink:href="#linearGradient5761" />
    <radialGradient
       gradientUnits="userSpaceOnUse"
       gradientTransform="matrix(2.15443,7.9938749e-7,-6.8846506e-7,1.8554829,-370.2651,834.04698)"
       r="21"
       fy="104.82422"
       fx="393.9848"
       cy="104.82422"
       cx="393.9848"
       id="radialGradient6292-7"
       xlink:href="#linearGradient5761" />
    <radialGradient
       gradientUnits="userSpaceOnUse"
       gradientTransform="matrix(22.647192,-0.04633711,0.04589848,22.432816,-7928.55,-921.38268)"
       r="2.5341799"
       fy="86.632301"
       fx="367.50085"
       cy="86.632301"
       cx="367.50085"
       id="radialGradient6252-4"
       xlink:href="#linearGradient5761" />
    <radialGradient
       gradientUnits="userSpaceOnUse"
       gradientTransform="matrix(1.6666012,-0.01454178,0.01452992,1.6652405,-193.62952,-620.5901)"
       r="21"
       fy="989.20636"
       fx="381.7431"
       cy="989.20636"
       cx="381.7431"
       id="radialGradient6244-3-1"
       xlink:href="#linearGradient5761" />
    <radialGradient
       gradientUnits="userSpaceOnUse"
       gradientTransform="matrix(1.9486321,1.341605e-7,-1.2927465e-7,1.8776669,-288.17496,-835.13922)"
       r="21"
       fy="966.76611"
       fx="382.93478"
       cy="966.76611"
       cx="382.93478"
       id="radialGradient6244-7"
       xlink:href="#linearGradient5761" />
    <radialGradient
       gradientUnits="userSpaceOnUse"
       gradientTransform="matrix(-10.235795,2.6603746e-5,-2.2631851e-5,-8.7076072,4225.3751,9462.8851)"
       r="2.3777001"
       fy="975.48395"
       fx="406.05347"
       cy="975.48395"
       cx="406.05347"
       id="radialGradient6276-4"
       xlink:href="#linearGradient5761" />
    <radialGradient
       gradientUnits="userSpaceOnUse"
       gradientTransform="matrix(10.235795,0,0,-11.297649,-3977.4288,11994.681)"
       r="2.3777001"
       fy="977.50751"
       fx="404.58273"
       cy="977.50751"
       cx="404.58273"
       id="radialGradient6276-4-0"
       xlink:href="#linearGradient5761" />
    <radialGradient
       gradientUnits="userSpaceOnUse"
       gradientTransform="matrix(2.6603746e-5,10.235795,-8.7076072,2.2631851e-5,8903.913,-3097.1164)"
       r="2.3777001"
       fy="976.70197"
       fx="406.10361"
       cy="976.70197"
       cx="406.10361"
       id="radialGradient6276-9"
       xlink:href="#linearGradient5761" />
    <radialGradient
       gradientUnits="userSpaceOnUse"
       gradientTransform="matrix(2.3520999e-6,3.0079219,-3.0214445,2.3626742e-6,669.96467,-152.92397)"
       r="16.185545"
       fy="103.78928"
       fx="384.64969"
       cy="103.78928"
       cx="384.64969"
       id="radialGradient6268-1"
       xlink:href="#linearGradient5761" />
    <radialGradient
       gradientUnits="userSpaceOnUse"
       gradientTransform="matrix(9.0765241e-8,3.8480828,-3.6828143,8.6867032e-8,707.93077,-479.86637)"
       r="16.185545"
       fy="80.175613"
       fx="383.94974"
       cy="80.175613"
       cx="383.94974"
       id="radialGradient6260-3"
       xlink:href="#linearGradient5761" />
    <radialGradient
       gradientUnits="userSpaceOnUse"
       gradientTransform="matrix(2.6603746e-5,-10.235795,-8.7076072,-2.2631851e-5,8903.913,5091.7149)"
       r="2.3777001"
       fy="976.68219"
       fx="404.48117"
       cy="976.68219"
       cx="404.48117"
       id="radialGradient6276-9-3"
       xlink:href="#linearGradient5761" />
    <radialGradient
       gradientUnits="userSpaceOnUse"
       gradientTransform="matrix(2.1148194,0,1.7027418e-5,2.4671114,-976.85393,1154.7595)"
       r="32.425781"
       fy="-57.613117"
       fx="555.13519"
       cy="-57.613117"
       cx="555.13519"
       id="radialGradient4836"
       xlink:href="#linearGradient5761" />
    <radialGradient
       gradientUnits="userSpaceOnUse"
       gradientTransform="matrix(-2.2913189,-1.3851164e-7,1.6132821e-7,-2.6687603,1632.2981,3146.9574)"
       r="40.849525"
       fy="826.8894"
       fx="601.71991"
       cy="826.8894"
       cx="601.71991"
       id="radialGradient4844"
       xlink:href="#linearGradient5761" />
    <radialGradient
       gradientUnits="userSpaceOnUse"
       gradientTransform="matrix(2.6603746e-5,-10.235795,-8.7076072,-2.2631851e-5,8752.2938,5091.7149)"
       r="2.3777001"
       fy="976.68219"
       fx="404.48117"
       cy="976.68219"
       cx="404.48117"
       id="radialGradient6276-9-3-9"
       xlink:href="#linearGradient5761" />
    <radialGradient
       gradientUnits="userSpaceOnUse"
       gradientTransform="matrix(2.6603746e-5,-10.235795,-8.7076072,-2.2631851e-5,8687.9175,5091.7149)"
       r="2.3777001"
       fy="976.68219"
       fx="404.48117"
       cy="976.68219"
       cx="404.48117"
       id="radialGradient6276-9-3-9-6"
       xlink:href="#linearGradient5761" />
    <radialGradient
       gradientUnits="userSpaceOnUse"
       gradientTransform="matrix(1.2392973,-6.8159035e-7,6.3372531e-7,1.152267,-461.31823,3.44362)"
       r="37.251034"
       fy="891.90094"
       fx="398.77203"
       cy="891.90094"
       cx="398.77203"
       id="radialGradient4955"
       xlink:href="#linearGradient5761" />
    <radialGradient
       gradientUnits="userSpaceOnUse"
       gradientTransform="matrix(1.6410423,0,0,1.232755,-619.40799,1083.0983)"
       r="37.25098"
       fy="-66.492752"
       fx="406.44943"
       cy="-66.492752"
       cx="406.44943"
       id="radialGradient4963"
       xlink:href="#linearGradient5761" />
    <radialGradient
       gradientUnits="userSpaceOnUse"
       gradientTransform="matrix(1.8158715,-1.0394584e-6,9.4486587e-7,1.6506241,-690.00576,-439.05947)"
       r="37.251034"
       fy="843.5"
       fx="420.40811"
       cy="843.5"
       cx="420.40811"
       id="radialGradient4955-6"
       xlink:href="#linearGradient5761" />
    <radialGradient
       gradientUnits="userSpaceOnUse"
       gradientTransform="matrix(1.6410423,7.5062747e-8,-9.0448076e-8,1.9774006,-619.408,1132.6118)"
       r="37.25098"
       fy="-77.715073"
       fx="412.03482"
       cy="-77.715073"
       cx="412.03482"
       id="radialGradient4963-5"
       xlink:href="#linearGradient5761" />
    <radialGradient
       gradientUnits="userSpaceOnUse"
       gradientTransform="matrix(9.4723905,3.8788294,4.2812164,-10.455049,-7940.5945,9608.7265)"
       r="2.3777001"
       fy="977.89563"
       fx="404.43311"
       cy="977.89563"
       cx="404.43311"
       id="radialGradient6276-4-0-7"
       xlink:href="#linearGradient5761" />
    <radialGradient
       gradientUnits="userSpaceOnUse"
       gradientTransform="matrix(-9.5369352,-3.7173063,-2.4442284,6.27079,6256.6961,-3598.0713)"
       r="2.3777001"
       fy="976.97888"
       fx="405.74667"
       cy="976.97888"
       cx="405.74667"
       id="radialGradient6276-4-0-7-9"
       xlink:href="#linearGradient5761" />
    <radialGradient
       gradientUnits="userSpaceOnUse"
       gradientTransform="matrix(-9.5369352,-3.7173063,-2.4442284,6.27079,6764.5114,-3598.0713)"
       r="2.3777001"
       fy="976.97888"
       fx="405.74667"
       cy="976.97888"
       cx="405.74667"
       id="radialGradient6276-4-0-7-9-2"
       xlink:href="#linearGradient5761" />
    <radialGradient
       gradientUnits="userSpaceOnUse"
       gradientTransform="matrix(9.4723905,3.8788294,4.2812164,-10.455049,-7432.7792,9608.7265)"
       r="2.3777001"
       fy="977.89563"
       fx="404.43311"
       cy="977.89563"
       cx="404.43311"
       id="radialGradient6276-4-0-7-1"
       xlink:href="#linearGradient5761" />
    <radialGradient
       gradientUnits="userSpaceOnUse"
       gradientTransform="matrix(1.6410423,7.5062747e-8,-9.0448076e-8,1.9774006,-111.59264,1132.6119)"
       r="37.25098"
       fy="-77.715073"
       fx="412.03482"
       cy="-77.715073"
       cx="412.03482"
       id="radialGradient4963-5-3"
       xlink:href="#linearGradient5761" />
    <radialGradient
       gradientUnits="userSpaceOnUse"
       gradientTransform="matrix(1.6410423,0,0,1.232755,-111.59263,1083.0983)"
       r="37.25098"
       fy="-66.492752"
       fx="406.44943"
       cy="-66.492752"
       cx="406.44943"
       id="radialGradient4963-2"
       xlink:href="#linearGradient5761" />
    <radialGradient
       gradientUnits="userSpaceOnUse"
       gradientTransform="matrix(1.8158715,-1.0394584e-6,9.4486587e-7,1.6506241,-182.1904,-439.05942)"
       r="37.251034"
       fy="843.5"
       fx="420.40811"
       cy="843.5"
       cx="420.40811"
       id="radialGradient4955-6-1"
       xlink:href="#linearGradient5761" />
    <radialGradient
       gradientUnits="userSpaceOnUse"
       gradientTransform="matrix(1.2392973,-6.8159035e-7,6.3372531e-7,1.152267,46.49713,3.44362)"
       r="37.251034"
       fy="891.90094"
       fx="398.77203"
       cy="891.90094"
       cx="398.77203"
       id="radialGradient4955-5"
       xlink:href="#linearGradient5761" />
  </defs>
  <metadata
     id="metadata7">
    <rdf:RDF>
      <cc:Work
         rdf:about="">
        <dc:format>image/svg+xml</dc:format>
        <dc:type
           rdf:resource="http://purl.org/dc/dcmitype/StillImage" />
        <dc:title></dc:title>
      </cc:Work>
    </rdf:RDF>
  </metadata>
  <g
     style="display:inline"
     transform="translate(0,-460.36211)"
     id="layer1">
    <g
       transform="matrix(0,1,-1,0,1053.3621,459.0444)"
       id="g6586">
      <g
         id="g6551">
        <path
           d="m 279.8473,950.75988 40.79995,0 q 14.93332,0 26.5333,5.86666 11.59999,5.73333 17.99998,16.39998 6.39999,10.53332 6.39999,24.39997 0,13.86661 -6.39999,24.53331 -6.39999,10.5333 -17.99998,16.4 -11.59998,5.7333 -26.5333,5.7333 l -40.79995,0 0,-93.33322 z m 39.99995,78.66662 q 10.26666,0 17.99998,-3.8667 7.86666,-4 11.99999,-11.2 4.26666,-7.3333 4.26666,-16.93331 0,-9.59999 -4.26666,-16.79998 -4.13333,-7.33332 -11.99999,-11.19998 -7.73332,-4 -17.99998,-4 l -22.66663,0 0,63.99997 22.66663,0 z"
           style="font-style:normal;font-variant:normal;font-weight:600;font-stretch:normal;font-size:medium;line-height:125%;font-family:Montserrat;-inkscape-font-specification:'Montserrat, Semi-Bold';text-align:start;letter-spacing:0px;word-spacing:0px;writing-mode:lr-tb;text-anchor:start;fill:url(#radialGradient6183);fill-opacity:1;stroke:none;stroke-width:1px;stroke-linecap:butt;stroke-linejoin:miter;stroke-opacity:1"
           id="path4224" />
        <path
           id="path4224-4"
           d="m 279.8473,950.77172 0,93.31698 17.33397,-14.7201 0,-63.88661 -17.33397,-14.71027 z"
           style="font-style:normal;font-variant:normal;font-weight:600;font-stretch:normal;font-size:medium;line-height:125%;font-family:Montserrat;-inkscape-font-specification:'Montserrat, Semi-Bold';text-align:start;letter-spacing:0px;word-spacing:0px;writing-mode:lr-tb;text-anchor:start;display:inline;fill:url(#radialGradient6199);fill-opacity:1;stroke:none;stroke-width:1px;stroke-linecap:butt;stroke-linejoin:miter;stroke-opacity:1" />
        <path
           id="path4224-03"
           d="m 288.30433,957.92666 0,79.01354 29.54423,0 c 8.90804,0 16.82056,-1.3002 23.7402,-4.5638 6.91966,-3.3393 12.28902,-8.0081 16.10675,-14.0039 3.81773,-6.0716 5.72591,-13.0541 5.72591,-20.94719 0,-7.89308 -1.90818,-14.8376 -5.72591,-20.83331 -3.81773,-6.07159 -9.18709,-10.73716 -16.10675,-14.00063 -6.91964,-3.3394 -14.83216,-4.66471 -23.7402,-4.66471 l -29.54423,0 z m 8.87694,7.49999 22.66598,0 c 6.84445,0 12.84574,1.33398 18.00128,4.00064 5.24445,2.57778 9.24314,6.30902 11.99869,11.19791 2.84444,4.79999 4.26758,10.40011 4.26758,16.80011 0,6.39999 -1.42314,12.04469 -4.26758,16.93359 -2.75555,4.8 -6.75424,8.5345 -11.99869,11.2011 -5.15554,2.5778 -11.15683,3.8672 -18.00128,3.8672 l -22.66598,0 0,-64.00055 z"
           style="font-style:normal;font-variant:normal;font-weight:600;font-stretch:normal;font-size:medium;line-height:125%;font-family:Montserrat;-inkscape-font-specification:'Montserrat, Semi-Bold';text-align:start;letter-spacing:0px;word-spacing:0px;writing-mode:lr-tb;text-anchor:start;display:inline;fill:url(#radialGradient6175);fill-opacity:1;stroke:none;stroke-width:1px;stroke-linecap:butt;stroke-linejoin:miter;stroke-opacity:1" />
        <path
           id="path4224-4-1"
           d="m 288.30433,957.94944 0,78.95826 8.87694,-7.5391 0,-63.88661 -8.87694,-7.53255 z"
           style="font-style:normal;font-variant:normal;font-weight:600;font-stretch:normal;font-size:medium;line-height:125%;font-family:Montserrat;-inkscape-font-specification:'Montserrat, Semi-Bold';text-align:start;letter-spacing:0px;word-spacing:0px;writing-mode:lr-tb;text-anchor:start;display:inline;fill:url(#radialGradient6191);fill-opacity:1;stroke:none;stroke-width:1px;stroke-linecap:butt;stroke-linejoin:miter;stroke-opacity:1" />
      </g>
      <g
         id="g6564">
        <path
           d="m 502.43884,1029.5362 0,14.5333 -69.99992,0 0,-93.33322 68.13325,0 0,14.53332 -50.79993,0 0,24.26663 45.06661,0 0,14.26667 -45.06661,0 0,25.7333 52.6666,0 z"
           style="font-style:normal;font-variant:normal;font-weight:600;font-stretch:normal;font-size:medium;line-height:125%;font-family:Montserrat;-inkscape-font-specification:'Montserrat, Semi-Bold';text-align:start;letter-spacing:0px;word-spacing:0px;writing-mode:lr-tb;text-anchor:start;display:inline;fill:url(#radialGradient6244-7);fill-opacity:1;stroke:none;stroke-width:1px;stroke-linecap:butt;stroke-linejoin:miter;stroke-opacity:1"
           id="path4222-1" />
        <path
           id="path4222-3-1"
           d="m 443.42849,997.00782 -10.98957,0.20834 0,46.85224 4.66471,0 14.11457,-10.5242 0.27668,-4.0071 -1.72199,0 0,-25.7357 0.63476,0 -6.97916,-6.79358 z"
           style="font-style:normal;font-variant:normal;font-weight:600;font-stretch:normal;font-size:medium;line-height:125%;font-family:Montserrat;-inkscape-font-specification:'Montserrat, Semi-Bold';text-align:start;letter-spacing:0px;word-spacing:0px;writing-mode:lr-tb;text-anchor:start;display:inline;fill:url(#radialGradient6244-3-1);fill-opacity:1;stroke:none;stroke-width:1px;stroke-linecap:butt;stroke-linejoin:miter;stroke-opacity:1" />
        <path
           id="path4222-7-1"
           d="m 432.43892,950.7351 0,93.3333 8.44726,0 0,-93.3333 -8.44726,0 z"
           style="font-style:normal;font-variant:normal;font-weight:600;font-stretch:normal;font-size:medium;line-height:125%;font-family:Montserrat;-inkscape-font-specification:'Montserrat, Semi-Bold';text-align:start;letter-spacing:0px;word-spacing:0px;writing-mode:lr-tb;text-anchor:start;display:inline;fill:url(#radialGradient6252-4);fill-opacity:1;stroke:none;stroke-width:1px;stroke-linecap:butt;stroke-linejoin:miter;stroke-opacity:1" />
        <path
           id="path4222-78-70"
           d="m 449.77289,1029.472 -17.33397,14.5702 0,0.027 69.99992,0 0,-14.5312 -52.66595,0 0,-0.065 z"
           style="font-style:normal;font-variant:normal;font-weight:600;font-stretch:normal;font-size:medium;line-height:125%;font-family:Montserrat;-inkscape-font-specification:'Montserrat, Semi-Bold';text-align:start;letter-spacing:0px;word-spacing:0px;writing-mode:lr-tb;text-anchor:start;display:inline;fill:url(#radialGradient6292-7);fill-opacity:1;stroke:none;stroke-width:1px;stroke-linecap:butt;stroke-linejoin:miter;stroke-opacity:1" />
        <path
           id="path4222-4-4"
           d="m 432.43892,950.7351 0,0.0813 17.3535,14.4531 50.78119,0 0,-14.53448 -68.13469,0 z"
           style="font-style:normal;font-variant:normal;font-weight:600;font-stretch:normal;font-size:medium;line-height:125%;font-family:Montserrat;-inkscape-font-specification:'Montserrat, Semi-Bold';text-align:start;letter-spacing:0px;word-spacing:0px;writing-mode:lr-tb;text-anchor:start;display:inline;fill:url(#radialGradient6236-1);fill-opacity:1;stroke:none;stroke-width:1px;stroke-linecap:butt;stroke-linejoin:miter;stroke-opacity:1" />
        <path
           id="path4222-9-0"
           d="m 449.78917,989.53713 -8.90299,7.53254 8.88671,6.73503 0,0 45.06504,0 0,-14.26435 -45.04876,0 z"
           style="font-style:normal;font-variant:normal;font-weight:600;font-stretch:normal;font-size:medium;line-height:125%;font-family:Montserrat;-inkscape-font-specification:'Montserrat, Semi-Bold';text-align:start;letter-spacing:0px;word-spacing:0px;writing-mode:lr-tb;text-anchor:start;display:inline;fill:url(#radialGradient6260-5);fill-opacity:1;stroke:none;stroke-width:1px;stroke-linecap:butt;stroke-linejoin:miter;stroke-opacity:1" />
        <path
           id="path4222-9-3-8"
           d="m 440.88618,997.06967 8.88671,6.73503 0,0 45.06504,0 0,-6.73181 -53.95175,0 z"
           style="font-style:normal;font-variant:normal;font-weight:600;font-stretch:normal;font-size:medium;line-height:125%;font-family:Montserrat;-inkscape-font-specification:'Montserrat, Semi-Bold';text-align:start;letter-spacing:0px;word-spacing:0px;writing-mode:lr-tb;text-anchor:start;display:inline;fill:url(#radialGradient6268-7);fill-opacity:1;stroke:none;stroke-width:1px;stroke-linecap:butt;stroke-linejoin:miter;stroke-opacity:1" />
        <path
           id="path4222-78-7-5"
           d="m 440.93175,1036.9036 -8.49283,7.1386 0,0.027 69.99992,0 0,-7.1647 -61.50709,0 z"
           style="font-style:normal;font-variant:normal;font-weight:600;font-stretch:normal;font-size:medium;line-height:125%;font-family:Montserrat;-inkscape-font-specification:'Montserrat, Semi-Bold';text-align:start;letter-spacing:0px;word-spacing:0px;writing-mode:lr-tb;text-anchor:start;display:inline;fill:url(#radialGradient6300-1);fill-opacity:1;stroke:none;stroke-width:1px;stroke-linecap:butt;stroke-linejoin:miter;stroke-opacity:1" />
        <path
           id="path4222-4-1-16"
           d="m 432.43892,950.7351 0,0.0813 8.50911,7.08658 59.62558,0 0,-7.16796 -68.13469,0 z"
           style="font-style:normal;font-variant:normal;font-weight:600;font-stretch:normal;font-size:medium;line-height:125%;font-family:Montserrat;-inkscape-font-specification:'Montserrat, Semi-Bold';text-align:start;letter-spacing:0px;word-spacing:0px;writing-mode:lr-tb;text-anchor:start;display:inline;fill:url(#radialGradient6220-2);fill-opacity:1;stroke:none;stroke-width:1px;stroke-linecap:butt;stroke-linejoin:miter;stroke-opacity:1" />
        <path
           id="path5693-6"
           d="m 500.55211,950.72168 0,14.5647 -7.92566,-7.41101 z"
           style="display:inline;fill:url(#radialGradient6228-0);fill-opacity:1;fill-rule:evenodd;stroke:none;stroke-width:1px;stroke-linecap:butt;stroke-linejoin:miter;stroke-opacity:1" />
        <path
           id="path5693-9-2"
           d="m 494.8037,989.4987 0,14.2816 -7.92566,-6.74193 z"
           style="display:inline;fill:url(#radialGradient6276-2);fill-opacity:1;fill-rule:evenodd;stroke:none;stroke-width:1px;stroke-linecap:butt;stroke-linejoin:miter;stroke-opacity:1" />
        <path
           id="path5693-0-1"
           d="m 502.42824,1029.5084 0,14.5648 -7.92566,-7.231 z"
           style="display:inline;fill:url(#radialGradient6284-7);fill-opacity:1;fill-rule:evenodd;stroke:none;stroke-width:1px;stroke-linecap:butt;stroke-linejoin:miter;stroke-opacity:1" />
      </g>
      <g
         id="g6535">
        <path
           d="m 92.14099,950.78285 71.41028,0 0,14.60502 -33.83652,0 0,37.97303 -12.02107,0 0,-37.97303 -21.68284,0 z"
           style="font-style:normal;font-variant:normal;font-weight:600;font-stretch:normal;font-size:medium;line-height:125%;font-family:Montserrat;-inkscape-font-specification:'Montserrat, Semi-Bold';text-align:start;letter-spacing:0px;word-spacing:0px;writing-mode:lr-tb;text-anchor:start;fill:url(#radialGradient6244);fill-opacity:1;stroke:none;stroke-width:1px;stroke-linecap:butt;stroke-linejoin:miter;stroke-opacity:1"
           id="path4222" />
        <path
           id="path4222-9"
           d="m 132.53266,965.55583 -9.04638,-7.6831 -8.08856,7.66354 0,0 0,78.37093 17.13105,0 0,-78.35137 z"
           style="font-style:normal;font-variant:normal;font-weight:600;font-stretch:normal;font-size:medium;line-height:125%;font-family:Montserrat;-inkscape-font-specification:'Montserrat, Semi-Bold';text-align:start;letter-spacing:0px;word-spacing:0px;writing-mode:lr-tb;text-anchor:start;display:inline;fill:url(#radialGradient6260);fill-opacity:1;stroke:none;stroke-width:1px;stroke-linecap:butt;stroke-linejoin:miter;stroke-opacity:1" />
        <path
           id="path4222-3"
           d="m 123.4192,960.04265 -0.17555,-9.2598 -38.83338,0 0,14.60556 33.28467,0 0,0.53487 z"
           style="font-style:normal;font-variant:normal;font-weight:600;font-stretch:normal;font-size:medium;line-height:125%;font-family:Montserrat;-inkscape-font-specification:'Montserrat, Semi-Bold';text-align:start;letter-spacing:0px;word-spacing:0px;writing-mode:lr-tb;text-anchor:start;display:inline;fill:url(#radialGradient6244-3);fill-opacity:1;stroke:none;stroke-width:1px;stroke-linecap:butt;stroke-linejoin:miter;stroke-opacity:1" />
        <path
           id="path4222-7"
           d="m 163.55127,950.78285 -79.18115,0 0,7.11764 79.18115,0 z"
           style="font-style:normal;font-variant:normal;font-weight:600;font-stretch:normal;font-size:medium;line-height:125%;font-family:Montserrat;-inkscape-font-specification:'Montserrat, Semi-Bold';text-align:start;letter-spacing:0px;word-spacing:0px;writing-mode:lr-tb;text-anchor:start;display:inline;fill:url(#radialGradient6252);fill-opacity:1;stroke:none;stroke-width:1px;stroke-linecap:butt;stroke-linejoin:miter;stroke-opacity:1" />
        <path
           id="path4222-9-3"
           d="m 123.48628,957.87273 -8.08856,7.66354 0,0 0,78.37093 8.08468,0 0,-86.03447 z"
           style="font-style:normal;font-variant:normal;font-weight:600;font-stretch:normal;font-size:medium;line-height:125%;font-family:Montserrat;-inkscape-font-specification:'Montserrat, Semi-Bold';text-align:start;letter-spacing:0px;word-spacing:0px;writing-mode:lr-tb;text-anchor:start;display:inline;fill:url(#radialGradient6268);fill-opacity:1;stroke:none;stroke-width:1px;stroke-linecap:butt;stroke-linejoin:miter;stroke-opacity:1" />
        <path
           id="path5693-9"
           d="m 132.5788,1043.8661 -17.15177,0 8.09684,-9.5185 z"
           style="display:inline;fill:url(#radialGradient6276);fill-opacity:1;fill-rule:evenodd;stroke:none;stroke-width:1px;stroke-linecap:butt;stroke-linejoin:miter;stroke-opacity:1" />
        <path
           id="path5693-9-4"
           d="m 84.37304,965.39171 0,-14.60336 9.53804,7.09239 z"
           style="display:inline;fill:url(#radialGradient6276-4);fill-opacity:1;fill-rule:evenodd;stroke:none;stroke-width:1px;stroke-linecap:butt;stroke-linejoin:miter;stroke-opacity:1" />
        <path
           id="path5693-9-4-9"
           d="m 163.55107,965.39171 0,-14.60336 -9.53804,7.09239 z"
           style="display:inline;fill:url(#radialGradient6276-4-0);fill-opacity:1;fill-rule:evenodd;stroke:none;stroke-width:1px;stroke-linecap:butt;stroke-linejoin:miter;stroke-opacity:1" />
      </g>
      <g
         id="g6557">
        <path
           d="m 390.00788,950.73515 17.32606,0 0,93.29415 -17.32606,0 0,-93.29415 z"
           style="font-style:normal;font-variant:normal;font-weight:600;font-stretch:normal;font-size:medium;line-height:125%;font-family:Montserrat;-inkscape-font-specification:'Montserrat, Semi-Bold';text-align:start;letter-spacing:0px;word-spacing:0px;writing-mode:lr-tb;text-anchor:start;fill:#ffdf85;fill-opacity:1;stroke:none;stroke-width:1px;stroke-linecap:butt;stroke-linejoin:miter;stroke-opacity:1"
           id="path4634" />
        <path
           id="path4222-9-1"
           d="m 407.26882,950.63443 -9.04638,0 -8.08856,14.90184 0,0 0,78.37093 17.13105,0 0,-78.35137 z"
           style="font-style:normal;font-variant:normal;font-weight:600;font-stretch:normal;font-size:medium;line-height:125%;font-family:Montserrat;-inkscape-font-specification:'Montserrat, Semi-Bold';text-align:start;letter-spacing:0px;word-spacing:0px;writing-mode:lr-tb;text-anchor:start;display:inline;fill:url(#radialGradient6260-3);fill-opacity:1;stroke:none;stroke-width:1px;stroke-linecap:butt;stroke-linejoin:miter;stroke-opacity:1" />
        <path
           id="path4222-9-3-1"
           d="m 398.22244,950.63443 -8.08856,0 0,14.90184 0,78.37093 8.08468,0 0,-76.59929 z"
           style="font-style:normal;font-variant:normal;font-weight:600;font-stretch:normal;font-size:medium;line-height:125%;font-family:Montserrat;-inkscape-font-specification:'Montserrat, Semi-Bold';text-align:start;letter-spacing:0px;word-spacing:0px;writing-mode:lr-tb;text-anchor:start;display:inline;fill:url(#radialGradient6268-1);fill-opacity:1;stroke:none;stroke-width:1px;stroke-linecap:butt;stroke-linejoin:miter;stroke-opacity:1" />
        <path
           id="path5693-9-0"
           d="m 407.31496,1043.8661 -17.15177,0 8.09684,-9.5185 z"
           style="display:inline;fill:url(#radialGradient6276-9);fill-opacity:1;fill-rule:evenodd;stroke:none;stroke-width:1px;stroke-linecap:butt;stroke-linejoin:miter;stroke-opacity:1" />
        <path
           id="path5693-9-0-3"
           d="m 407.31496,950.73244 -17.15177,0 8.09684,9.5185 z"
           style="display:inline;fill:url(#radialGradient6276-9-3);fill-opacity:1;fill-rule:evenodd;stroke:none;stroke-width:1px;stroke-linecap:butt;stroke-linejoin:miter;stroke-opacity:1" />
      </g>
      <g
         id="g6545">
        <path
           d="m 214.85015,1045.3621 q -19.32523,0 -30.1207,-10.7955 -10.79547,-10.9287 -10.79547,-31.1869 l 0,-52.64455 17.32607,0 0,51.97815 q 0,27.4552 23.72337,27.4552 23.5901,0 23.5901,-27.4552 l 0,-51.97815 17.05951,0 0,52.64455 q 0,20.2582 -10.79547,31.1869 -10.66219,10.7955 -29.98741,10.7955 z"
           style="font-style:normal;font-variant:normal;font-weight:600;font-stretch:normal;font-size:medium;line-height:125%;font-family:Montserrat;-inkscape-font-specification:'Montserrat, Semi-Bold';text-align:start;letter-spacing:0px;word-spacing:0px;writing-mode:lr-tb;text-anchor:start;fill:url(#radialGradient4844);fill-opacity:1;stroke:none;stroke-width:1px;stroke-linecap:butt;stroke-linejoin:miter;stroke-opacity:1"
           id="path4630" />
        <path
           id="path4630-1"
           d="m 182.35743,950.73495 0,51.79685 c 0,11.3583 2.85748,20.1011 8.57031,26.2285 5.71283,6.0528 13.68153,9.0801 23.9082,9.0801 10.22666,0 18.16239,-3.0273 23.80469,-9.0801 5.71283,-6.1274 8.56836,-14.8702 8.56836,-26.2285 l 0,-51.79685 -8.63477,0 0,51.97855 c 0,18.3034 -7.86311,27.455 -23.58984,27.455 -15.81558,0 -23.72461,-9.1516 -23.72461,-27.455 l 0,-51.97855 -8.90234,0 z"
           style="font-style:normal;font-variant:normal;font-weight:600;font-stretch:normal;font-size:medium;line-height:125%;font-family:Montserrat;-inkscape-font-specification:'Montserrat, Semi-Bold';text-align:start;letter-spacing:0px;word-spacing:0px;writing-mode:lr-tb;text-anchor:start;display:inline;fill:url(#radialGradient4836);fill-opacity:1;stroke:none;stroke-width:1px;stroke-linecap:butt;stroke-linejoin:miter;stroke-opacity:1" />
        <path
           id="path5693-9-0-3-3"
           d="m 255.6352,950.73244 -17.06364,0 8.59178,9.5185 z"
           style="display:inline;fill:url(#radialGradient6276-9-3-9);fill-opacity:1;fill-rule:evenodd;stroke:none;stroke-width:1px;stroke-linecap:butt;stroke-linejoin:miter;stroke-opacity:1" />
        <path
           id="path5693-9-0-3-3-0"
           d="m 191.2589,950.73244 -17.33012,0 8.43113,9.5185 z"
           style="display:inline;fill:url(#radialGradient6276-9-3-9-6);fill-opacity:1;fill-rule:evenodd;stroke:none;stroke-width:1px;stroke-linecap:butt;stroke-linejoin:miter;stroke-opacity:1" />
      </g>
      <g
         id="g6527">
        <path
           d="m 42.78485,1045.3621 q -10.79547,0 -20.92455,-3.0654 -9.99581,-3.0653 -15.86002,-8.1299 l 5.99749,-13.461 q 5.73093,4.5314 13.99413,7.4635 8.39647,2.7989 16.79295,2.7989 10.39564,0 15.46018,-3.332 5.19782,-3.3319 5.19782,-8.7963 0,-3.9983 -2.93211,-6.5306 -2.79882,-2.6655 -7.19698,-4.1316 -4.39815,-1.466 -11.99496,-3.3319 -10.6622,-2.5323 -17.32607,-5.06456 -6.53059,-2.53227 -11.32857,-7.86337 -4.66471,-5.46437 -4.66471,-14.66051 0,-7.73009 4.1316,-13.99413 4.26487,-6.39732 12.66135,-10.12908 8.52975,-3.73177 20.79127,-3.73177 8.52976,0 16.79296,2.13244 8.2632,2.13244 14.26068,6.13076 l -5.46437,13.46102 q -6.13076,-3.59849 -12.79464,-5.46438 -6.66387,-1.86588 -12.9279,-1.86588 -10.26236,0 -15.3269,3.46521 -4.93127,3.46521 -4.93127,9.19614 0,3.99832 2.79883,6.53059 2.9321,2.53228 7.33025,3.99833 4.39816,1.46605 11.99497,3.33193 10.39564,2.399 17.05951,5.06454 6.66387,2.53227 11.32858,7.86332 4.79798,5.3311 4.79798,14.394 0,7.7301 -4.26487,13.9941 -4.1316,6.2641 -12.66136,9.9958 -8.52975,3.7318 -20.79127,3.7318 z"
           style="font-style:normal;font-variant:normal;font-weight:600;font-stretch:normal;font-size:medium;line-height:125%;font-family:Montserrat;-inkscape-font-specification:'Montserrat, Semi-Bold';text-align:start;letter-spacing:0px;word-spacing:0px;writing-mode:lr-tb;text-anchor:start;fill:url(#radialGradient4955);fill-opacity:1;stroke:none;stroke-width:1px;stroke-linecap:butt;stroke-linejoin:miter;stroke-opacity:1"
           id="path4626" />
        <path
           id="path4626-7"
           d="m 45.58399,949.40292 c -8.17435,0 -15.10452,1.24262 -20.79102,3.73047 -5.59765,2.48784 -9.81886,5.86403 -12.66211,10.12891 -2.47812,3.75715 -3.83151,7.91461 -4.08007,12.46289 l 17.14648,0.86328 c -5.2e-4,-0.0444 -0.0059,-0.0862 -0.0059,-0.13086 0,-3.82062 1.64413,-6.88517 4.93164,-9.19531 3.37636,-2.31014 8.48655,-3.4668 15.32813,-3.4668 4.17602,0 8.48515,0.62327 12.92773,1.86719 4.44259,1.24392 8.70775,3.06585 12.79492,5.46484 l 5.46289,-13.46289 c -3.99832,-2.66555 -8.75096,-4.70728 -14.25976,-6.12891 -5.5088,-1.42162 -11.10646,-2.13281 -16.79297,-2.13281 z"
           style="font-style:normal;font-variant:normal;font-weight:600;font-stretch:normal;font-size:medium;line-height:125%;font-family:Montserrat;-inkscape-font-specification:'Montserrat, Semi-Bold';text-align:start;letter-spacing:0px;word-spacing:0px;writing-mode:lr-tb;text-anchor:start;display:inline;fill:url(#radialGradient4955-6);fill-opacity:1;stroke:none;stroke-width:1px;stroke-linecap:butt;stroke-linejoin:miter;stroke-opacity:1" />
        <path
           id="path4626-4"
           d="m 46.71485,956.41659 c -6.17897,0.0552 -12.51328,0.88575 -18.04492,3.4961 -4.17884,1.97196 -8.05278,5.15056 -10.46485,9.09179 -1.88509,3.08018 -3.00771,6.92685 -2.60547,10.51563 0.3231,2.88275 1.9349,5.65282 3.91211,7.77539 3.05721,3.28197 7.33151,5.38846 11.56055,6.88281 5.6483,1.99585 11.49149,3.41851 17.24023,4.29102 4.35923,0.66162 10.42989,2.68837 14.77539,5.21097 3.95383,2.2952 7.12838,5.8165 8.32422,10.9004 0.98978,4.2078 0.46922,9.0684 -1.58984,12.8691 -1.86565,3.4437 -5.46598,5.8475 -8.98047,7.5762 -4.35819,2.1436 -9.39163,2.8045 -14.24023,3.0879 -6.69574,0.3913 -13.60022,-0.028 -20.02735,-1.9454 -6.06768,-1.8105 -12.8931,-5.4001 -17.60156,-8.6757 L 6,1034.1666 c 3.90948,3.3764 9.19551,6.0873 15.85938,8.1309 6.75272,2.0435 13.7288,3.0644 20.92578,3.0644 8.17435,0 15.10452,-1.2446 20.79102,-3.7324 5.6865,-2.4879 9.90771,-5.8182 12.66211,-9.9942 2.84324,-4.176 4.26367,-8.8407 4.26367,-13.9941 0,-6.0419 -1.59822,-10.8405 -4.79688,-14.3945 -3.1098,-3.5541 -6.8875,-6.17513 -11.33008,-7.86331 -4.44258,-1.77703 -10.12816,-3.46512 -17.05859,-5.06445 -5.06454,-1.24392 -9.06203,-2.35467 -11.99414,-3.33203 -2.9321,-0.97737 -5.3773,-2.30986 -7.33203,-3.99805 -1.86589,-1.68818 -2.79883,-3.8657 -2.79883,-6.53125 0,-3.82062 1.64413,-6.88517 4.93164,-9.19531 3.37636,-2.31014 8.48655,-3.4668 15.32813,-3.4668 4.17602,0 8.48515,0.62327 12.92773,1.86719 4.44259,1.24392 8.70775,3.06585 12.79492,5.46484 l 2.87696,-7.08984 c -2.63884,-1.51533 -5.63661,-3.04092 -8.22266,-4.01563 -5.25929,-1.98228 -10.85771,-3.4498 -16.47656,-3.58398 -0.87356,-0.0209 -1.75401,-0.0294 -2.63672,-0.0215 z"
           style="font-style:normal;font-variant:normal;font-weight:600;font-stretch:normal;font-size:medium;line-height:125%;font-family:Montserrat;-inkscape-font-specification:'Montserrat, Semi-Bold';text-align:start;letter-spacing:0px;word-spacing:0px;writing-mode:lr-tb;text-anchor:start;display:inline;fill:url(#radialGradient4963);fill-opacity:1;stroke:none;stroke-width:1px;stroke-linecap:butt;stroke-linejoin:miter;stroke-opacity:1" />
        <path
           id="path4626-4-8"
           d="m 71.875,1019.6451 c -0.11071,2.7365 -0.7884,5.471 -2.05273,7.8047 -1.86565,3.4437 -5.46598,5.8475 -8.98047,7.5762 -4.35819,2.1437 -9.39163,2.8045 -14.24023,3.0879 -6.69574,0.3913 -13.60022,-0.028 -20.02735,-1.9453 -6.06768,-1.8106 -12.8931,-5.4002 -17.60156,-8.6758 L 6,1034.1666 c 3.90948,3.3764 9.19551,6.0873 15.85938,8.1309 6.75272,2.0435 13.7288,3.0644 20.92578,3.0644 8.17435,0 15.10452,-1.2446 20.79102,-3.7324 5.6865,-2.4879 9.90771,-5.8182 12.66211,-9.9942 2.18385,-3.2076 3.5212,-6.706 4.02734,-10.4902 l -8.39063,-1.5 z"
           style="font-style:normal;font-variant:normal;font-weight:600;font-stretch:normal;font-size:medium;line-height:125%;font-family:Montserrat;-inkscape-font-specification:'Montserrat, Semi-Bold';text-align:start;letter-spacing:0px;word-spacing:0px;writing-mode:lr-tb;text-anchor:start;display:inline;fill:url(#radialGradient4963-5);fill-opacity:1;stroke:none;stroke-width:1px;stroke-linecap:butt;stroke-linejoin:miter;stroke-opacity:1" />
        <path
           id="path5693-9-4-9-2"
           d="m 71.17892,971.13055 5.45579,-13.46733 -11.18448,2.23876 z"
           style="display:inline;fill:url(#radialGradient6276-4-0-7);fill-opacity:1;fill-rule:evenodd;stroke:none;stroke-width:1px;stroke-linecap:butt;stroke-linejoin:miter;stroke-opacity:1" />
        <path
           id="path5693-9-4-9-2-0"
           d="m 11.99659,1020.7035 -5.98073,13.4519 10.96832,-1.9608 z"
           style="display:inline;fill:url(#radialGradient6276-4-0-7-9);fill-opacity:1;fill-rule:evenodd;stroke:none;stroke-width:1px;stroke-linecap:butt;stroke-linejoin:miter;stroke-opacity:1" />
      </g>
      <g
         id="g6578">
        <path
           d="m 550.60021,1045.3621 q -10.79547,0 -20.92455,-3.0653 -9.99581,-3.0654 -15.86002,-8.13 l 5.99749,-13.461 q 5.73093,4.5315 13.99413,7.4635 8.39647,2.7989 16.79295,2.7989 10.39564,0 15.46018,-3.3319 5.19782,-3.332 5.19782,-8.7964 0,-3.9983 -2.93211,-6.5306 -2.79882,-2.6655 -7.19698,-4.1316 -4.39815,-1.466 -11.99496,-3.3319 -10.6622,-2.5323 -17.32607,-5.06456 -6.53059,-2.53227 -11.32857,-7.86337 -4.66471,-5.46437 -4.66471,-14.66051 0,-7.73009 4.1316,-13.99413 4.26487,-6.39732 12.66135,-10.12908 8.52975,-3.73177 20.79127,-3.73177 8.52976,0 16.79296,2.13244 8.2632,2.13244 14.26068,6.13076 l -5.46437,13.46102 q -6.13076,-3.59849 -12.79464,-5.46438 -6.66387,-1.86588 -12.9279,-1.86588 -10.26236,0 -15.3269,3.46521 -4.93127,3.46521 -4.93127,9.19614 0,3.99832 2.79883,6.53059 2.9321,2.53228 7.33025,3.99833 4.39816,1.46605 11.99497,3.33193 10.39564,2.399 17.05951,5.06454 6.66387,2.53227 11.32858,7.86332 4.79798,5.3311 4.79798,14.394 0,7.7301 -4.26487,13.9942 -4.1316,6.264 -12.66136,9.9958 -8.52975,3.7317 -20.79127,3.7317 z"
           style="font-style:normal;font-variant:normal;font-weight:600;font-stretch:normal;font-size:medium;line-height:125%;font-family:Montserrat;-inkscape-font-specification:'Montserrat, Semi-Bold';text-align:start;letter-spacing:0px;word-spacing:0px;writing-mode:lr-tb;text-anchor:start;display:inline;fill:url(#radialGradient4955-5);fill-opacity:1;stroke:none;stroke-width:1px;stroke-linecap:butt;stroke-linejoin:miter;stroke-opacity:1"
           id="path4626-9" />
        <path
           id="path4626-7-9"
           d="m 553.39935,949.40292 c -8.17435,0 -15.10452,1.24262 -20.79102,3.73047 -5.59765,2.48784 -9.81886,5.86403 -12.66211,10.12891 -2.47812,3.75715 -3.83151,7.91461 -4.08007,12.46289 l 17.14648,0.86328 c -5.2e-4,-0.0444 -0.006,-0.0862 -0.006,-0.13086 0,-3.82062 1.64413,-6.88517 4.93164,-9.19531 3.37636,-2.31014 8.48655,-3.4668 15.32813,-3.4668 4.17602,0 8.48515,0.62327 12.92773,1.86719 4.44259,1.24392 8.70775,3.06585 12.79492,5.46484 l 5.46289,-13.46289 c -3.99832,-2.66555 -8.75096,-4.70728 -14.25976,-6.12891 -5.5088,-1.42162 -11.10646,-2.13281 -16.79297,-2.13281 z"
           style="font-style:normal;font-variant:normal;font-weight:600;font-stretch:normal;font-size:medium;line-height:125%;font-family:Montserrat;-inkscape-font-specification:'Montserrat, Semi-Bold';text-align:start;letter-spacing:0px;word-spacing:0px;writing-mode:lr-tb;text-anchor:start;display:inline;fill:url(#radialGradient4955-6-1);fill-opacity:1;stroke:none;stroke-width:1px;stroke-linecap:butt;stroke-linejoin:miter;stroke-opacity:1" />
        <path
           id="path4626-4-1"
           d="m 554.53021,956.41659 c -6.17897,0.0552 -12.51328,0.88575 -18.04492,3.4961 -4.17884,1.97196 -8.05278,5.15056 -10.46485,9.09179 -1.88509,3.08018 -3.00771,6.92685 -2.60547,10.51563 0.3231,2.88275 1.9349,5.65282 3.91211,7.77539 3.05721,3.28197 7.33151,5.38846 11.56055,6.88281 5.6483,1.99585 11.49149,3.41851 17.24023,4.29102 4.35923,0.66162 10.42989,2.68837 14.77539,5.21097 3.95383,2.2952 7.12838,5.8165 8.32422,10.9004 0.98978,4.2078 0.46922,9.0684 -1.58984,12.8691 -1.86565,3.4438 -5.46598,5.8475 -8.98047,7.5762 -4.35819,2.1437 -9.39163,2.8045 -14.24023,3.0879 -6.69574,0.3913 -13.60022,-0.027 -20.02735,-1.9453 -6.06768,-1.8106 -12.8931,-5.4002 -17.60156,-8.6758 l -2.97266,6.6738 c 3.90948,3.3764 9.19551,6.0873 15.85938,8.1309 6.75272,2.0435 13.7288,3.0644 20.92578,3.0644 8.17435,0 15.10452,-1.2446 20.79102,-3.7324 5.6865,-2.4879 9.90771,-5.8181 12.66211,-9.9941 2.84324,-4.1761 4.26367,-8.8408 4.26367,-13.9942 0,-6.0418 -1.59822,-10.8405 -4.79688,-14.3945 -3.1098,-3.5541 -6.8875,-6.17513 -11.33008,-7.86331 -4.44258,-1.77703 -10.12816,-3.46512 -17.05859,-5.06445 -5.06454,-1.24392 -9.06203,-2.35467 -11.99414,-3.33203 -2.9321,-0.97737 -5.3773,-2.30986 -7.33203,-3.99805 -1.86589,-1.68818 -2.79883,-3.8657 -2.79883,-6.53125 0,-3.82062 1.64413,-6.88517 4.93164,-9.19531 3.37636,-2.31014 8.48655,-3.4668 15.32813,-3.4668 4.17602,0 8.48515,0.62327 12.92773,1.86719 4.44259,1.24392 8.70775,3.06585 12.79492,5.46484 l 2.87696,-7.08984 c -2.63884,-1.51533 -5.63661,-3.04092 -8.22266,-4.01563 -5.25929,-1.98228 -10.85771,-3.4498 -16.47656,-3.58398 -0.87356,-0.0209 -1.75401,-0.0294 -2.63672,-0.0215 z"
           style="font-style:normal;font-variant:normal;font-weight:600;font-stretch:normal;font-size:medium;line-height:125%;font-family:Montserrat;-inkscape-font-specification:'Montserrat, Semi-Bold';text-align:start;letter-spacing:0px;word-spacing:0px;writing-mode:lr-tb;text-anchor:start;display:inline;fill:url(#radialGradient4963-2);fill-opacity:1;stroke:none;stroke-width:1px;stroke-linecap:butt;stroke-linejoin:miter;stroke-opacity:1" />
        <path
           id="path4626-4-8-4"
           d="m 579.69036,1019.6451 c -0.11071,2.7365 -0.7884,5.471 -2.05273,7.8047 -1.86565,3.4437 -5.46598,5.8475 -8.98047,7.5762 -4.35819,2.1437 -9.39163,2.8045 -14.24023,3.0879 -6.69574,0.3913 -13.60022,-0.028 -20.02735,-1.9453 -6.06768,-1.8106 -12.8931,-5.4002 -17.60156,-8.6758 l -2.97266,6.6738 c 3.90948,3.3764 9.19551,6.0873 15.85938,8.1309 6.75272,2.0435 13.7288,3.0644 20.92578,3.0644 8.17435,0 15.10452,-1.2446 20.79102,-3.7324 5.6865,-2.4879 9.90771,-5.8181 12.66211,-9.9941 2.18385,-3.2076 3.5212,-6.7061 4.02734,-10.4903 l -8.39063,-1.5 z"
           style="font-style:normal;font-variant:normal;font-weight:600;font-stretch:normal;font-size:medium;line-height:125%;font-family:Montserrat;-inkscape-font-specification:'Montserrat, Semi-Bold';text-align:start;letter-spacing:0px;word-spacing:0px;writing-mode:lr-tb;text-anchor:start;display:inline;fill:url(#radialGradient4963-5-3);fill-opacity:1;stroke:none;stroke-width:1px;stroke-linecap:butt;stroke-linejoin:miter;stroke-opacity:1" />
        <path
           id="path5693-9-4-9-2-9"
           d="m 578.99428,971.13055 5.45579,-13.46733 -11.18448,2.23876 z"
           style="display:inline;fill:url(#radialGradient6276-4-0-7-1);fill-opacity:1;fill-rule:evenodd;stroke:none;stroke-width:1px;stroke-linecap:butt;stroke-linejoin:miter;stroke-opacity:1" />
        <path
           id="path5693-9-4-9-2-0-1"
           d="m 519.81195,1020.7035 -5.98073,13.4519 10.96832,-1.9608 z"
           style="display:inline;fill:url(#radialGradient6276-4-0-7-9-2);fill-opacity:1;fill-rule:evenodd;stroke:none;stroke-width:1px;stroke-linecap:butt;stroke-linejoin:miter;stroke-opacity:1" />
      </g>
    </g>
  </g>
</svg>
