<?xml version="1.0" encoding="UTF-8" standalone="no"?>
<svg
   xmlns:dc="http://purl.org/dc/elements/1.1/"
   xmlns:cc="http://creativecommons.org/ns#"
   xmlns:rdf="http://www.w3.org/1999/02/22-rdf-syntax-ns#"
   xmlns:svg="http://www.w3.org/2000/svg"
   xmlns="http://www.w3.org/2000/svg"
   width="360"
   height="120"
   viewBox="0 0 95.249998 31.75002"
   version="1.1"
   id="svg5129">
  <defs
     id="defs5123" />
  <metadata
     id="metadata5126">
    <rdf:RDF>
      <cc:Work
         rdf:about="">
        <dc:format>image/svg+xml</dc:format>
        <dc:type
           rdf:resource="http://purl.org/dc/dcmitype/StillImage" />
        <dc:title></dc:title>
      </cc:Work>
    </rdf:RDF>
  </metadata>
  <g
     id="layer1">
    <rect
       style="fill:#0a141d;fill-opacity:1;stroke:none;stroke-width:0.264583;stroke-opacity:0.8"
       id="rect3224"
       width="31.75"
       height="13.229167"
       x="0"
       y="-2.8421709e-14" />
    <rect
       style="fill:#ffffff;fill-opacity:1;stroke:none;stroke-width:0.264583;stroke-opacity:0.8"
       id="rect3224-7"
       width="31.75"
       height="13.229167"
       x="31.749985"
       y="-2.8421709e-14" />
    <rect
       style="fill:#15afa5;fill-opacity:1;stroke:none;stroke-width:0.264583;stroke-opacity:0.8"
       id="rect3224-7-9"
       width="31.75"
       height="13.229167"
       x="63.499985"
       y="-2.8421709e-14" />
    <g
       aria-label="FH AACHEN"
       id="text5709"
       style="font-style:normal;font-variant:normal;font-weight:bold;font-stretch:normal;font-size:5.64444px;line-height:1.25;font-family:Roboto;-inkscape-font-specification:'Roboto, Bold';font-variant-ligatures:normal;font-variant-caps:normal;font-variant-numeric:normal;font-variant-east-asian:normal;fill:#ffffff;fill-opacity:1;stroke:none;stroke-width:0.14316">
      <path
         d="M 4.7955712,20.155191 H 3.2080724 v 1.639864 H 2.3812501 v -4.012844 h 2.6127584 v 0.669726 H 3.2080724 v 1.036284 h 1.5874988 z"
         style="font-style:normal;font-variant:normal;font-weight:bold;font-stretch:normal;font-size:5.64444px;font-family:Roboto;-inkscape-font-specification:'Roboto, Bold';font-variant-ligatures:normal;font-variant-caps:normal;font-variant-numeric:normal;font-variant-east-asian:normal;fill:#ffffff;fill-opacity:1;stroke-width:0.14316"
         id="path5733" />
      <path
         d="M 8.7450256,21.795055 H 7.9182033 v -1.71979 H 6.3058998 v 1.71979 H 5.4790775 v -4.012844 h 0.8268223 v 1.626084 h 1.6123035 v -1.626084 h 0.8268223 z"
         style="font-style:normal;font-variant:normal;font-weight:bold;font-stretch:normal;font-size:5.64444px;font-family:Roboto;-inkscape-font-specification:'Roboto, Bold';font-variant-ligatures:normal;font-variant-caps:normal;font-variant-numeric:normal;font-variant-east-asian:normal;fill:#ffffff;fill-opacity:1;stroke-width:0.14316"
         id="path5735" />
      <path
         d="m 13.146476,20.968233 h -1.449695 l -0.275607,0.826822 h -0.879188 l 1.493792,-4.012844 h 0.766189 l 1.50206,4.012844 H 13.42484 Z m -1.226453,-0.669726 h 1.003211 l -0.504361,-1.50206 z"
         style="font-style:normal;font-variant:normal;font-weight:bold;font-stretch:normal;font-size:5.64444px;font-family:Roboto;-inkscape-font-specification:'Roboto, Bold';font-variant-ligatures:normal;font-variant-caps:normal;font-variant-numeric:normal;font-variant-east-asian:normal;fill:#ffffff;fill-opacity:1;stroke-width:0.14316"
         id="path5737" />
      <path
         d="m 16.949859,20.968233 h -1.449695 l -0.275608,0.826822 h -0.879187 l 1.493792,-4.012844 h 0.766189 l 1.50206,4.012844 h -0.879187 z m -1.226453,-0.669726 h 1.003211 l -0.504362,-1.50206 z"
         style="font-style:normal;font-variant:normal;font-weight:bold;font-stretch:normal;font-size:5.64444px;font-family:Roboto;-inkscape-font-specification:'Roboto, Bold';font-variant-ligatures:normal;font-variant-caps:normal;font-variant-numeric:normal;font-variant-east-asian:normal;fill:#ffffff;fill-opacity:1;stroke-width:0.14316"
         id="path5739" />
      <path
         d="m 21.582819,20.458359 q -0.04685,0.647678 -0.479557,1.019748 -0.429947,0.37207 -1.135502,0.37207 -0.771701,0 -1.215429,-0.518142 -0.440972,-0.520898 -0.440972,-1.427647 v -0.24529 q 0,-0.578776 0.20395,-1.019748 0.203949,-0.440972 0.581531,-0.675238 0.380339,-0.237022 0.881944,-0.237022 0.694531,0 1.118966,0.37207 0.424436,0.37207 0.490582,1.044552 h -0.826823 q -0.03032,-0.388607 -0.21773,-0.562239 -0.184657,-0.176389 -0.564995,-0.176389 -0.413411,0 -0.620117,0.297656 -0.203949,0.2949 -0.209461,0.917773 v 0.303168 q 0,0.650433 0.195681,0.950846 0.198437,0.300412 0.622873,0.300412 0.383094,0 0.570507,-0.173633 0.190169,-0.176389 0.21773,-0.542947 z"
         style="font-style:normal;font-variant:normal;font-weight:bold;font-stretch:normal;font-size:5.64444px;font-family:Roboto;-inkscape-font-specification:'Roboto, Bold';font-variant-ligatures:normal;font-variant-caps:normal;font-variant-numeric:normal;font-variant-east-asian:normal;fill:#ffffff;fill-opacity:1;stroke-width:0.14316"
         id="path5741" />
      <path
         d="m 25.391715,21.795055 h -0.826823 v -1.71979 h -1.612303 v 1.71979 h -0.826823 v -4.012844 h 0.826823 v 1.626084 h 1.612303 v -1.626084 h 0.826823 z"
         style="font-style:normal;font-variant:normal;font-weight:bold;font-stretch:normal;font-size:5.64444px;font-family:Roboto;-inkscape-font-specification:'Roboto, Bold';font-variant-ligatures:normal;font-variant-caps:normal;font-variant-numeric:normal;font-variant-east-asian:normal;fill:#ffffff;fill-opacity:1;stroke-width:0.14316"
         id="path5743" />
      <path
         d="m 28.530883,20.055973 h -1.587499 v 1.074868 h 1.863106 v 0.664214 h -2.689928 v -4.012844 h 2.684416 v 0.669726 h -1.857594 v 0.956358 h 1.587499 z"
         style="font-style:normal;font-variant:normal;font-weight:bold;font-stretch:normal;font-size:5.64444px;font-family:Roboto;-inkscape-font-specification:'Roboto, Bold';font-variant-ligatures:normal;font-variant-caps:normal;font-variant-numeric:normal;font-variant-east-asian:normal;fill:#ffffff;fill-opacity:1;stroke-width:0.14316"
         id="path5745" />
      <path
         d="m 32.554751,21.795055 h -0.826822 l -1.609548,-2.640319 v 2.640319 h -0.826822 v -4.012844 h 0.826822 l 1.612304,2.645832 v -2.645832 h 0.824066 z"
         style="font-style:normal;font-variant:normal;font-weight:bold;font-stretch:normal;font-size:5.64444px;font-family:Roboto;-inkscape-font-specification:'Roboto, Bold';font-variant-ligatures:normal;font-variant-caps:normal;font-variant-numeric:normal;font-variant-east-asian:normal;fill:#ffffff;fill-opacity:1;stroke-width:0.14316"
         id="path5747" />
    </g>
    <g
       aria-label="UNIVERSITY OF APPLIED SCIENCES"
       id="text5713"
       style="font-style:normal;font-variant:normal;font-weight:normal;font-stretch:normal;font-size:5.64444px;line-height:1.25;font-family:Roboto;-inkscape-font-specification:'Roboto, Normal';font-variant-ligatures:normal;font-variant-caps:normal;font-variant-numeric:normal;font-variant-east-asian:normal;fill:#ffffff;fill-opacity:1;stroke:none;stroke-width:0.14316">
      <path
         d="m 5.2861521,24.132208 v 2.728513 q -0.00276,0.567752 -0.3582897,0.928797 -0.3527775,0.361046 -0.9591138,0.405143 l -0.1405598,0.0055 q -0.6587018,0 -1.0500643,-0.355533 -0.3913626,-0.355534 -0.3968747,-0.978407 v -2.734025 h 0.5236541 v 2.717489 q 0,0.43546 0.2397784,0.677994 0.2397785,0.239779 0.6835065,0.239779 0.4492401,0 0.6862625,-0.239779 0.2397784,-0.239778 0.2397784,-0.675238 v -2.720245 z"
         style="font-style:normal;font-variant:normal;font-weight:normal;font-stretch:normal;font-size:5.64444px;font-family:Roboto;-inkscape-font-specification:'Roboto, Normal';font-variant-ligatures:normal;font-variant-caps:normal;font-variant-numeric:normal;font-variant-east-asian:normal;fill:#ffffff;fill-opacity:1;stroke-width:0.14316"
         id="path5750" />
      <path
         d="M 9.2052897,28.145052 H 8.6733673 L 6.6531649,25.052737 v 3.092315 H 6.1212425 v -4.012844 h 0.5319224 l 2.0257146,3.106096 v -3.106096 h 0.5264102 z"
         style="font-style:normal;font-variant:normal;font-weight:normal;font-stretch:normal;font-size:5.64444px;font-family:Roboto;-inkscape-font-specification:'Roboto, Normal';font-variant-ligatures:normal;font-variant-caps:normal;font-variant-numeric:normal;font-variant-east-asian:normal;fill:#ffffff;fill-opacity:1;stroke-width:0.14316"
         id="path5752" />
      <path
         d="m 10.712862,28.145052 h -0.529166 v -4.012844 h 0.529166 z"
         style="font-style:normal;font-variant:normal;font-weight:normal;font-stretch:normal;font-size:5.64444px;font-family:Roboto;-inkscape-font-specification:'Roboto, Normal';font-variant-ligatures:normal;font-variant-caps:normal;font-variant-numeric:normal;font-variant-east-asian:normal;fill:#ffffff;fill-opacity:1;stroke-width:0.14316"
         id="path5754" />
      <path
         d="m 13.005916,27.442253 1.146527,-3.310045 h 0.578776 l -1.48828,4.012844 h -0.468533 l -1.485524,-4.012844 h 0.576019 z"
         style="font-style:normal;font-variant:normal;font-weight:normal;font-stretch:normal;font-size:5.64444px;font-family:Roboto;-inkscape-font-specification:'Roboto, Normal';font-variant-ligatures:normal;font-variant-caps:normal;font-variant-numeric:normal;font-variant-east-asian:normal;fill:#ffffff;fill-opacity:1;stroke-width:0.14316"
         id="path5756" />
      <path
         d="m 17.539658,26.290214 h -1.739083 v 1.422134 h 2.020203 v 0.432704 h -2.549369 v -4.012844 h 2.521808 v 0.43546 h -1.992642 v 1.289842 h 1.739083 z"
         style="font-style:normal;font-variant:normal;font-weight:normal;font-stretch:normal;font-size:5.64444px;font-family:Roboto;-inkscape-font-specification:'Roboto, Normal';font-variant-ligatures:normal;font-variant-caps:normal;font-variant-numeric:normal;font-variant-east-asian:normal;fill:#ffffff;fill-opacity:1;stroke-width:0.14316"
         id="path5758" />
      <path
         d="m 19.951224,26.521724 h -0.942577 v 1.623328 h -0.531922 v -4.012844 h 1.328427 q 0.677995,0 1.041797,0.30868 0.366557,0.30868 0.366557,0.89848 0,0.374826 -0.203949,0.65319 -0.201193,0.278363 -0.562239,0.416167 l 0.942577,1.703254 v 0.03307 h -0.567751 z m -0.942577,-0.432703 h 0.813042 q 0.394119,0 0.625629,-0.20395 0.234266,-0.203949 0.234266,-0.545703 0,-0.37207 -0.223242,-0.570507 -0.220486,-0.198437 -0.639409,-0.201193 h -0.810286 z"
         style="font-style:normal;font-variant:normal;font-weight:normal;font-stretch:normal;font-size:5.64444px;font-family:Roboto;-inkscape-font-specification:'Roboto, Normal';font-variant-ligatures:normal;font-variant-caps:normal;font-variant-numeric:normal;font-variant-east-asian:normal;fill:#ffffff;fill-opacity:1;stroke-width:0.14316"
         id="path5760" />
      <path
         d="m 23.134489,26.35636 q -0.68075,-0.195682 -0.992187,-0.479557 -0.30868,-0.286632 -0.30868,-0.705555 0,-0.474045 0.377582,-0.782725 0.380338,-0.311437 0.986675,-0.311437 0.413411,0 0.735872,0.159853 0.325216,0.159852 0.501605,0.440971 0.179145,0.28112 0.179145,0.614605 h -0.531922 q 0,-0.363802 -0.231511,-0.570507 -0.23151,-0.209462 -0.653189,-0.209462 -0.391363,0 -0.611849,0.173633 -0.21773,0.170876 -0.21773,0.476801 0,0.24529 0.206706,0.416167 0.209462,0.16812 0.708311,0.30868 0.501606,0.14056 0.782725,0.311436 0.283876,0.168121 0.418923,0.394119 0.137804,0.225998 0.137804,0.531922 0,0.487826 -0.380338,0.782726 -0.380338,0.292143 -1.016991,0.292143 -0.413412,0 -0.771701,-0.157096 -0.35829,-0.159852 -0.553971,-0.43546 -0.192925,-0.275607 -0.192925,-0.625628 h 0.531922 q 0,0.363801 0.267339,0.576019 0.270095,0.209462 0.719336,0.209462 0.418923,0 0.642165,-0.170877 0.223242,-0.170876 0.223242,-0.465776 0,-0.2949 -0.206706,-0.454753 -0.206705,-0.162608 -0.749652,-0.319704 z"
         style="font-style:normal;font-variant:normal;font-weight:normal;font-stretch:normal;font-size:5.64444px;font-family:Roboto;-inkscape-font-specification:'Roboto, Normal';font-variant-ligatures:normal;font-variant-caps:normal;font-variant-numeric:normal;font-variant-east-asian:normal;fill:#ffffff;fill-opacity:1;stroke-width:0.14316"
         id="path5762" />
      <path
         d="m 25.871272,28.145052 h -0.529167 v -4.012844 h 0.529167 z"
         style="font-style:normal;font-variant:normal;font-weight:normal;font-stretch:normal;font-size:5.64444px;font-family:Roboto;-inkscape-font-specification:'Roboto, Normal';font-variant-ligatures:normal;font-variant-caps:normal;font-variant-numeric:normal;font-variant-east-asian:normal;fill:#ffffff;fill-opacity:1;stroke-width:0.14316"
         id="path5764" />
      <path
         d="m 29.531337,24.567668 h -1.289843 v 3.577384 h -0.52641 v -3.577384 h -1.287087 v -0.43546 h 3.10334 z"
         style="font-style:normal;font-variant:normal;font-weight:normal;font-stretch:normal;font-size:5.64444px;font-family:Roboto;-inkscape-font-specification:'Roboto, Normal';font-variant-ligatures:normal;font-variant-caps:normal;font-variant-numeric:normal;font-variant-east-asian:normal;fill:#ffffff;fill-opacity:1;stroke-width:0.14316"
         id="path5766" />
      <path
         d="m 31.399957,26.146898 1.047308,-2.01469 h 0.600824 l -1.383549,2.516296 v 1.496548 h -0.529166 v -1.496548 l -1.383549,-2.516296 h 0.606336 z"
         style="font-style:normal;font-variant:normal;font-weight:normal;font-stretch:normal;font-size:5.64444px;font-family:Roboto;-inkscape-font-specification:'Roboto, Normal';font-variant-ligatures:normal;font-variant-caps:normal;font-variant-numeric:normal;font-variant-east-asian:normal;fill:#ffffff;fill-opacity:1;stroke-width:0.14316"
         id="path5768" />
      <path
         d="m 38.05863,26.268165 q 0,0.5898 -0.198438,1.030772 -0.198437,0.438216 -0.562239,0.669726 -0.363802,0.23151 -0.848871,0.23151 -0.474044,0 -0.840602,-0.23151 -0.366558,-0.234266 -0.570508,-0.664214 -0.201193,-0.432703 -0.206705,-1.000455 v -0.289387 q 0,-0.578776 0.201193,-1.022504 0.201194,-0.443728 0.567751,-0.677994 0.369314,-0.237023 0.843359,-0.237023 0.482313,0 0.848871,0.234267 0.369314,0.23151 0.567751,0.675238 0.198438,0.440972 0.198438,1.028016 z m -0.52641,-0.259071 q 0,-0.713823 -0.286632,-1.094161 -0.286632,-0.383094 -0.802018,-0.383094 -0.501605,0 -0.790993,0.383094 -0.286632,0.380338 -0.2949,1.058332 v 0.2949 q 0,0.691775 0.289388,1.08865 0.292144,0.394118 0.802017,0.394118 0.51263,0 0.79375,-0.37207 0.281119,-0.374826 0.289388,-1.072113 z"
         style="font-style:normal;font-variant:normal;font-weight:normal;font-stretch:normal;font-size:5.64444px;font-family:Roboto;-inkscape-font-specification:'Roboto, Normal';font-variant-ligatures:normal;font-variant-caps:normal;font-variant-numeric:normal;font-variant-east-asian:normal;fill:#ffffff;fill-opacity:1;stroke-width:0.14316"
         id="path5770" />
      <path
         d="m 41.065508,26.372896 h -1.683961 v 1.772156 h -0.529166 v -4.012844 h 2.485979 v 0.43546 h -1.956813 v 1.372525 h 1.683961 z"
         style="font-style:normal;font-variant:normal;font-weight:normal;font-stretch:normal;font-size:5.64444px;font-family:Roboto;-inkscape-font-specification:'Roboto, Normal';font-variant-ligatures:normal;font-variant-caps:normal;font-variant-numeric:normal;font-variant-east-asian:normal;fill:#ffffff;fill-opacity:1;stroke-width:0.14316"
         id="path5772" />
      <path
         d="m 45.588227,27.097744 h -1.681206 l -0.377582,1.047308 h -0.545702 l 1.532377,-4.012844 h 0.46302 l 1.535134,4.012844 h -0.542947 z m -1.521353,-0.43546 h 1.364257 l -0.683507,-1.876887 z"
         style="font-style:normal;font-variant:normal;font-weight:normal;font-stretch:normal;font-size:5.64444px;font-family:Roboto;-inkscape-font-specification:'Roboto, Normal';font-variant-ligatures:normal;font-variant-caps:normal;font-variant-numeric:normal;font-variant-east-asian:normal;fill:#ffffff;fill-opacity:1;stroke-width:0.14316"
         id="path5774" />
      <path
         d="m 47.583623,26.57409 v 1.570962 h -0.529166 v -4.012844 h 1.480012 q 0.658701,0 1.030771,0.336241 0.374827,0.336241 0.374827,0.890212 0,0.584288 -0.366558,0.901236 -0.363802,0.314193 -1.044553,0.314193 z m 0,-0.432704 h 0.950846 q 0.424435,0 0.650433,-0.198437 0.225998,-0.201194 0.225998,-0.578776 0,-0.35829 -0.225998,-0.573263 -0.225998,-0.214974 -0.620117,-0.223242 h -0.981162 z"
         style="font-style:normal;font-variant:normal;font-weight:normal;font-stretch:normal;font-size:5.64444px;font-family:Roboto;-inkscape-font-specification:'Roboto, Normal';font-variant-ligatures:normal;font-variant-caps:normal;font-variant-numeric:normal;font-variant-east-asian:normal;fill:#ffffff;fill-opacity:1;stroke-width:0.14316"
         id="path5776" />
      <path
         d="m 51.144471,26.57409 v 1.570962 h -0.529166 v -4.012844 h 1.480012 q 0.658702,0 1.030772,0.336241 0.374826,0.336241 0.374826,0.890212 0,0.584288 -0.366558,0.901236 -0.363802,0.314193 -1.044552,0.314193 z m 0,-0.432704 h 0.950846 q 0.424435,0 0.650433,-0.198437 0.225998,-0.201194 0.225998,-0.578776 0,-0.35829 -0.225998,-0.573263 -0.225998,-0.214974 -0.620116,-0.223242 h -0.981163 z"
         style="font-style:normal;font-variant:normal;font-weight:normal;font-stretch:normal;font-size:5.64444px;font-family:Roboto;-inkscape-font-specification:'Roboto, Normal';font-variant-ligatures:normal;font-variant-caps:normal;font-variant-numeric:normal;font-variant-east-asian:normal;fill:#ffffff;fill-opacity:1;stroke-width:0.14316"
         id="path5778" />
      <path
         d="m 54.708076,27.712348 h 1.901691 v 0.432704 h -2.433614 v -4.012844 h 0.531923 z"
         style="font-style:normal;font-variant:normal;font-weight:normal;font-stretch:normal;font-size:5.64444px;font-family:Roboto;-inkscape-font-specification:'Roboto, Normal';font-variant-ligatures:normal;font-variant-caps:normal;font-variant-numeric:normal;font-variant-east-asian:normal;fill:#ffffff;fill-opacity:1;stroke-width:0.14316"
         id="path5780" />
      <path
         d="M 57.78661,28.145052 H 57.257444 V 24.132208 H 57.78661 Z"
         style="font-style:normal;font-variant:normal;font-weight:normal;font-stretch:normal;font-size:5.64444px;font-family:Roboto;-inkscape-font-specification:'Roboto, Normal';font-variant-ligatures:normal;font-variant-caps:normal;font-variant-numeric:normal;font-variant-east-asian:normal;fill:#ffffff;fill-opacity:1;stroke-width:0.14316"
         id="path5782" />
      <path
         d="m 61.019487,26.290214 h -1.739083 v 1.422134 h 2.020203 v 0.432704 h -2.549369 v -4.012844 h 2.521808 v 0.43546 h -1.992642 v 1.289842 h 1.739083 z"
         style="font-style:normal;font-variant:normal;font-weight:normal;font-stretch:normal;font-size:5.64444px;font-family:Roboto;-inkscape-font-specification:'Roboto, Normal';font-variant-ligatures:normal;font-variant-caps:normal;font-variant-numeric:normal;font-variant-east-asian:normal;fill:#ffffff;fill-opacity:1;stroke-width:0.14316"
         id="path5784" />
      <path
         d="m 61.959307,28.145052 v -4.012844 h 1.132746 q 0.523654,0 0.926041,0.23151 0.402387,0.23151 0.620117,0.658702 0.220486,0.427191 0.223242,0.981162 v 0.256315 q 0,0.567751 -0.220486,0.994943 -0.21773,0.427191 -0.625629,0.655946 -0.405143,0.228754 -0.945333,0.234266 z m 0.529166,-3.577384 v 3.14468 H 63.0452 q 0.611848,0 0.950846,-0.380338 0.341753,-0.380338 0.341753,-1.083137 v -0.234266 q 0,-0.683507 -0.322461,-1.061089 -0.319704,-0.380338 -0.909504,-0.38585 z"
         style="font-style:normal;font-variant:normal;font-weight:normal;font-stretch:normal;font-size:5.64444px;font-family:Roboto;-inkscape-font-specification:'Roboto, Normal';font-variant-ligatures:normal;font-variant-caps:normal;font-variant-numeric:normal;font-variant-east-asian:normal;fill:#ffffff;fill-opacity:1;stroke-width:0.14316"
         id="path5786" />
      <path
         d="m 68.245911,26.35636 q -0.680751,-0.195682 -0.992187,-0.479557 -0.30868,-0.286632 -0.30868,-0.705555 0,-0.474045 0.377582,-0.782725 0.380338,-0.311437 0.986674,-0.311437 0.413411,0 0.735872,0.159853 0.325217,0.159852 0.501606,0.440971 0.179145,0.28112 0.179145,0.614605 H 69.194 q 0,-0.363802 -0.23151,-0.570507 -0.23151,-0.209462 -0.65319,-0.209462 -0.391362,0 -0.611848,0.173633 -0.21773,0.170876 -0.21773,0.476801 0,0.24529 0.206706,0.416167 0.209461,0.16812 0.708311,0.30868 0.501605,0.14056 0.782725,0.311436 0.283875,0.168121 0.418923,0.394119 0.137804,0.225998 0.137804,0.531922 0,0.487826 -0.380338,0.782726 -0.380339,0.292143 -1.016992,0.292143 -0.413411,0 -0.771701,-0.157096 -0.358289,-0.159852 -0.553971,-0.43546 -0.192925,-0.275607 -0.192925,-0.625628 h 0.531922 q 0,0.363801 0.26734,0.576019 0.270095,0.209462 0.719335,0.209462 0.418923,0 0.642165,-0.170877 0.223242,-0.170876 0.223242,-0.465776 0,-0.2949 -0.206705,-0.454753 -0.206706,-0.162608 -0.749652,-0.319704 z"
         style="font-style:normal;font-variant:normal;font-weight:normal;font-stretch:normal;font-size:5.64444px;font-family:Roboto;-inkscape-font-specification:'Roboto, Normal';font-variant-ligatures:normal;font-variant-caps:normal;font-variant-numeric:normal;font-variant-east-asian:normal;fill:#ffffff;fill-opacity:1;stroke-width:0.14316"
         id="path5788" />
      <path
         d="m 73.366697,26.871746 q -0.07441,0.636653 -0.471288,0.983918 -0.394119,0.344509 -1.050065,0.344509 -0.711067,0 -1.141014,-0.509873 -0.427192,-0.509874 -0.427192,-1.364257 v -0.38585 q 0,-0.559484 0.198437,-0.983919 0.201194,-0.424435 0.567752,-0.650434 0.366558,-0.228754 0.848871,-0.228754 0.639409,0 1.025259,0.35829 0.385851,0.355534 0.44924,0.986675 h -0.531922 q -0.0689,-0.479557 -0.300412,-0.694531 -0.228754,-0.214974 -0.642165,-0.214974 -0.507118,0 -0.796506,0.374826 -0.286632,0.374826 -0.286632,1.066601 v 0.388606 q 0,0.65319 0.272852,1.03904 0.272851,0.385851 0.763432,0.385851 0.440972,0 0.675239,-0.198438 0.237022,-0.201193 0.314192,-0.697286 z"
         style="font-style:normal;font-variant:normal;font-weight:normal;font-stretch:normal;font-size:5.64444px;font-family:Roboto;-inkscape-font-specification:'Roboto, Normal';font-variant-ligatures:normal;font-variant-caps:normal;font-variant-numeric:normal;font-variant-east-asian:normal;fill:#ffffff;fill-opacity:1;stroke-width:0.14316"
         id="path5790" />
      <path
         d="M 74.65379,28.145052 H 74.124624 V 24.132208 H 74.65379 Z"
         style="font-style:normal;font-variant:normal;font-weight:normal;font-stretch:normal;font-size:5.64444px;font-family:Roboto;-inkscape-font-specification:'Roboto, Normal';font-variant-ligatures:normal;font-variant-caps:normal;font-variant-numeric:normal;font-variant-east-asian:normal;fill:#ffffff;fill-opacity:1;stroke-width:0.14316"
         id="path5792" />
      <path
         d="m 77.886659,26.290214 h -1.739083 v 1.422134 h 2.020203 v 0.432704 H 75.61841 v -4.012844 h 2.521808 v 0.43546 h -1.992642 v 1.289842 h 1.739083 z"
         style="font-style:normal;font-variant:normal;font-weight:normal;font-stretch:normal;font-size:5.64444px;font-family:Roboto;-inkscape-font-specification:'Roboto, Normal';font-variant-ligatures:normal;font-variant-caps:normal;font-variant-numeric:normal;font-variant-east-asian:normal;fill:#ffffff;fill-opacity:1;stroke-width:0.14316"
         id="path5794" />
      <path
         d="m 81.910534,28.145052 h -0.531923 l -2.020202,-3.092315 v 3.092315 h -0.531922 v -4.012844 h 0.531922 l 2.025715,3.106096 v -3.106096 h 0.52641 z"
         style="font-style:normal;font-variant:normal;font-weight:normal;font-stretch:normal;font-size:5.64444px;font-family:Roboto;-inkscape-font-specification:'Roboto, Normal';font-variant-ligatures:normal;font-variant-caps:normal;font-variant-numeric:normal;font-variant-east-asian:normal;fill:#ffffff;fill-opacity:1;stroke-width:0.14316"
         id="path5796" />
      <path
         d="m 85.802107,26.871746 q -0.07441,0.636653 -0.471289,0.983918 -0.394118,0.344509 -1.050064,0.344509 -0.711067,0 -1.141015,-0.509873 -0.427191,-0.509874 -0.427191,-1.364257 v -0.38585 q 0,-0.559484 0.198437,-0.983919 0.201193,-0.424435 0.567751,-0.650434 0.366558,-0.228754 0.848871,-0.228754 0.639409,0 1.02526,0.35829 0.38585,0.355534 0.44924,0.986675 h -0.531922 q -0.0689,-0.479557 -0.300413,-0.694531 -0.228754,-0.214974 -0.642165,-0.214974 -0.507118,0 -0.796505,0.374826 -0.286632,0.374826 -0.286632,1.066601 v 0.388606 q 0,0.65319 0.272851,1.03904 0.272852,0.385851 0.763433,0.385851 0.440972,0 0.675238,-0.198438 0.237022,-0.201193 0.314193,-0.697286 z"
         style="font-style:normal;font-variant:normal;font-weight:normal;font-stretch:normal;font-size:5.64444px;font-family:Roboto;-inkscape-font-specification:'Roboto, Normal';font-variant-ligatures:normal;font-variant-caps:normal;font-variant-numeric:normal;font-variant-east-asian:normal;fill:#ffffff;fill-opacity:1;stroke-width:0.14316"
         id="path5798" />
      <path
         d="m 88.78969,26.290214 h -1.739083 v 1.422134 h 2.020202 v 0.432704 h -2.549368 v -4.012844 h 2.521807 v 0.43546 h -1.992641 v 1.289842 h 1.739083 z"
         style="font-style:normal;font-variant:normal;font-weight:normal;font-stretch:normal;font-size:5.64444px;font-family:Roboto;-inkscape-font-specification:'Roboto, Normal';font-variant-ligatures:normal;font-variant-caps:normal;font-variant-numeric:normal;font-variant-east-asian:normal;fill:#ffffff;fill-opacity:1;stroke-width:0.14316"
         id="path5800" />
      <path
         d="m 90.911865,26.35636 q -0.68075,-0.195682 -0.992187,-0.479557 -0.30868,-0.286632 -0.30868,-0.705555 0,-0.474045 0.377582,-0.782725 0.380339,-0.311437 0.986675,-0.311437 0.413411,0 0.735872,0.159853 0.325217,0.159852 0.501605,0.440971 0.179145,0.28112 0.179145,0.614605 h -0.531922 q 0,-0.363802 -0.23151,-0.570507 -0.231511,-0.209462 -0.65319,-0.209462 -0.391363,0 -0.611849,0.173633 -0.217729,0.170876 -0.217729,0.476801 0,0.24529 0.206705,0.416167 0.209462,0.16812 0.708311,0.30868 0.501606,0.14056 0.782725,0.311436 0.283876,0.168121 0.418924,0.394119 0.137803,0.225998 0.137803,0.531922 0,0.487826 -0.380338,0.782726 -0.380338,0.292143 -1.016991,0.292143 -0.413411,0 -0.771701,-0.157096 -0.35829,-0.159852 -0.553971,-0.43546 -0.192925,-0.275607 -0.192925,-0.625628 h 0.531922 q 0,0.363801 0.267339,0.576019 0.270096,0.209462 0.719336,0.209462 0.418923,0 0.642165,-0.170877 0.223242,-0.170876 0.223242,-0.465776 0,-0.2949 -0.206706,-0.454753 -0.206705,-0.162608 -0.749652,-0.319704 z"
         style="font-style:normal;font-variant:normal;font-weight:normal;font-stretch:normal;font-size:5.64444px;font-family:Roboto;-inkscape-font-specification:'Roboto, Normal';font-variant-ligatures:normal;font-variant-caps:normal;font-variant-numeric:normal;font-variant-east-asian:normal;fill:#ffffff;fill-opacity:1;stroke-width:0.14316"
         id="path5802" />
    </g>
  </g>
</svg>
