<?xml version="1.0" encoding="UTF-8" standalone="no"?>
<svg
   xmlns:dc="http://purl.org/dc/elements/1.1/"
   xmlns:cc="http://creativecommons.org/ns#"
   xmlns:rdf="http://www.w3.org/1999/02/22-rdf-syntax-ns#"
   xmlns:svg="http://www.w3.org/2000/svg"
   xmlns="http://www.w3.org/2000/svg"
   width="197"
   height="148"
   viewBox="0 0 197 148"
   id="svg2"
   version="1.1">
  <defs
     id="defs4" />
  <metadata
     id="metadata7">
    <rdf:RDF>
      <cc:Work
         rdf:about="">
        <dc:format>image/svg+xml</dc:format>
        <dc:type
           rdf:resource="http://purl.org/dc/dcmitype/StillImage" />
        <dc:title></dc:title>
      </cc:Work>
    </rdf:RDF>
  </metadata>
  <g
     id="layer1"
     transform="translate(0,-940.36212)"
     style="display:inline">
    <rect
       style="fill:none;stroke:#c39d5f;stroke-width:2;stroke-miterlimit:4;stroke-dasharray:none;stroke-opacity:1;paint-order:markers stroke fill"
       id="rect1953"
       width="43"
       height="43"
       x="5"
       y="993.36212"
       rx="7"
       ry="7" />
    <rect
       style="display:inline;fill:none;stroke:#c39d5f;stroke-width:1;stroke-miterlimit:4;stroke-dasharray:none;stroke-opacity:1;paint-order:markers stroke fill"
       id="rect1953-3"
       width="32"
       height="32"
       x="10.5"
       y="996.86212"
       rx="5"
       ry="5" />
    <path
       style="fill:none;stroke:#c39d5f;stroke-width:1px;stroke-linecap:butt;stroke-linejoin:miter;stroke-opacity:1"
       d="m 12,1027.3621 -6,7"
       id="path2006" />
    <path
       style="display:inline;fill:none;stroke:#c39d5f;stroke-width:1px;stroke-linecap:butt;stroke-linejoin:miter;stroke-opacity:1"
       d="m 41,1027.3621 6,7"
       id="path2006-6" />
    <path
       style="display:inline;fill:none;stroke:#c39d5f;stroke-width:1px;stroke-linecap:butt;stroke-linejoin:miter;stroke-opacity:1"
       d="m 41,998.36208 5,-4"
       id="path2006-6-7" />
    <path
       style="display:inline;fill:none;stroke:#c39d5f;stroke-width:1px;stroke-linecap:butt;stroke-linejoin:miter;stroke-opacity:1"
       d="m 12,998.36208 -5,-4"
       id="path2006-6-7-5" />
    <path
       d="m 27.50947,1020.3787 -4.19757,-6.015 11.1881,-0.073 -0.0309,-2.8205 -11.199,-0.066 4.2393,-6.0361 -3.27129,-0.033 -5.73811,7.5383 5.71526,7.5157 z"
       id="path2819"
       style="fill:#c39d5f;fill-opacity:1;stroke-width:0.0417635" />
    <rect
       style="fill:none;stroke:#a17b3d;stroke-width:1;stroke-miterlimit:4;stroke-dasharray:none;stroke-opacity:1;paint-order:markers stroke fill"
       id="rect1953-5"
       width="43"
       height="43"
       x="5"
       y="1040.3621"
       rx="7"
       ry="7" />
    <rect
       style="display:inline;fill:none;stroke:#c39d5f;stroke-width:0.868706;stroke-miterlimit:4;stroke-dasharray:none;stroke-opacity:1;paint-order:markers stroke fill"
       id="rect1953-3-6"
       width="27.79859"
       height="27.79859"
       x="12.600708"
       y="1046.2253"
       rx="4.3435297"
       ry="4.3435297" />
    <path
       style="fill:none;stroke:#c39d5f;stroke-width:0.868706px;stroke-linecap:butt;stroke-linejoin:miter;stroke-opacity:1"
       d="m 13.90376,1072.7209 -5.21223,6.081"
       id="path2006-2" />
    <path
       style="display:inline;fill:none;stroke:#c39d5f;stroke-width:0.868706px;stroke-linecap:butt;stroke-linejoin:miter;stroke-opacity:1"
       d="m 39.09624,1072.7209 5.21223,6.081"
       id="path2006-6-9" />
    <path
       style="display:inline;fill:none;stroke:#c39d5f;stroke-width:0.868706px;stroke-linecap:butt;stroke-linejoin:miter;stroke-opacity:1"
       d="m 39.09624,1047.5284 4.34353,-3.4748"
       id="path2006-6-7-1" />
    <path
       style="display:inline;fill:none;stroke:#c39d5f;stroke-width:0.868706px;stroke-linecap:butt;stroke-linejoin:miter;stroke-opacity:1"
       d="m 13.90376,1047.5284 -4.34353,-3.4748"
       id="path2006-6-7-5-2" />
    <path
       d="m 27.37693,1066.6544 -3.64645,-5.2253 9.71917,-0.063 -0.0268,-2.4502 -9.72863,-0.057 3.6827,-5.2435 -2.84179,-0.029 -4.98473,6.5485 4.96488,6.529 z"
       id="path2819-7"
       style="display:inline;fill:#c39d5f;fill-opacity:1;stroke-width:0.0362802" />
    <rect
       style="display:inline;fill:none;stroke:#c39d5f;stroke-width:1.737;stroke-miterlimit:4;stroke-dasharray:none;stroke-opacity:1;paint-order:markers stroke fill"
       id="rect1953-5-0"
       width="37.354355"
       height="37.354355"
       x="7.8228302"
       y="1043.1849"
       rx="6.0809412"
       ry="6.0809412" />
    <rect
       style="display:inline;fill:none;stroke:#636363;stroke-width:2;stroke-miterlimit:4;stroke-dasharray:none;stroke-opacity:1;paint-order:markers stroke fill"
       id="rect1953-9"
       width="43"
       height="43"
       x="5"
       y="945.36212"
       rx="7"
       ry="7" />
    <rect
       style="display:inline;fill:none;stroke:#636363;stroke-width:1;stroke-miterlimit:4;stroke-dasharray:none;stroke-opacity:1;paint-order:markers stroke fill"
       id="rect1953-3-3"
       width="32"
       height="32"
       x="10.5"
       y="948.86212"
       rx="5"
       ry="5" />
    <path
       style="display:inline;fill:none;stroke:#636363;stroke-width:1px;stroke-linecap:butt;stroke-linejoin:miter;stroke-opacity:1"
       d="m 12,979.36207 -6,7"
       id="path2006-60" />
    <path
       style="display:inline;fill:none;stroke:#636363;stroke-width:1px;stroke-linecap:butt;stroke-linejoin:miter;stroke-opacity:1"
       d="m 41,979.36207 6,7"
       id="path2006-6-6" />
    <path
       style="display:inline;fill:none;stroke:#636363;stroke-width:1px;stroke-linecap:butt;stroke-linejoin:miter;stroke-opacity:1"
       d="m 41,950.36207 5,-4"
       id="path2006-6-7-2" />
    <path
       style="display:inline;fill:none;stroke:#636363;stroke-width:1px;stroke-linecap:butt;stroke-linejoin:miter;stroke-opacity:1"
       d="m 12,950.36207 -5,-4"
       id="path2006-6-7-5-6" />
    <path
       d="m 27.50947,972.37868 -4.19757,-6.01505 11.1881,-0.0731 -0.0309,-2.8205 -11.199,-0.0659 4.2393,-6.03605 -3.27129,-0.033 -5.73811,7.53826 5.71526,7.51575 z"
       id="path2819-1"
       style="display:inline;fill:#636363;fill-opacity:1;stroke-width:0.0417635" />
    <rect
       style="display:inline;fill:none;stroke:#c39d5f;stroke-width:2;stroke-miterlimit:4;stroke-dasharray:none;stroke-opacity:1;paint-order:markers stroke fill"
       id="rect1953-8"
       width="43"
       height="43"
       x="53"
       y="993.36218"
       rx="7"
       ry="7" />
    <rect
       style="display:inline;fill:none;stroke:#c39d5f;stroke-width:1;stroke-miterlimit:4;stroke-dasharray:none;stroke-opacity:1;paint-order:markers stroke fill"
       id="rect1953-3-7"
       width="32"
       height="32"
       x="58.5"
       y="996.86218"
       rx="5"
       ry="5" />
    <path
       style="display:inline;fill:none;stroke:#c39d5f;stroke-width:1px;stroke-linecap:butt;stroke-linejoin:miter;stroke-opacity:1"
       d="m 60,1027.3621 -6,7"
       id="path2006-9" />
    <path
       style="display:inline;fill:none;stroke:#c39d5f;stroke-width:1px;stroke-linecap:butt;stroke-linejoin:miter;stroke-opacity:1"
       d="m 89,1027.3621 6,7"
       id="path2006-6-2" />
    <path
       style="display:inline;fill:none;stroke:#c39d5f;stroke-width:1px;stroke-linecap:butt;stroke-linejoin:miter;stroke-opacity:1"
       d="m 89,998.36213 5,-4"
       id="path2006-6-7-0" />
    <path
       style="display:inline;fill:none;stroke:#c39d5f;stroke-width:1px;stroke-linecap:butt;stroke-linejoin:miter;stroke-opacity:1"
       d="m 60,998.36213 -5,-4"
       id="path2006-6-7-5-23" />
    <path
       d="m 82.0166,1011.8527 -6.015,4.1975 -0.073,-11.1881 -2.8205,0.031 -0.066,11.199 -6.0361,-4.2393 -0.033,3.2713 7.5383,5.7381 7.5157,-5.7152 z"
       id="path2819-75"
       style="display:inline;fill:#c39d5f;fill-opacity:1;stroke-width:0.0417635" />
    <rect
       style="display:inline;fill:none;stroke:#a17b3d;stroke-width:1;stroke-miterlimit:4;stroke-dasharray:none;stroke-opacity:1;paint-order:markers stroke fill"
       id="rect1953-5-9"
       width="43"
       height="43"
       x="53"
       y="1040.3621"
       rx="7"
       ry="7" />
    <rect
       style="display:inline;fill:none;stroke:#c39d5f;stroke-width:0.868706;stroke-miterlimit:4;stroke-dasharray:none;stroke-opacity:1;paint-order:markers stroke fill"
       id="rect1953-3-6-2"
       width="27.79859"
       height="27.79859"
       x="60.600708"
       y="1046.2253"
       rx="4.3435297"
       ry="4.3435297" />
    <path
       style="display:inline;fill:none;stroke:#c39d5f;stroke-width:0.868706px;stroke-linecap:butt;stroke-linejoin:miter;stroke-opacity:1"
       d="m 61.90376,1072.7209 -5.21223,6.081"
       id="path2006-2-2" />
    <path
       style="display:inline;fill:none;stroke:#c39d5f;stroke-width:0.868706px;stroke-linecap:butt;stroke-linejoin:miter;stroke-opacity:1"
       d="m 87.09624,1072.7209 5.21223,6.081"
       id="path2006-6-9-8" />
    <path
       style="display:inline;fill:none;stroke:#c39d5f;stroke-width:0.868706px;stroke-linecap:butt;stroke-linejoin:miter;stroke-opacity:1"
       d="m 87.09624,1047.5285 4.34353,-3.4749"
       id="path2006-6-7-1-9" />
    <path
       style="display:inline;fill:none;stroke:#c39d5f;stroke-width:0.868706px;stroke-linecap:butt;stroke-linejoin:miter;stroke-opacity:1"
       d="m 61.90376,1047.5285 -4.34353,-3.4749"
       id="path2006-6-7-5-2-7" />
    <path
       d="m 81.02928,1059.2483 -5.2253,3.6464 -0.063,-9.7191 -2.4502,0.027 -0.057,9.7286 -5.2435,-3.6827 -0.029,2.8418 6.5485,4.9847 6.529,-4.9649 z"
       id="path2819-7-3"
       style="display:inline;fill:#c39d5f;fill-opacity:1;stroke-width:0.0362802" />
    <rect
       style="display:inline;fill:none;stroke:#c39d5f;stroke-width:1.737;stroke-miterlimit:4;stroke-dasharray:none;stroke-opacity:1;paint-order:markers stroke fill"
       id="rect1953-5-0-6"
       width="37.354355"
       height="37.354355"
       x="55.82283"
       y="1043.1849"
       rx="6.0809412"
       ry="6.0809412" />
    <rect
       style="display:inline;fill:none;stroke:#636363;stroke-width:2;stroke-miterlimit:4;stroke-dasharray:none;stroke-opacity:1;paint-order:markers stroke fill"
       id="rect1953-9-1"
       width="43"
       height="43"
       x="53"
       y="945.36218"
       rx="7"
       ry="7" />
    <rect
       style="display:inline;fill:none;stroke:#636363;stroke-width:1;stroke-miterlimit:4;stroke-dasharray:none;stroke-opacity:1;paint-order:markers stroke fill"
       id="rect1953-3-3-2"
       width="32"
       height="32"
       x="58.5"
       y="948.86218"
       rx="5"
       ry="5" />
    <path
       style="display:inline;fill:none;stroke:#636363;stroke-width:1px;stroke-linecap:butt;stroke-linejoin:miter;stroke-opacity:1"
       d="m 60,979.36212 -6,7"
       id="path2006-60-9" />
    <path
       style="display:inline;fill:none;stroke:#636363;stroke-width:1px;stroke-linecap:butt;stroke-linejoin:miter;stroke-opacity:1"
       d="m 89,979.36212 6,7"
       id="path2006-6-6-3" />
    <path
       style="display:inline;fill:none;stroke:#636363;stroke-width:1px;stroke-linecap:butt;stroke-linejoin:miter;stroke-opacity:1"
       d="m 89,950.36212 5,-4"
       id="path2006-6-7-2-1" />
    <path
       style="display:inline;fill:none;stroke:#636363;stroke-width:1px;stroke-linecap:butt;stroke-linejoin:miter;stroke-opacity:1"
       d="m 60,950.36212 -5,-4"
       id="path2006-6-7-5-6-9" />
    <path
       d="m 82.0166,963.85267 -6.01505,4.19756 -0.0731,-11.1881 -2.8205,0.0309 -0.0659,11.199 -6.03606,-4.2393 -0.033,3.27129 7.53826,5.73811 7.51576,-5.71526 z"
       id="path2819-1-4"
       style="display:inline;fill:#636363;fill-opacity:1;stroke-width:0.0417635" />
    <rect
       style="display:inline;fill:none;stroke:#c39d5f;stroke-width:2;stroke-miterlimit:4;stroke-dasharray:none;stroke-opacity:1;paint-order:markers stroke fill"
       id="rect1953-7"
       width="43"
       height="43"
       x="101"
       y="993.36218"
       rx="7"
       ry="7" />
    <rect
       style="display:inline;fill:none;stroke:#c39d5f;stroke-width:1;stroke-miterlimit:4;stroke-dasharray:none;stroke-opacity:1;paint-order:markers stroke fill"
       id="rect1953-3-8"
       width="32"
       height="32"
       x="106.5"
       y="996.86218"
       rx="5"
       ry="5" />
    <path
       style="display:inline;fill:none;stroke:#c39d5f;stroke-width:1px;stroke-linecap:butt;stroke-linejoin:miter;stroke-opacity:1"
       d="m 108,1027.3621 -6,7"
       id="path2006-4" />
    <path
       style="display:inline;fill:none;stroke:#c39d5f;stroke-width:1px;stroke-linecap:butt;stroke-linejoin:miter;stroke-opacity:1"
       d="m 137,1027.3621 6,7"
       id="path2006-6-5" />
    <path
       style="display:inline;fill:none;stroke:#c39d5f;stroke-width:1px;stroke-linecap:butt;stroke-linejoin:miter;stroke-opacity:1"
       d="m 137,998.36213 5,-4"
       id="path2006-6-7-03" />
    <path
       style="display:inline;fill:none;stroke:#c39d5f;stroke-width:1px;stroke-linecap:butt;stroke-linejoin:miter;stroke-opacity:1"
       d="m 108,998.36213 -5,-4"
       id="path2006-6-7-5-61" />
    <path
       d="m 121.49053,1020.3787 4.19757,-6.015 -11.1881,-0.073 0.0309,-2.8205 11.199,-0.066 -4.2393,-6.0361 3.27129,-0.033 5.73811,7.5383 -5.71526,7.5157 z"
       id="path2819-0"
       style="display:inline;fill:#c39d5f;fill-opacity:1;stroke-width:0.0417635" />
    <rect
       style="display:inline;fill:none;stroke:#a17b3d;stroke-width:1;stroke-miterlimit:4;stroke-dasharray:none;stroke-opacity:1;paint-order:markers stroke fill"
       id="rect1953-5-6"
       width="43"
       height="43"
       x="101"
       y="1040.3621"
       rx="7"
       ry="7" />
    <rect
       style="display:inline;fill:none;stroke:#c39d5f;stroke-width:0.868706;stroke-miterlimit:4;stroke-dasharray:none;stroke-opacity:1;paint-order:markers stroke fill"
       id="rect1953-3-6-3"
       width="27.79859"
       height="27.79859"
       x="108.60071"
       y="1046.2253"
       rx="4.3435297"
       ry="4.3435297" />
    <path
       style="display:inline;fill:none;stroke:#c39d5f;stroke-width:0.868706px;stroke-linecap:butt;stroke-linejoin:miter;stroke-opacity:1"
       d="m 109.90376,1072.7209 -5.21223,6.081"
       id="path2006-2-20" />
    <path
       style="display:inline;fill:none;stroke:#c39d5f;stroke-width:0.868706px;stroke-linecap:butt;stroke-linejoin:miter;stroke-opacity:1"
       d="m 135.09624,1072.7209 5.21223,6.081"
       id="path2006-6-9-6" />
    <path
       style="display:inline;fill:none;stroke:#c39d5f;stroke-width:0.868706px;stroke-linecap:butt;stroke-linejoin:miter;stroke-opacity:1"
       d="m 135.09624,1047.5285 4.34353,-3.4749"
       id="path2006-6-7-1-1" />
    <path
       style="display:inline;fill:none;stroke:#c39d5f;stroke-width:0.868706px;stroke-linecap:butt;stroke-linejoin:miter;stroke-opacity:1"
       d="m 109.90376,1047.5285 -4.34353,-3.4749"
       id="path2006-6-7-5-2-5" />
    <path
       d="m 121.62307,1066.6544 3.64645,-5.2253 -9.71917,-0.063 0.0268,-2.4502 9.72863,-0.057 -3.6827,-5.2435 2.84179,-0.029 4.98473,6.5485 -4.96488,6.529 z"
       id="path2819-7-5"
       style="display:inline;fill:#c39d5f;fill-opacity:1;stroke-width:0.0362802" />
    <rect
       style="display:inline;fill:none;stroke:#c39d5f;stroke-width:1.737;stroke-miterlimit:4;stroke-dasharray:none;stroke-opacity:1;paint-order:markers stroke fill"
       id="rect1953-5-0-4"
       width="37.354355"
       height="37.354355"
       x="103.82281"
       y="1043.1849"
       rx="6.0809412"
       ry="6.0809412" />
    <rect
       style="display:inline;fill:none;stroke:#636363;stroke-width:2;stroke-miterlimit:4;stroke-dasharray:none;stroke-opacity:1;paint-order:markers stroke fill"
       id="rect1953-9-7"
       width="43"
       height="43"
       x="101"
       y="945.36218"
       rx="7"
       ry="7" />
    <rect
       style="display:inline;fill:none;stroke:#636363;stroke-width:1;stroke-miterlimit:4;stroke-dasharray:none;stroke-opacity:1;paint-order:markers stroke fill"
       id="rect1953-3-3-6"
       width="32"
       height="32"
       x="106.5"
       y="948.86218"
       rx="5"
       ry="5" />
    <path
       style="display:inline;fill:none;stroke:#636363;stroke-width:1px;stroke-linecap:butt;stroke-linejoin:miter;stroke-opacity:1"
       d="m 108,979.36212 -6,7"
       id="path2006-60-5" />
    <path
       style="display:inline;fill:none;stroke:#636363;stroke-width:1px;stroke-linecap:butt;stroke-linejoin:miter;stroke-opacity:1"
       d="m 137,979.36212 6,7"
       id="path2006-6-6-6" />
    <path
       style="display:inline;fill:none;stroke:#636363;stroke-width:1px;stroke-linecap:butt;stroke-linejoin:miter;stroke-opacity:1"
       d="m 137,950.36212 5,-4"
       id="path2006-6-7-2-9" />
    <path
       style="display:inline;fill:none;stroke:#636363;stroke-width:1px;stroke-linecap:butt;stroke-linejoin:miter;stroke-opacity:1"
       d="m 108,950.36212 -5,-4"
       id="path2006-6-7-5-6-3" />
    <path
       d="m 121.49053,972.37873 4.19757,-6.01505 -11.1881,-0.0731 0.0309,-2.8205 11.199,-0.0659 -4.2393,-6.03605 3.27129,-0.033 5.73811,7.53826 -5.71526,7.51575 z"
       id="path2819-1-7"
       style="display:inline;fill:#636363;fill-opacity:1;stroke-width:0.0417635" />
    <rect
       style="display:inline;fill:none;stroke:#c39d5f;stroke-width:2;stroke-miterlimit:4;stroke-dasharray:none;stroke-opacity:1;paint-order:markers stroke fill"
       id="rect1953-8-4"
       width="43"
       height="43"
       x="149"
       y="993.36224"
       rx="7"
       ry="7" />
    <rect
       style="display:inline;fill:none;stroke:#c39d5f;stroke-width:1;stroke-miterlimit:4;stroke-dasharray:none;stroke-opacity:1;paint-order:markers stroke fill"
       id="rect1953-3-7-5"
       width="32"
       height="32"
       x="154.5"
       y="996.86224"
       rx="5"
       ry="5" />
    <path
       style="display:inline;fill:none;stroke:#c39d5f;stroke-width:1px;stroke-linecap:butt;stroke-linejoin:miter;stroke-opacity:1"
       d="m 156,1027.3621 -6,7"
       id="path2006-9-2" />
    <path
       style="display:inline;fill:none;stroke:#c39d5f;stroke-width:1px;stroke-linecap:butt;stroke-linejoin:miter;stroke-opacity:1"
       d="m 185,1027.3621 6,7"
       id="path2006-6-2-5" />
    <path
       style="display:inline;fill:none;stroke:#c39d5f;stroke-width:1px;stroke-linecap:butt;stroke-linejoin:miter;stroke-opacity:1"
       d="m 185,998.36218 5,-4"
       id="path2006-6-7-0-4" />
    <path
       style="display:inline;fill:none;stroke:#c39d5f;stroke-width:1px;stroke-linecap:butt;stroke-linejoin:miter;stroke-opacity:1"
       d="m 156,998.36218 -5,-4"
       id="path2006-6-7-5-23-7" />
    <path
       d="m 162.9834,1013.8716 6.015,-4.1976 0.073,11.1881 2.8205,-0.031 0.066,-11.199 6.0361,4.2393 0.033,-3.2712 -7.5383,-5.7382 -7.5157,5.7153 z"
       id="path2819-75-4"
       style="display:inline;fill:#c39d5f;fill-opacity:1;stroke-width:0.0417635" />
    <rect
       style="display:inline;fill:none;stroke:#a17b3d;stroke-width:1;stroke-miterlimit:4;stroke-dasharray:none;stroke-opacity:1;paint-order:markers stroke fill"
       id="rect1953-5-9-4"
       width="43"
       height="43"
       x="149"
       y="1040.3621"
       rx="7"
       ry="7" />
    <rect
       style="display:inline;fill:none;stroke:#c39d5f;stroke-width:0.868706;stroke-miterlimit:4;stroke-dasharray:none;stroke-opacity:1;paint-order:markers stroke fill"
       id="rect1953-3-6-2-3"
       width="27.79859"
       height="27.79859"
       x="156.60071"
       y="1046.2253"
       rx="4.3435297"
       ry="4.3435297" />
    <path
       style="display:inline;fill:none;stroke:#c39d5f;stroke-width:0.868706px;stroke-linecap:butt;stroke-linejoin:miter;stroke-opacity:1"
       d="m 157.90376,1072.721 -5.21223,6.081"
       id="path2006-2-2-0" />
    <path
       style="display:inline;fill:none;stroke:#c39d5f;stroke-width:0.868706px;stroke-linecap:butt;stroke-linejoin:miter;stroke-opacity:1"
       d="m 183.09624,1072.721 5.21223,6.081"
       id="path2006-6-9-8-7" />
    <path
       style="display:inline;fill:none;stroke:#c39d5f;stroke-width:0.868706px;stroke-linecap:butt;stroke-linejoin:miter;stroke-opacity:1"
       d="m 183.09624,1047.5286 4.34353,-3.475"
       id="path2006-6-7-1-9-8" />
    <path
       style="display:inline;fill:none;stroke:#c39d5f;stroke-width:0.868706px;stroke-linecap:butt;stroke-linejoin:miter;stroke-opacity:1"
       d="m 157.90376,1047.5286 -4.34353,-3.475"
       id="path2006-6-7-5-2-7-6" />
    <path
       d="m 163.97075,1061.0016 5.2253,-3.6465 0.063,9.7192 2.4502,-0.027 0.057,-9.7286 5.2435,3.6827 0.029,-2.8418 -6.5485,-4.9847 -6.529,4.9648 z"
       id="path2819-7-3-8"
       style="display:inline;fill:#c39d5f;fill-opacity:1;stroke-width:0.0362802" />
    <rect
       style="display:inline;fill:none;stroke:#c39d5f;stroke-width:1.737;stroke-miterlimit:4;stroke-dasharray:none;stroke-opacity:1;paint-order:markers stroke fill"
       id="rect1953-5-0-6-8"
       width="37.354355"
       height="37.354355"
       x="151.82281"
       y="1043.1849"
       rx="6.0809412"
       ry="6.0809412" />
    <rect
       style="display:inline;fill:none;stroke:#636363;stroke-width:2;stroke-miterlimit:4;stroke-dasharray:none;stroke-opacity:1;paint-order:markers stroke fill"
       id="rect1953-9-1-4"
       width="43"
       height="43"
       x="149"
       y="945.36224"
       rx="7"
       ry="7" />
    <rect
       style="display:inline;fill:none;stroke:#636363;stroke-width:1;stroke-miterlimit:4;stroke-dasharray:none;stroke-opacity:1;paint-order:markers stroke fill"
       id="rect1953-3-3-2-3"
       width="32"
       height="32"
       x="154.5"
       y="948.86224"
       rx="5"
       ry="5" />
    <path
       style="display:inline;fill:none;stroke:#636363;stroke-width:1px;stroke-linecap:butt;stroke-linejoin:miter;stroke-opacity:1"
       d="m 156,979.36217 -6,7"
       id="path2006-60-9-1" />
    <path
       style="display:inline;fill:none;stroke:#636363;stroke-width:1px;stroke-linecap:butt;stroke-linejoin:miter;stroke-opacity:1"
       d="m 185,979.36217 6,7"
       id="path2006-6-6-3-4" />
    <path
       style="display:inline;fill:none;stroke:#636363;stroke-width:1px;stroke-linecap:butt;stroke-linejoin:miter;stroke-opacity:1"
       d="m 185,950.36217 5,-4"
       id="path2006-6-7-2-1-9" />
    <path
       style="display:inline;fill:none;stroke:#636363;stroke-width:1px;stroke-linecap:butt;stroke-linejoin:miter;stroke-opacity:1"
       d="m 156,950.36217 -5,-4"
       id="path2006-6-7-5-6-9-2" />
    <path
       d="m 162.98341,965.87165 6.01505,-4.19757 0.0731,11.1881 2.82051,-0.0309 0.0659,-11.199 6.03605,4.23931 0.033,-3.2713 -7.53826,-5.73811 -7.51575,5.71526 z"
       id="path2819-1-4-0"
       style="display:inline;fill:#636363;fill-opacity:1;stroke-width:0.0417635" />
  </g>
</svg>
