<?xml version="1.0" encoding="UTF-8" standalone="no"?>
<!-- Created with Inkscape (http://www.inkscape.org/) -->

<svg
   xmlns:dc="http://purl.org/dc/elements/1.1/"
   xmlns:cc="http://creativecommons.org/ns#"
   xmlns:rdf="http://www.w3.org/1999/02/22-rdf-syntax-ns#"
   xmlns:svg="http://www.w3.org/2000/svg"
   xmlns="http://www.w3.org/2000/svg"
   xmlns:xlink="http://www.w3.org/1999/xlink"
   version="1.1"
   width="42"
   height="42"
   id="svg13662">
  <defs
     id="defs13664">
    <linearGradient
       x1="42.50079"
       y1="1004.2206"
       x2="4.9325199"
       y2="1044.7214"
       id="linearGradient15667"
       xlink:href="#linearGradient6702"
       gradientUnits="userSpaceOnUse" />
    <linearGradient
       id="linearGradient6702">
      <stop
         id="stop6704"
         style="stop-color:#dfcaa3;stop-opacity:1"
         offset="0" />
      <stop
         id="stop6706"
         style="stop-color:#2fc394;stop-opacity:1"
         offset="0.55059052" />
      <stop
         id="stop6708"
         style="stop-color:#128595;stop-opacity:1"
         offset="1" />
    </linearGradient>
    <linearGradient
       x1="36.428055"
       y1="-1.6032794"
       x2="5.8873625"
       y2="22.958061"
       id="linearGradient16458"
       xlink:href="#linearGradient6702"
       gradientUnits="userSpaceOnUse"
       gradientTransform="translate(2,1011.3622)" />
    <linearGradient
       x1="46.178997"
       y1="1032.077"
       x2="-13.286018"
       y2="1058.9382"
       id="linearGradient16488"
       xlink:href="#linearGradient6702"
       gradientUnits="userSpaceOnUse"
       gradientTransform="translate(0,-1)" />
    <linearGradient
       x1="36.428055"
       y1="-1.6032794"
       x2="5.8873625"
       y2="22.958061"
       id="linearGradient16458-6"
       xlink:href="#linearGradient6702-8"
       gradientUnits="userSpaceOnUse" />
    <linearGradient
       id="linearGradient6702-8">
      <stop
         id="stop6704-1"
         style="stop-color:#dfcaa3;stop-opacity:1"
         offset="0" />
      <stop
         id="stop6706-3"
         style="stop-color:#2fc394;stop-opacity:1"
         offset="0.55059052" />
      <stop
         id="stop6708-6"
         style="stop-color:#128595;stop-opacity:1"
         offset="1" />
    </linearGradient>
    <linearGradient
       x1="36.428055"
       y1="-1.6032794"
       x2="5.8873625"
       y2="22.958061"
       id="linearGradient16458-0"
       xlink:href="#linearGradient6702-3"
       gradientUnits="userSpaceOnUse" />
    <linearGradient
       id="linearGradient6702-3">
      <stop
         id="stop6704-5"
         style="stop-color:#dfcaa3;stop-opacity:1"
         offset="0" />
      <stop
         id="stop6706-8"
         style="stop-color:#2fc394;stop-opacity:1"
         offset="0.55059052" />
      <stop
         id="stop6708-5"
         style="stop-color:#128595;stop-opacity:1"
         offset="1" />
    </linearGradient>
    <linearGradient
       x1="46.178997"
       y1="1032.077"
       x2="-13.286018"
       y2="1058.9382"
       id="linearGradient16488-8"
       xlink:href="#linearGradient6702-38"
       gradientUnits="userSpaceOnUse" />
    <linearGradient
       id="linearGradient6702-38">
      <stop
         id="stop6704-7"
         style="stop-color:#dfcaa3;stop-opacity:1"
         offset="0" />
      <stop
         id="stop6706-31"
         style="stop-color:#2fc394;stop-opacity:1"
         offset="0.55059052" />
      <stop
         id="stop6708-0"
         style="stop-color:#128595;stop-opacity:1"
         offset="1" />
    </linearGradient>
  </defs>
  <metadata
     id="metadata13667">
    <rdf:RDF>
      <cc:Work
         rdf:about="">
        <dc:format>image/svg+xml</dc:format>
        <dc:type
           rdf:resource="http://purl.org/dc/dcmitype/StillImage" />
        <dc:title></dc:title>
      </cc:Work>
    </rdf:RDF>
  </metadata>
  <g
     transform="translate(0,-1010.3622)"
     id="layer1">
    <path
       d="m 5.0907051,1046.2898 c 0,0 -3.2165377,0.02 -3.4589204,2.0064 -0.2608284,2.1375 3.6880735,2.0724 3.6880735,2.0724 l 31.5100798,0.2681 c 0,0 3.718622,-0.3178 3.731291,-2.3499 0.01163,-1.8654 -3.826624,-1.9479 -3.826624,-1.9479"
       id="path13460-0"
       style="fill:none;stroke:#000000;stroke-width:3;stroke-linecap:butt;stroke-linejoin:miter;stroke-miterlimit:4;stroke-opacity:1;stroke-dasharray:none" />
    <g
       transform="translate(0,-1)"
       id="g16793">
      <path
         d="m 7.3897139,1049.1415 c -0.038035,-0.3762 -0.060993,-0.757 -0.068248,-1.1418 -0.1435095,-7.61 5.9093101,-13.8955 13.5193551,-14.039 7.610044,-0.1435 13.895542,5.9093 14.03905,13.5193 l 0,0 c 0.01089,0.5774 -0.01389,1.1472 -0.07232,1.7072"
         id="path13482-8"
         style="color:#000000;fill:none;stroke:#000000;stroke-width:3;stroke-linecap:round;stroke-miterlimit:4;stroke-opacity:1;stroke-dasharray:none;marker:none;visibility:visible;display:inline;overflow:visible;enable-background:accumulate" />
      <path
         d="m 14.342895,1049.0848 c -0.681512,-3.3987 1.289678,-6.8379 4.669689,-7.9131 3.626621,-1.1537 7.501814,0.851 8.655487,4.4777 l 0,0 c 0.377475,1.1866 0.416824,2.3998 0.171862,3.5356"
         id="path13488-0"
         style="color:#000000;fill:none;stroke:#000000;stroke-width:3;stroke-linecap:round;stroke-miterlimit:4;stroke-opacity:1;stroke-dasharray:none;marker:none;visibility:visible;display:inline;overflow:visible;enable-background:accumulate" />
      <path
         d="m 29.543439,1044.4896 c -0.340823,-0.9392 4.047233,-3.2061 4.047233,-3.2061 l 1.114191,3.0702 c 0,0 -4.820603,1.075 -5.161423,0.1359 z"
         id="path13008-2"
         style="fill:#ffffff;fill-opacity:1;stroke:#000000;stroke-width:2;stroke-miterlimit:4;stroke-opacity:1;stroke-dasharray:none" />
      <path
         d="m 28.003335,1041.8163 c -0.641465,-0.766 2.706625,-4.397 2.706625,-4.397 l 2.097045,2.5039 c 0,0 -4.162206,2.659 -4.80367,1.8931 z"
         id="path13008-9-49"
         style="fill:#ffffff;fill-opacity:1;stroke:#000000;stroke-width:2;stroke-miterlimit:4;stroke-opacity:1;stroke-dasharray:none" />
      <path
         d="m 25.641785,1039.8309 c -0.864742,-0.5003 1.039562,-5.0575 1.039562,-5.0575 l 2.826963,1.6357 c 0,0 -3.00178,3.9222 -3.866525,3.4218 z"
         id="path13008-9-4-0"
         style="fill:#ffffff;fill-opacity:1;stroke:#000000;stroke-width:2;stroke-miterlimit:4;stroke-opacity:1;stroke-dasharray:none" />
      <path
         d="m 22.743627,1038.773 c -0.983713,-0.1744 -0.75289,-5.108 -0.75289,-5.108 l 3.215905,0.5701 c 0,0 -1.479298,4.7123 -2.463015,4.5379 z"
         id="path13008-9-4-5-1"
         style="fill:#ffffff;fill-opacity:1;stroke:#000000;stroke-width:2;stroke-miterlimit:4;stroke-opacity:1;stroke-dasharray:none" />
      <path
         d="m 19.658429,1038.7701 c -0.98404,0.1726 -2.454535,-4.5424 -2.454535,-4.5424 l 3.216964,-0.5642 c 0,0 0.221608,4.9341 -0.762429,5.1066 z"
         id="path13008-9-4-5-4-2"
         style="fill:#ffffff;fill-opacity:1;stroke:#000000;stroke-width:2;stroke-miterlimit:4;stroke-opacity:1;stroke-dasharray:none" />
      <path
         d="m 16.758301,1039.8226 c -0.865674,0.4987 -3.860124,-3.429 -3.860124,-3.429 l 2.830006,-1.6304 c 0,0 1.895788,4.5607 1.030118,5.0594 z"
         id="path13008-9-4-5-4-0-0"
         style="fill:#ffffff;fill-opacity:1;stroke:#000000;stroke-width:2;stroke-miterlimit:4;stroke-opacity:1;stroke-dasharray:none" />
      <path
         d="m 14.393047,1041.8036 c -0.642899,0.7647 -4.8001293,-1.902 -4.8001293,-1.902 l 2.1017153,-2.5 c 0,0 3.341308,3.6372 2.698414,4.402 z"
         id="path13008-9-4-5-4-0-6-0"
         style="fill:#ffffff;fill-opacity:1;stroke:#000000;stroke-width:2;stroke-miterlimit:4;stroke-opacity:1;stroke-dasharray:none" />
      <path
         d="m 12.847948,1044.474 c -0.342572,0.9385 -5.1611613,-0.1456 -5.1611613,-0.1456 l 1.1199214,-3.068 c 0,0 4.3838149,2.2751 4.0412399,3.2136 z"
         id="path13008-9-4-5-4-0-6-4-6"
         style="fill:#ffffff;fill-opacity:1;stroke:#000000;stroke-width:2;stroke-miterlimit:4;stroke-opacity:1;stroke-dasharray:none" />
      <g
         transform="matrix(-0.72548341,-6.7741799e-4,6.7741799e-4,-0.72548341,65.112798,1403.129)"
         id="g13262-6-7-2-7-3-8-8-1-3"
         style="stroke:#000000;stroke-width:2.75678134;stroke-miterlimit:4;stroke-opacity:1;stroke-dasharray:none">
        <path
           d="m 73.241421,490.11123 c 0,-1.37709 6.75158,-2.25095 6.75158,-2.25095 l 0,4.5019 c 0,0 -6.75158,-0.87386 -6.75158,-2.25095 z"
           id="path13008-9-4-5-4-0-6-4-4-9"
           style="fill:#ffffff;fill-opacity:1;stroke:#000000;stroke-width:2.75678134;stroke-miterlimit:4;stroke-opacity:1;stroke-dasharray:none" />
        <path
           d="M 48.75158,490.11123 C 48.75158,488.73414 42,487.86028 42,487.86028 l 0,4.5019 c 0,0 6.75158,-0.87386 6.75158,-2.25095 z"
           id="path13008-5-3-5-4-4-7-8-3-9-0"
           style="fill:#ffffff;fill-opacity:1;stroke:#000000;stroke-width:2.75678134;stroke-miterlimit:4;stroke-opacity:1;stroke-dasharray:none" />
      </g>
    </g>
    <g
       transform="translate(0,-1)"
       id="g16661">
      <path
         d="m 7.3897139,1049.1415 c -0.038035,-0.3762 -0.060993,-0.757 -0.068248,-1.1418 -0.1435095,-7.61 5.9093101,-13.8955 13.5193551,-14.039 7.610044,-0.1435 13.895542,5.9093 14.03905,13.5193 l 0,0 c 0.01089,0.5774 -0.01389,1.1472 -0.07232,1.7072"
         id="path13482"
         style="color:#000000;fill:none;stroke:#ffffff;stroke-width:1.45096743;stroke-miterlimit:4;stroke-opacity:1;marker:none;visibility:visible;display:inline;overflow:visible;enable-background:accumulate" />
      <path
         d="m 14.342895,1049.0848 c -0.681512,-3.3987 1.289678,-6.8379 4.669689,-7.9131 3.626621,-1.1537 7.501814,0.851 8.655487,4.4777 l 0,0 c 0.377475,1.1866 0.416824,2.3998 0.171862,3.5356"
         id="path13488"
         style="color:#000000;fill:none;stroke:#ffffff;stroke-width:1.45096743;stroke-miterlimit:4;stroke-opacity:1;marker:none;visibility:visible;display:inline;overflow:visible;enable-background:accumulate" />
      <path
         d="m 29.543439,1044.4896 c -0.340823,-0.9392 4.047233,-3.2061 4.047233,-3.2061 l 1.114191,3.0702 c 0,0 -4.820603,1.075 -5.161423,0.1359 z"
         id="path13008"
         style="fill:#ffffff;fill-opacity:1;stroke:none" />
      <path
         d="m 28.003335,1041.8163 c -0.641465,-0.766 2.706625,-4.397 2.706625,-4.397 l 2.097045,2.5039 c 0,0 -4.162206,2.659 -4.80367,1.8931 z"
         id="path13008-9"
         style="fill:#ffffff;fill-opacity:1;stroke:none" />
      <path
         d="m 25.641785,1039.8309 c -0.864742,-0.5003 1.039562,-5.0575 1.039562,-5.0575 l 2.826963,1.6357 c 0,0 -3.00178,3.9222 -3.866525,3.4218 z"
         id="path13008-9-4"
         style="fill:#ffffff;fill-opacity:1;stroke:none" />
      <path
         d="m 22.743627,1038.773 c -0.983713,-0.1744 -0.75289,-5.108 -0.75289,-5.108 l 3.215905,0.5701 c 0,0 -1.479298,4.7123 -2.463015,4.5379 z"
         id="path13008-9-4-5"
         style="fill:#ffffff;fill-opacity:1;stroke:none" />
      <path
         d="m 19.658429,1038.7701 c -0.98404,0.1726 -2.454535,-4.5424 -2.454535,-4.5424 l 3.216964,-0.5642 c 0,0 0.221608,4.9341 -0.762429,5.1066 z"
         id="path13008-9-4-5-4"
         style="fill:#ffffff;fill-opacity:1;stroke:none" />
      <path
         d="m 16.758301,1039.8226 c -0.865674,0.4987 -3.860124,-3.429 -3.860124,-3.429 l 2.830006,-1.6304 c 0,0 1.895788,4.5607 1.030118,5.0594 z"
         id="path13008-9-4-5-4-0"
         style="fill:#ffffff;fill-opacity:1;stroke:none" />
      <path
         d="m 14.393047,1041.8036 c -0.642899,0.7647 -4.8001293,-1.902 -4.8001293,-1.902 l 2.1017153,-2.5 c 0,0 3.341308,3.6372 2.698414,4.402 z"
         id="path13008-9-4-5-4-0-6"
         style="fill:#ffffff;fill-opacity:1;stroke:none" />
      <path
         d="m 12.847948,1044.474 c -0.342572,0.9385 -5.1611613,-0.1456 -5.1611613,-0.1456 l 1.1199214,-3.068 c 0,0 4.3838149,2.2751 4.0412399,3.2136 z"
         id="path13008-9-4-5-4-0-6-4"
         style="fill:#ffffff;fill-opacity:1;stroke:none" />
      <g
         transform="matrix(-0.72548341,-6.7741799e-4,6.7741799e-4,-0.72548341,65.112798,1403.129)"
         id="g13262-6-7-2-7-3-8-8-1">
        <path
           d="m 73.241421,490.11123 c 0,-1.37709 6.75158,-2.25095 6.75158,-2.25095 l 0,4.5019 c 0,0 -6.75158,-0.87386 -6.75158,-2.25095 z"
           id="path13008-9-4-5-4-0-6-4-4"
           style="fill:#ffffff;fill-opacity:1;stroke:none" />
        <path
           d="M 48.75158,490.11123 C 48.75158,488.73414 42,487.86028 42,487.86028 l 0,4.5019 c 0,0 6.75158,-0.87386 6.75158,-2.25095 z"
           id="path13008-5-3-5-4-4-7-8-3-9"
           style="fill:#ffffff;fill-opacity:1;stroke:none" />
      </g>
    </g>
    <path
       d="m 21.75,1011.3622 c -0.335915,0 -0.681235,0.1187 -0.9375,0.375 l -4.625,4.6563 c -0.51251,0.5126 -0.51251,1.3312 0,1.8437 0.51253,0.5125 1.33122,0.5125 1.84375,0 l 2.40625,-2.4062 0,9.9687 -9.96875,0 2.40625,-2.4062 c 0.51252,-0.5127 0.51252,-1.3313 0,-1.8438 -0.51253,-0.5125 -1.33122,-0.5125 -1.84375,0 l -4.65625,4.625 c -0.51252,0.5126 -0.51252,1.3625 0,1.875 l 4.65625,4.625 c 0.51253,0.5125 1.33122,0.5125 1.84375,0 0.51251,-0.5126 0.51251,-1.3312 0,-1.8437 l -2.40625,-2.4063 9.96875,0 0,2.5625 2.625,0 0,-2.5625 9.96875,0 -2.40625,2.4063 c -0.51252,0.5126 -0.51252,1.3312 0,1.8437 0.51253,0.5126 1.33124,0.5126 1.84375,0 l 4.65625,-4.625 c 0.51253,-0.5119 0.51286,-1.3624 0,-1.875 l -4.65625,-4.625 c -0.51251,-0.5125 -1.33122,-0.5125 -1.84375,0 -0.51252,0.5126 -0.51252,1.3312 0,1.8438 l 2.40625,2.4062 -9.96875,0 0,-9.9687 2.40625,2.4062 c 0.51253,0.5125 1.33122,0.5125 1.84375,0 0.51252,-0.5126 0.51252,-1.3312 0,-1.8437 l -4.625,-4.6563 c -0.256265,-0.2563 -0.601585,-0.375 -0.9375,-0.375 z"
       id="path9642-9"
       style="fill:#000000;fill-opacity:1;stroke:#000000;stroke-width:1.89999998;stroke-miterlimit:4;stroke-opacity:1;stroke-dasharray:none" />
    <path
       d="m 21.75,1011.3622 c -0.335915,0 -0.681235,0.1187 -0.9375,0.375 l -4.625,4.6563 c -0.51251,0.5126 -0.51251,1.3312 0,1.8437 0.51253,0.5125 1.33122,0.5125 1.84375,0 l 2.40625,-2.4062 0,9.9687 -9.96875,0 2.40625,-2.4062 c 0.51252,-0.5127 0.51252,-1.3313 0,-1.8438 -0.51253,-0.5125 -1.33122,-0.5125 -1.84375,0 l -4.65625,4.625 c -0.51252,0.5126 -0.51252,1.3625 0,1.875 l 4.65625,4.625 c 0.51253,0.5125 1.33122,0.5125 1.84375,0 0.51251,-0.5126 0.51251,-1.3312 0,-1.8437 l -2.40625,-2.4063 9.96875,0 0,2.5625 2.625,0 0,-2.5625 9.96875,0 -2.40625,2.4063 c -0.51252,0.5126 -0.51252,1.3312 0,1.8437 0.51253,0.5126 1.33124,0.5126 1.84375,0 l 4.65625,-4.625 c 0.51253,-0.5119 0.51286,-1.3624 0,-1.875 l -4.65625,-4.625 c -0.51251,-0.5125 -1.33122,-0.5125 -1.84375,0 -0.51252,0.5126 -0.51252,1.3312 0,1.8438 l 2.40625,2.4062 -9.96875,0 0,-9.9687 2.40625,2.4062 c 0.51253,0.5125 1.33122,0.5125 1.84375,0 0.51252,-0.5126 0.51252,-1.3312 0,-1.8437 l -4.625,-4.6563 c -0.256265,-0.2563 -0.601585,-0.375 -0.9375,-0.375 z"
       id="path9642"
       style="fill:url(#linearGradient16458);fill-opacity:1" />
    <path
       d="m 5.0907051,1046.2898 c 0,0 -3.2165377,0.02 -3.4589204,2.0064 -0.2608284,2.1375 3.6880735,2.0724 3.6880735,2.0724 l 31.5100798,0.2681 c 0,0 3.846641,-0.2538 3.731291,-2.3499 -0.102506,-1.8626 -3.826624,-1.9479 -3.826624,-1.9479"
       id="path13460"
       style="fill:none;stroke:url(#linearGradient16488);stroke-width:1.45096743;stroke-linecap:butt;stroke-linejoin:miter;stroke-miterlimit:4;stroke-opacity:1;stroke-dasharray:none" />
  </g>
</svg>
