<?xml version="1.0" encoding="UTF-8" standalone="no"?>
<svg
   xmlns:dc="http://purl.org/dc/elements/1.1/"
   xmlns:cc="http://creativecommons.org/ns#"
   xmlns:rdf="http://www.w3.org/1999/02/22-rdf-syntax-ns#"
   xmlns:svg="http://www.w3.org/2000/svg"
   xmlns="http://www.w3.org/2000/svg"
   width="560"
   height="128"
   viewBox="0 0 560.00001 128"
   id="svg2"
   version="1.1">
  <defs
     id="defs4" />
  <metadata
     id="metadata7">
    <rdf:RDF>
      <cc:Work
         rdf:about="">
        <dc:format>image/svg+xml</dc:format>
        <dc:type
           rdf:resource="http://purl.org/dc/dcmitype/StillImage" />
        <dc:title></dc:title>
      </cc:Work>
    </rdf:RDF>
  </metadata>
  <g
     id="layer1"
     transform="translate(0,-924.3621)">
    <circle
       style="color:#000000;clip-rule:nonzero;display:inline;overflow:visible;visibility:visible;opacity:1;isolation:auto;mix-blend-mode:normal;color-interpolation:sRGB;color-interpolation-filters:linearRGB;solid-color:#000000;solid-opacity:1;fill:#ffffff;fill-opacity:1;fill-rule:evenodd;stroke:none;stroke-width:1;stroke-linecap:round;stroke-linejoin:miter;stroke-miterlimit:4;stroke-dasharray:none;stroke-dashoffset:0;stroke-opacity:1;color-rendering:auto;image-rendering:auto;shape-rendering:auto;text-rendering:auto;enable-background:accumulate"
       id="path4136"
       cx="63.5"
       cy="988.86212"
       r="53.500004" />
    <g
       style="font-style:normal;font-variant:normal;font-weight:bold;font-stretch:normal;font-size:106.9375px;line-height:125%;font-family:Umpush;-inkscape-font-specification:'Umpush, Bold';text-align:center;letter-spacing:0px;word-spacing:0px;writing-mode:lr-tb;text-anchor:middle;display:inline;fill:#000000;fill-opacity:1;stroke:#000000;stroke-width:5.72068787;stroke-linecap:butt;stroke-linejoin:miter;stroke-miterlimit:4;stroke-dasharray:none;stroke-opacity:1"
       id="text4138"
       transform="matrix(0.3496083,0,0,0.3496083,-163.80453,759.33638)">
      <path
         d="m 601.33548,641.56396 q 0,5.43042 -1.61868,9.60767 -1.61869,4.12503 -4.28168,6.68359 -2.61078,2.50635 -6.42252,4.12504 -3.81173,1.61868 -7.78012,2.24526 -3.91617,0.62659 -8.56335,0.62659 l -17.23114,0 0,30.28504 -12.53174,0 0,-75.71259 28.87521,0 q 8.3545,0 14.20264,1.56647 5.84814,1.56647 9.13773,4.59497 3.28958,2.97629 4.75161,6.89245 1.46204,3.86396 1.46204,9.08551 z m -12.53174,0.3133 q 0,-6.16144 -4.64718,-8.56336 -4.59498,-2.40191 -13.62827,-2.40191 l -15.0903,0 0,22.4527 15.29916,0 q 5.11713,0 8.72,-0.83545 3.60288,-0.83545 5.58707,-2.40192 1.98419,-1.56647 2.87186,-3.55066 0.88766,-2.03641 0.88766,-4.6994 z"
         id="path4197"
         style="fill:#000000;fill-opacity:1;stroke:#000000;stroke-width:5.72068787;stroke-linejoin:miter;stroke-miterlimit:4;stroke-dasharray:none;stroke-opacity:1" />
      <path
         d="m 614.8071,695.13715 0,-75.71259 55.34851,0 0,11.48743 -42.81677,0 0,20.05078 32.32144,0 0,11.48743 -32.32144,0 0,21.19952 42.81677,0 0,11.48743 -55.34851,0 z"
         id="path4199"
         style="fill:#000000;fill-opacity:1;stroke:#000000;stroke-width:5.72068787;stroke-linejoin:miter;stroke-miterlimit:4;stroke-dasharray:none;stroke-opacity:1" />
      <path
         d="m 682.94843,695.13715 0,-75.71259 12.21844,0 24.28024,51.16504 24.28025,-51.16504 12.21844,0 0,75.71259 -12.53174,0 0,-43.78827 -20.82922,43.78827 -6.27545,0 -20.82923,-43.78827 0,43.78827 z"
         id="path4201"
         style="fill:#000000;fill-opacity:1;stroke:#000000;stroke-width:5.72068787;stroke-linejoin:miter;stroke-miterlimit:4;stroke-dasharray:none;stroke-opacity:1" />
    </g>
    <path
       style="fill:#ffffff;fill-opacity:1"
       d="m 183,938.97929 0,0.37109 0,41.50781 0,5.31055 15.07031,0 0.61914,0 0,-36.25586 6.11328,0 c 1.85299,0 3.27541,0.80226 4.26368,1.91406 0.9265,1.23533 1.35812,2.34768 1.41992,3.83008 -0.0618,2.96479 -1.97634,4.56984 -3.27344,5.1875 -1.79123,0.86474 -3.21219,0.49484 -5.12695,0.55664 1.54416,3.64423 3.02615,7.16438 4.57031,10.8086 l 3.83008,9.08007 c 0.67943,1.35887 1.23585,2.84109 1.85351,4.26172 0.12354,0.1853 0.2461,0.55664 0.2461,0.55664 l 15.75,0 0.125,0 -3.70703,-8.95703 c -1.17356,-2.5942 -2.22414,-5.18779 -3.33594,-7.84375 -0.5559,-1.2971 -1.04957,-2.47072 -1.60547,-3.95312 4.07659,-4.32366 5.62131,-10.31601 3.83008,-15.875 -1.97653,-5.99135 -7.96765,-10.5 -14.94727,-10.5 l -10.625,0 -15.07031,0 z m 37.55469,0 c 0.30883,0.98827 0.8025,1.85279 1.11133,2.77929 l 3.58203,8.33985 2.4707,5.86719 0.18555,0.37109 c 1.11179,2.71772 2.03859,4.87846 3.15039,7.47266 3.21186,7.59728 6.29987,14.88562 9.51172,22.35937 l 16.18359,0 0,-24.64453 c 0.43237,1.42063 0.74,2.84109 1.04883,4.26172 2.71773,6.79431 5.68218,13.651 8.52344,20.44531 l 16.18359,0 0,-19.14844 0,-17.10937 11.05664,0 0,15.9375 0,0.74023 0,19.51758 15.56445,0 0.12305,0 0,-16.18164 0,-15.50391 0,-3.39648 0,-1.11328 10.93359,0 0,36.19531 6.91797,0 c 2.84126,-0.0618 5.93023,0 8.77149,0 l 0,-19.20898 0.12304,0 9.38868,0 1.48242,0 0,19.20898 3.45898,0 12.22852,0 0,-47.12695 0,-0.0625 -7.41211,0 -8.15235,0 0,17.04883 -10.2539,0 -0.74024,0 0,-14.08399 0,-2.96484 -11.30273,0 -39.83984,0 -10.99414,0 -1.29883,0 0,21.18554 c 0.12354,0.98827 0.31006,1.97658 0.43359,2.96485 l -4.26172,-9.63477 c -1.91476,-4.44719 -3.70633,-8.8946 -5.62109,-13.34179 -0.1853,-0.3706 -0.30884,-0.67969 -0.49414,-1.17383 l -16.1836,0 c 0,2.28537 0.0618,4.87991 0,7.10351 l 0,14.08203 c 0.12354,0.86473 0.43311,2.03835 0.55664,2.96485 l -0.12304,-0.1836 c -3.45893,-7.90612 -6.79547,-15.87537 -10.13086,-23.96679 l -16.18164,0 z"
       id="path7508" />
    <g
       id="g7599"
       style="fill:#ffffff;fill-opacity:0.49803939"
       transform="translate(28,0)">
      <path
         id="path7490"
         d="m 402.93082,997.4109 4.44719,0 c 4.26189,0 6.54725,2.16182 6.54725,6.4855 0,5.0648 -2.59419,7.0414 -7.10315,7.0414 l -3.89129,0 0,-13.5269 z m -9.45028,40.0247 9.45028,0 0,-19.8271 5.06485,0 c 3.82953,0 5.43546,2.2236 5.62076,5.9296 l 0.24706,9.0179 c 0.0618,1.853 0.24707,3.6443 1.17357,4.9414 l 10.25324,0 0,-0.3706 c -1.79123,-0.9265 -2.0383,-3.459 -2.10006,-8.4003 -0.12354,-9.9444 -1.1118,-13.4651 -7.53552,-14.3298 l 0,-0.1235 c 5.31192,-1.1118 7.84435,-5.312 7.84435,-11.5504 0,-8.02963 -4.75602,-12.10622 -12.47684,-12.10622 l -17.47992,0 0,46.81902 z"
         class="st0"
         style="fill:#ffffff;fill-opacity:0.49803939" />
      <path
         id="path7492"
         d="m 253.8882,990.49305 0,32.73625 c 0,12.5386 7.28845,15.1328 15.00926,15.1328 7.72082,0 15.00927,-3.1501 15.00927,-15.1328 l 0,-32.73625 -9.45028,0 0,32.73625 c 0,4.6943 -1.1118,8.1532 -5.49722,8.1532 -4.38542,0 -5.49722,-3.4589 -5.49722,-8.1532 l 0,-32.73625 -9.57381,0 z"
         class="st0"
         style="fill:#ffffff;fill-opacity:0.49803939" />
      <polygon
         transform="matrix(0.61766523,0,0,0.61766523,138.5701,786.29292)"
         id="polygon7494"
         points="275.4,330.6 275.4,382.6 275.2,382.6 256.7,330.6 239,330.6 239,406.6 253,406.6 253,353.3 253.2,353.3 272,406.6 289.4,406.6 289.4,330.6 "
         class="st0"
         style="fill:#ffffff;fill-opacity:0.49803939" />
      <rect
         id="rect7496"
         height="46.942558"
         width="9.4502783"
         class="st0"
         y="990.49304"
         x="319.79306"
         style="fill:#ffffff;fill-opacity:0.49803939" />
      <polygon
         transform="matrix(0.61766523,0,0,0.61766523,138.5701,786.29292)"
         id="polygon7498"
         points="348.5,330.6 337.2,386.8 336.9,386.8 326.1,330.6 309.8,330.6 327.2,406.6 346.9,406.6 364.4,330.6 "
         class="st0"
         style="fill:#ffffff;fill-opacity:0.49803939" />
      <polygon
         transform="matrix(0.61766523,0,0,0.61766523,138.5701,786.29292)"
         id="polygon7500"
         points="381.1,361 381.1,343.1 408.2,343.1 408.2,330.6 365.7,330.6 365.7,406.6 409.3,406.6 409.3,394 381.1,394 381.1,373.6 406.6,373.6 406.6,361 "
         class="st0"
         style="fill:#ffffff;fill-opacity:0.49803939" />
      <path
         id="path7502"
         d="m 424.24027,1022.7352 0,1.9147 c 0,8.7091 4.20012,13.6504 14.9475,13.6504 10.25324,0 16.30636,-4.4472 16.30636,-14.3916 0,-5.7443 -1.853,-9.3267 -8.95615,-12.415 l -7.28845,-3.1501 c -4.01482,-1.7295 -4.87955,-3.459 -4.87955,-6.362 0,-2.77948 1.1118,-5.43544 5.37369,-5.43544 3.64422,0 5.12662,2.5942 5.12662,6.97964 l 9.07968,0 0,-1.2971 c 0,-9.01793 -6.11489,-12.60039 -14.51514,-12.60039 -8.95614,0 -14.51513,4.69426 -14.51513,13.83569 0,7.8444 3.89129,11.3033 12.29154,14.2063 6.23842,2.1618 8.40025,3.7678 8.40025,8.0297 0,3.953 -2.7795,5.806 -5.68252,5.806 -5.00309,0 -6.23842,-2.8412 -6.23842,-7.2267 l 0,-1.3588 -9.45028,0 z"
         class="st0"
         style="fill:#ffffff;fill-opacity:0.49803939" />
      <rect
         id="rect7504"
         height="46.942558"
         width="9.4502783"
         class="st0"
         y="990.49304"
         x="456.72943"
         style="fill:#ffffff;fill-opacity:0.49803939" />
      <polygon
         transform="matrix(0.61766523,0,0,0.61766523,138.5701,786.29292)"
         id="polygon7506"
         points="591.6,406.6 606.9,406.6 606.9,376.7 626.6,330.6 610,330.6 599.4,359.9 599.2,359.9 589.2,330.6 532.4,330.6 532.4,343.1 549,343.1 549,406.6 564.3,406.6 564.3,343.1 577.3,343.1 591.6,376.7 "
         class="st0"
         style="fill:#ffffff;fill-opacity:0.49803939" />
      <path
         id="path7512"
         d="m 390.57751,939.04153 -11.73564,0 -9.88264,37.18345 -9.82088,-37.18345 -11.73564,0 -12.47683,47.18962 9.88264,0 2.16183,-9.94441 12.5386,0 2.16183,9.94441 14.51513,0 2.16183,-9.94441 12.53861,0 2.16182,9.94441 9.88265,0 -12.35331,-47.18962 z m -41.93947,29.40087 4.57073,-21.18592 0.12353,0 4.57072,21.18592 -9.26498,0 z m 31.43916,0 4.57073,-21.18592 0.12353,0 4.57072,21.18592 -9.26498,0 z"
         class="st0"
         style="fill:#ffffff;fill-opacity:0.49803939" />
      <path
         id="path7514"
         d="m 431.40519,955.10083 c 0,-6.85609 -0.98827,-16.73873 -14.51514,-16.73873 -14.2063,0 -15.99753,10.12971 -15.99753,24.39778 0,14.26806 1.79123,24.39777 15.99753,24.39777 12.41507,0 14.9475,-8.77084 14.9475,-18.90055 l -9.45028,0 c 0,10.12971 -2.47066,11.92094 -5.92958,11.92094 -4.07659,0 -6.05312,-2.5942 -6.05312,-16.73873 0,-13.2798 1.1118,-18.09759 5.92958,-18.09759 4.26189,0 5.68252,2.96479 5.68252,9.82087 l 9.38852,0 z"
         class="st0"
         style="fill:#ffffff;fill-opacity:0.49803939" />
      <polygon
         transform="matrix(0.61766523,0,0,0.61766523,138.5701,786.29292)"
         id="polygon7516"
         points="511.1,276.5 493.1,276.5 493.1,247.3 477.7,247.3 477.7,323.6 493.1,323.6 493.1,289.8 511.1,289.8 511.1,323.6 526.5,323.6 526.5,247.3 511.1,247.3 "
         class="st0"
         style="fill:#ffffff;fill-opacity:0.49803939" />
      <polygon
         transform="matrix(0.61766523,0,0,0.61766523,138.5701,786.29292)"
         id="polygon7518"
         points="545.2,277.9 545.2,259.9 572.5,259.9 572.5,247.3 529.8,247.3 529.8,323.6 573.6,323.6 573.6,311 545.2,311 545.2,290.5 570.9,290.5 570.9,277.9 "
         class="st0"
         style="fill:#ffffff;fill-opacity:0.49803939" />
      <polygon
         transform="matrix(0.61766523,0,0,0.61766523,138.5701,786.29292)"
         id="polygon7520"
         points="612.4,247.3 612.4,299.6 612.2,299.6 593.6,247.3 575.9,247.3 575.9,323.6 590,323.6 590,270.2 590.2,270.2 609,323.6 626.6,323.6 626.6,247.3 "
         class="st0"
         style="fill:#ffffff;fill-opacity:0.49803939" />
    </g>
    <rect
       style="color:#000000;clip-rule:nonzero;display:inline;overflow:visible;visibility:visible;opacity:1;isolation:auto;mix-blend-mode:normal;color-interpolation:sRGB;color-interpolation-filters:linearRGB;solid-color:#000000;solid-opacity:1;fill:#ffffff;fill-opacity:1;fill-rule:nonzero;stroke:none;stroke-width:1.5;stroke-linecap:round;stroke-linejoin:bevel;stroke-miterlimit:4;stroke-dasharray:none;stroke-dashoffset:0;stroke-opacity:1;color-rendering:auto;image-rendering:auto;shape-rendering:auto;text-rendering:auto;enable-background:accumulate"
       id="rect7547"
       width="2"
       height="100"
       x="149"
       y="938.36212" />
  </g>
  <g
     id="layer2"
     style="display:none">
    <rect
       transform="translate(0,-924.3621)"
       style="color:#000000;clip-rule:nonzero;display:inline;overflow:visible;visibility:visible;opacity:0.6;isolation:auto;mix-blend-mode:normal;color-interpolation:sRGB;color-interpolation-filters:linearRGB;solid-color:#000000;solid-opacity:1;fill:#d5d5d5;fill-opacity:1;fill-rule:nonzero;stroke:none;stroke-width:8;stroke-linecap:square;stroke-linejoin:miter;stroke-miterlimit:4;stroke-dasharray:none;stroke-dashoffset:0;stroke-opacity:1;color-rendering:auto;image-rendering:auto;shape-rendering:auto;text-rendering:auto;enable-background:accumulate"
       id="rect8951"
       width="32"
       height="10"
       x="151"
       y="975.36212" />
    <rect
       transform="translate(0,-924.3621)"
       style="color:#000000;clip-rule:nonzero;display:inline;overflow:visible;visibility:visible;opacity:0.6;isolation:auto;mix-blend-mode:normal;color-interpolation:sRGB;color-interpolation-filters:linearRGB;solid-color:#000000;solid-opacity:1;fill:#d5d5d5;fill-opacity:1;fill-rule:nonzero;stroke:none;stroke-width:8;stroke-linecap:square;stroke-linejoin:miter;stroke-miterlimit:4;stroke-dasharray:none;stroke-dashoffset:0;stroke-opacity:1;color-rendering:auto;image-rendering:auto;shape-rendering:auto;text-rendering:auto;enable-background:accumulate"
       id="rect8951-8"
       width="32"
       height="10"
       x="117"
       y="975.36212" />
  </g>
  <style
     id="style7488"
     type="text/css">
	.st0{fill:#8FBAE5;}
	.st1{fill:#00549E;}
</style>
</svg>
