<?xml version="1.0" encoding="UTF-8" standalone="no"?>
<!-- Created with Inkscape (http://www.inkscape.org/) -->

<svg
   xmlns:dc="http://purl.org/dc/elements/1.1/"
   xmlns:cc="http://creativecommons.org/ns#"
   xmlns:rdf="http://www.w3.org/1999/02/22-rdf-syntax-ns#"
   xmlns:svg="http://www.w3.org/2000/svg"
   xmlns="http://www.w3.org/2000/svg"
   xmlns:xlink="http://www.w3.org/1999/xlink"
   version="1.1"
   width="42"
   height="42"
   id="svg13662">
  <defs
     id="defs13664">
    <linearGradient
       id="linearGradient15725">
      <stop
         id="stop15727"
         style="stop-color:#eee2ce;stop-opacity:1"
         offset="0" />
      <stop
         id="stop15729"
         style="stop-color:#a1e8d1;stop-opacity:1"
         offset="0.55059052" />
      <stop
         id="stop15731"
         style="stop-color:#4fd7ea;stop-opacity:1"
         offset="1" />
    </linearGradient>
    <linearGradient
       x1="1480"
       y1="-324.63782"
       x2="1066"
       y2="789.36218"
       id="linearGradient8010"
       xlink:href="#linearGradient6702"
       gradientUnits="userSpaceOnUse"
       gradientTransform="translate(-9.9999834,0)" />
    <linearGradient
       id="linearGradient6702">
      <stop
         id="stop6704"
         style="stop-color:#dfcaa3;stop-opacity:1"
         offset="0" />
      <stop
         id="stop6706"
         style="stop-color:#2fc394;stop-opacity:1"
         offset="0.55059052" />
      <stop
         id="stop6708"
         style="stop-color:#128595;stop-opacity:1"
         offset="1" />
    </linearGradient>
    <linearGradient
       x1="1480"
       y1="-324.63782"
       x2="1066"
       y2="789.36218"
       id="linearGradient15132"
       xlink:href="#linearGradient6702"
       gradientUnits="userSpaceOnUse"
       gradientTransform="translate(-973.17823,426.10303)" />
    <linearGradient
       x1="42.50079"
       y1="1004.2206"
       x2="4.9325199"
       y2="1044.7214"
       id="linearGradient15667"
       xlink:href="#linearGradient6702"
       gradientUnits="userSpaceOnUse" />
    <linearGradient
       x1="42.50079"
       y1="1004.2206"
       x2="4.9325199"
       y2="1044.7214"
       id="linearGradient15667-2"
       xlink:href="#linearGradient6702-2"
       gradientUnits="userSpaceOnUse" />
    <linearGradient
       id="linearGradient6702-2">
      <stop
         id="stop6704-9"
         style="stop-color:#dfcaa3;stop-opacity:1"
         offset="0" />
      <stop
         id="stop6706-2"
         style="stop-color:#2fc394;stop-opacity:1"
         offset="0.55059052" />
      <stop
         id="stop6708-8"
         style="stop-color:#128595;stop-opacity:1"
         offset="1" />
    </linearGradient>
  </defs>
  <metadata
     id="metadata13667">
    <rdf:RDF>
      <cc:Work
         rdf:about="">
        <dc:format>image/svg+xml</dc:format>
        <dc:type
           rdf:resource="http://purl.org/dc/dcmitype/StillImage" />
        <dc:title></dc:title>
      </cc:Work>
    </rdf:RDF>
  </metadata>
  <g
     transform="translate(0,-1010.3622)"
     id="layer1">
    <path
       d="m 34.581647,1037.0445 7.262983,-8.6058 -5.919955,0.5009 c -0.361915,-4.3357 -2.371803,-8.5313 -5.959767,-11.5594 -7.175165,-6.0556 -17.900415,-5.1481 -23.956019,2.0271 -6.05560352,7.1752 -5.14805432,17.9004 2.0271099,23.956 4.8290411,4.0756 11.2613221,4.9832 16.8001121,2.9632 l -1.374722,-3.7589 c -4.236592,1.5421 -9.159735,0.8495 -12.845518,-2.2611 -5.477855,-4.6232 -6.1732731,-12.8415 -1.5501431,-18.3193 4.6231301,-5.4779 12.8414531,-6.1733 18.3193081,-1.5502 2.739692,2.3122 4.27379,5.5227 4.551667,8.8401 l -5.96082,0.5044 8.605764,7.263 z"
       id="path14091-1"
       style="fill:#000000;fill-opacity:1;stroke:#000000;stroke-width:2;stroke-miterlimit:4;stroke-opacity:1;stroke-dasharray:none" />
    <path
       d="m 34.581647,1037.0445 7.262983,-8.6058 -5.919955,0.5009 c -0.361915,-4.3357 -2.371803,-8.5313 -5.959767,-11.5594 -7.175165,-6.0556 -17.900415,-5.1481 -23.956019,2.0271 -6.0556035,7.1752 -5.1480543,17.9004 2.0271099,23.956 4.8290411,4.0756 11.2613221,4.9832 16.8001121,2.9632 l -1.374722,-3.7589 c -4.236592,1.5421 -9.159735,0.8495 -12.845518,-2.2611 -5.477855,-4.6232 -6.1732731,-12.8415 -1.5501431,-18.3193 4.6231301,-5.4779 12.8414531,-6.1733 18.3193081,-1.5502 2.739692,2.3122 4.27379,5.5227 4.551667,8.8401 l -5.96082,0.5044 8.605764,7.263 z"
       id="path14091"
       style="fill:url(#linearGradient15667);fill-opacity:1" />
    <path
       d="m 19.086528,1026.92 q 1.519147,0 2.576877,1.1003 1.05773,1.1003 1.05773,2.6195 v 3.1235 q 0.312357,-0.029 0.454336,-0.029 1.405557,0 2.456193,0.9797 0.66729,-0.2982 1.405582,-0.2982 1.604336,0 2.612372,1.2352 0.383346,-0.099 0.795068,-0.099 1.33458,0 2.257438,0.9584 0.922846,0.9583 0.922846,2.2929 v 3.0809 q 0,1.6469 -0.397521,3.1945 l -1.306205,5.2247 q -0.227155,0.9087 -0.965434,1.4837 -0.73828,0.575 -1.675326,0.575 H 19.086528 q -0.851869,0 -1.625643,-0.3904 -0.773774,-0.3905 -1.284886,-1.0578 l -5.451923,-7.2692 q -0.7240793,-0.9654 -0.7240793,-2.1864 0,-1.4908 1.0577303,-2.5627 1.057718,-1.072 2.548477,-1.072 1.008035,0 1.845704,0.497 v -7.7662 q 0,-1.505 1.064837,-2.5698 1.064824,-1.0648 2.569783,-1.0648 z"
       id="path10530"
       style="fill:#ffffff;fill-opacity:1;stroke:none" />
    <path
       d="m 19.086528,1028.7373 q -0.75248,0 -1.284898,0.5324 -0.532406,0.5324 -0.532406,1.2849 v 12.7211 l -2.143861,-2.8679 q -0.582101,-0.7667 -1.519159,-0.7667 -0.73828,0 -1.263592,0.5395 -0.525324,0.5395 -0.525324,1.2778 0,0.6105 0.369146,1.0932 l 5.451924,7.2693 q 0.539512,0.724 1.44817,0.724 h 10.193956 q 0.312345,0 0.560807,-0.1916 0.248461,-0.1917 0.319438,-0.4898 l 1.306192,-5.2248 q 0.340746,-1.363 0.340746,-2.7543 v -3.081 q 0,-0.5821 -0.397534,-1.008 -0.397535,-0.4259 -0.965447,-0.4259 -0.567901,0 -0.965435,0.3975 -0.397534,0.3976 -0.397534,0.9655 h -0.454335 v -0.8661 q 0,-0.6815 -0.454323,-1.1571 -0.454335,-0.4757 -1.135813,-0.4757 -0.653102,0 -1.121626,0.4686 -0.468523,0.4685 -0.468523,1.1216 v 0.9087 h -0.454323 v -1.2778 q 0,-0.7809 -0.525312,-1.3417 -0.525324,-0.5608 -1.291991,-0.5608 -0.75248,0 -1.284898,0.5324 -0.532418,0.5324 -0.532418,1.2849 v 1.363 h -0.454323 v -8.0927 q 0,-0.7809 -0.525312,-1.3417 -0.525312,-0.5608 -1.291992,-0.5608 z m 0,-1.8173 q 1.519147,0 2.576877,1.1003 1.05773,1.1003 1.05773,2.6195 v 3.1235 q 0.312357,-0.029 0.454336,-0.029 1.405557,0 2.456193,0.9797 0.66729,-0.2982 1.405582,-0.2982 1.604336,0 2.612372,1.2352 0.383346,-0.099 0.795068,-0.099 1.33458,0 2.257438,0.9584 0.922846,0.9583 0.922846,2.2929 v 3.0809 q 0,1.6469 -0.397521,3.1945 l -1.306205,5.2247 q -0.227155,0.9087 -0.965434,1.4837 -0.73828,0.575 -1.675326,0.575 H 19.086528 q -0.851869,0 -1.625643,-0.3904 -0.773774,-0.3905 -1.284886,-1.0578 l -5.451923,-7.2692 q -0.7240793,-0.9654 -0.7240793,-2.1864 0,-1.4908 1.0577303,-2.5627 1.057718,-1.072 2.548477,-1.072 1.008035,0 1.845704,0.497 v -7.7662 q 0,-1.505 1.064837,-2.5698 1.064824,-1.0648 2.569783,-1.0648 z m 1.817304,19.9903 v -5.4519 h -0.454323 v 5.4519 h 0.454323 z m 3.634607,0 v -5.4519 h -0.454323 v 5.4519 h 0.454323 z m 3.63462,0 v -5.4519 h -0.454335 v 5.4519 h 0.454335 z"
       id="path10469"
       style="fill:#000000;fill-opacity:1" />
  </g>
</svg>
