<?xml version="1.0" encoding="UTF-8" standalone="no"?>
<svg
   xmlns:dc="http://purl.org/dc/elements/1.1/"
   xmlns:cc="http://creativecommons.org/ns#"
   xmlns:rdf="http://www.w3.org/1999/02/22-rdf-syntax-ns#"
   xmlns:svg="http://www.w3.org/2000/svg"
   xmlns="http://www.w3.org/2000/svg"
   xmlns:sodipodi="http://sodipodi.sourceforge.net/DTD/sodipodi-0.dtd"
   xmlns:inkscape="http://www.inkscape.org/namespaces/inkscape"
   version="1.1"
   id="layer"
   x="0px"
   y="0px"
   viewBox="0 0 600 162"
   xml:space="preserve"
   sodipodi:docname="rwth_logo.svg"
   width="600"
   height="162"
   inkscape:version="1.0.1 (0767f8302a, 2020-10-17)"><metadata
   id="metadata1273"><rdf:RDF><cc:Work
       rdf:about=""><dc:format>image/svg+xml</dc:format><dc:type
         rdf:resource="http://purl.org/dc/dcmitype/StillImage" /><dc:title></dc:title></cc:Work></rdf:RDF></metadata><defs
   id="defs1271" /><sodipodi:namedview
   pagecolor="#0a0a0a"
   bordercolor="#666666"
   borderopacity="1"
   objecttolerance="10"
   gridtolerance="10"
   guidetolerance="10"
   inkscape:pageopacity="0"
   inkscape:pageshadow="2"
   inkscape:window-width="1920"
   inkscape:window-height="1016"
   id="namedview1269"
   showgrid="false"
   inkscape:showpageshadow="false"
   borderlayer="true"
   inkscape:zoom="1.2653374"
   inkscape:cx="278.24301"
   inkscape:cy="192.08558"
   inkscape:window-x="0"
   inkscape:window-y="27"
   inkscape:window-maximized="1"
   inkscape:current-layer="layer" />
<style
   type="text/css"
   id="style1234">
	.st0{fill:#8FBAE5;}
	.st1{fill:#00549E;}
</style>















<path
   class="st0"
   d="m 401.4,95.6 h 7.2 c 6.9,0 10.6,3.5 10.6,10.5 0,8.2 -4.2,11.4 -11.5,11.4 h -6.3 z m -15.3,64.8 h 15.3 v -32.1 h 8.2 c 6.2,0 8.8,3.6 9.1,9.6 l 0.4,14.6 c 0.1,3 0.4,5.9 1.9,8 h 16.6 v -0.6 c -2.9,-1.5 -3.3,-5.6 -3.4,-13.6 -0.2,-16.1 -1.8,-21.8 -12.2,-23.2 v -0.2 c 8.6,-1.8 12.7,-8.6 12.7,-18.7 0,-13 -7.7,-19.6 -20.2,-19.6 h -28.3 v 75.8 z"
   id="path1236"
   style="fill:#d2e2f5;fill-opacity:1" /><path
   class="st0"
   d="m 160.1,84.4 v 53 c 0,20.3 11.8,24.5 24.3,24.5 12.5,0 24.3,-5.1 24.3,-24.5 v -53 h -15.3 v 53 c 0,7.6 -1.8,13.2 -8.9,13.2 -7.1,0 -8.9,-5.6 -8.9,-13.2 v -53 z"
   id="path1238"
   style="fill:#d2e2f5;fill-opacity:1" /><polygon
   class="st0"
   points="289.4,330.6 275.4,330.6 275.4,382.6 275.2,382.6 256.7,330.6 239,330.6 239,406.6 253,406.6 253,353.3 253.2,353.3 272,406.6 289.4,406.6 "
   id="polygon1240"
   transform="translate(-26.6,-246.2)"
   style="fill:#d2e2f5;fill-opacity:1" /><rect
   x="266.79999"
   y="84.400009"
   class="st0"
   width="15.3"
   height="76"
   id="rect1242"
   style="fill:#d2e2f5;fill-opacity:1" /><polygon
   class="st0"
   points="326.1,330.6 309.8,330.6 327.2,406.6 346.9,406.6 364.4,330.6 348.5,330.6 337.2,386.8 336.9,386.8 "
   id="polygon1244"
   transform="translate(-26.6,-246.2)"
   style="fill:#d2e2f5;fill-opacity:1" /><polygon
   class="st0"
   points="406.6,361 381.1,361 381.1,343.1 408.2,343.1 408.2,330.6 365.7,330.6 365.7,406.6 409.3,406.6 409.3,394 381.1,394 381.1,373.6 406.6,373.6 "
   id="polygon1246"
   transform="translate(-26.6,-246.2)"
   style="fill:#d2e2f5;fill-opacity:1" /><path
   class="st0"
   d="m 435.9,136.6 v 3.1 c 0,14.1 6.8,22.1 24.2,22.1 16.6,0 26.4,-7.2 26.4,-23.3 0,-9.3 -3,-15.1 -14.5,-20.1 l -11.8,-5.1 c -6.5,-2.8 -7.9,-5.6 -7.9,-10.3 0,-4.5 1.8,-8.8 8.7,-8.8 5.9,0 8.3,4.2 8.3,11.3 H 484 v -2.1 C 484,88.8 474.1,83 460.5,83 446,83 437,90.6 437,105.4 c 0,12.7 6.3,18.3 19.9,23 10.1,3.5 13.6,6.1 13.6,13 0,6.4 -4.5,9.4 -9.2,9.4 -8.1,0 -10.1,-4.6 -10.1,-11.7 v -2.2 h -15.3 z"
   id="path1248"
   style="fill:#d2e2f5;fill-opacity:1" /><rect
   x="488.49997"
   y="84.400009"
   class="st0"
   width="15.3"
   height="76"
   id="rect1250"
   style="fill:#d2e2f5;fill-opacity:1" /><polygon
   class="st0"
   points="549,406.6 564.3,406.6 564.3,343.1 577.3,343.1 591.6,376.7 591.6,406.6 606.9,406.6 606.9,376.7 626.6,330.6 610,330.6 599.4,359.9 599.2,359.9 589.2,330.6 532.4,330.6 532.4,343.1 549,343.1 "
   id="polygon1252"
   transform="translate(-26.6,-246.2)"
   style="fill:#d2e2f5;fill-opacity:1" /><path
   class="st1"
   d="M 25.4,77.4 H 24.4 0 V 68.8 1.6 1 h 24.4 v 0 h 17.2 c 11.3,0 21,7.3 24.2,17 2.9,9 0.4,18.7 -6.2,25.7 0.9,2.4 1.7,4.3 2.6,6.4 1.8,4.3 3.5,8.5 5.4,12.7 l 6,14.5 H 73.4 47.9 c 0,0 -0.2,-0.6 -0.4,-0.9 -1,-2.3 -1.9,-4.7 -3,-6.9 L 38.3,54.8 c -2.5,-5.9 -4.9,-11.6 -7.4,-17.5 3.1,-0.1 5.4,0.5 8.3,-0.9 2.1,-1 5.2,-3.6 5.3,-8.4 -0.1,-2.4 -0.8,-4.2 -2.3,-6.2 -1.6,-1.8 -3.9,-3.1 -6.9,-3.1 0,0 -9.9,0 -9.9,0 z"
   id="path1254"
   style="fill:#6ab9ff;fill-opacity:1" /><path
   class="st1"
   d="m 290.7,1.1 v 76.3 h -19.8 -5.6 V 46.3 h -2.4 -15.2 -0.2 v 31.1 c -4.6,0 -9.6,-0.1 -14.2,0 H 222.1 V 18.8 h -17.7 v 1.8 5.5 25.1 26.2 H 204.2 179 V 45.8 44.6 18.8 h -17.9 v 27.7 31 h -26.2 c -4.6,-11 -9.4,-22.1 -13.8,-33.1 -0.5,-2.3 -1,-4.6 -1.7,-6.9 V 77.4 H 93.2 C 88,65.3 83,53.5 77.8,41.2 76,37 74.5,33.5 72.7,29.1 L 72.4,28.5 68.4,19 62.6,5.5 C 62.1,4 61.3,2.6 60.8,1 H 87 c 5.4,13.1 10.8,26 16.4,38.8 l 0.2,0.3 c -0.2,-1.5 -0.7,-3.4 -0.9,-4.8 V 12.5 c 0.1,-3.6 0,-7.8 0,-11.5 h 26.2 c 0.3,0.8 0.5,1.3 0.8,1.9 3.1,7.2 6,14.4 9.1,21.6 l 6.9,15.6 c -0.2,-1.6 -0.5,-3.2 -0.7,-4.8 V 1 h 2.1 17.8 64.5 18.3 v 4.8 22.8 h 1.2 16.6 V 1 h 13.2 12 z"
   id="path1256"
   style="fill:#6ab9ff;fill-opacity:1" /><path
   class="st0"
   d="m 381.4,1.1 h -19 l -16,60.2 -15.9,-60.2 h -19 l -20.2,76.4 h 16 l 3.5,-16.1 h 20.3 l 3.5,16.1 h 23.5 l 3.5,-16.1 h 20.3 l 3.5,16.1 h 16 z m -67.9,47.6 7.4,-34.3 h 0.2 l 7.4,34.3 z m 50.9,0 7.4,-34.3 h 0.2 l 7.4,34.3 z"
   id="path1258"
   style="fill:#d2e2f5;fill-opacity:1" /><path
   class="st0"
   d="M 447.5,27.1 C 447.5,16 445.9,0 424,0 401,0 398.1,16.4 398.1,39.5 398.1,62.6 401,79 424,79 c 20.1,0 24.2,-14.2 24.2,-30.6 h -15.3 c 0,16.4 -4,19.3 -9.6,19.3 -6.6,0 -9.8,-4.2 -9.8,-27.1 0,-21.5 1.8,-29.3 9.6,-29.3 6.9,0 9.2,4.8 9.2,15.9 h 15.2 z"
   id="path1260"
   style="fill:#d2e2f5;fill-opacity:1" /><polygon
   class="st0"
   points="511.1,247.3 511.1,276.5 493.1,276.5 493.1,247.3 477.7,247.3 477.7,323.6 493.1,323.6 493.1,289.8 511.1,289.8 511.1,323.6 526.5,323.6 526.5,247.3 "
   id="polygon1262"
   transform="translate(-26.6,-246.2)"
   style="fill:#d2e2f5;fill-opacity:1" /><polygon
   class="st0"
   points="570.9,277.9 545.2,277.9 545.2,259.9 572.5,259.9 572.5,247.3 529.8,247.3 529.8,323.6 573.6,323.6 573.6,311 545.2,311 545.2,290.5 570.9,290.5 "
   id="polygon1264"
   transform="translate(-26.6,-246.2)"
   style="fill:#d2e2f5;fill-opacity:1" /><polygon
   class="st0"
   points="626.6,247.3 612.4,247.3 612.4,299.6 612.2,299.6 593.6,247.3 575.9,247.3 575.9,323.6 590,323.6 590,270.2 590.2,270.2 609,323.6 626.6,323.6 "
   id="polygon1266"
   transform="translate(-26.6,-246.2)"
   style="fill:#d2e2f5;fill-opacity:1" />
</svg>
