# Blender v2.79 (sub 0) OBJ File: 'car_reduced_polygons_full.blend'
# www.blender.org
o ring_low_Cylinder.002
v -2.542668 -0.290035 0.000000
v -2.547056 0.010829 -0.000000
v -2.511364 -0.290035 -0.397761
v -2.515697 0.010829 -0.398448
v -2.418221 -0.290035 -0.785728
v -2.422394 0.010829 -0.787084
v -2.265534 -0.290035 -1.154347
v -2.269443 0.010829 -1.156340
v -2.057062 -0.290035 -1.494543
v -2.060611 0.010829 -1.497123
v -1.797938 -0.290035 -1.797938
v -1.801040 0.010829 -1.801041
v -1.494543 -0.290035 -2.057062
v -1.497121 0.010829 -2.060612
v -1.154347 -0.290035 -2.265534
v -1.156339 0.010829 -2.269444
v -0.785727 -0.290035 -2.418221
v -0.787083 0.010829 -2.422395
v -0.397760 -0.290035 -2.511364
v -0.398446 0.010829 -2.515699
v 0.000001 -0.290035 -2.542668
v 0.000002 0.010829 -2.547057
v 0.397762 -0.290035 -2.511364
v 0.398449 0.010829 -2.515698
v 0.785729 -0.290035 -2.418221
v 0.787086 0.010829 -2.422395
v 1.154348 -0.290035 -2.265533
v 1.156342 0.010829 -2.269444
v 1.494544 -0.290035 -2.057061
v 1.497124 0.010829 -2.060612
v 1.797939 -0.290035 -1.797937
v 1.801043 0.010829 -1.801040
v 2.057063 -0.290035 -1.494542
v 2.060614 0.010829 -1.497121
v 2.265535 -0.290035 -1.154346
v 2.269446 0.010829 -1.156338
v 2.418222 -0.290035 -0.785726
v 2.422397 0.010829 -0.787082
v 2.511364 -0.290035 -0.397759
v 2.515700 0.010829 -0.398446
v 2.542668 -0.290035 0.000002
v 2.547058 0.010829 0.000002
v 2.511363 -0.290035 0.397763
v 2.515699 0.010829 0.398450
v 2.418221 -0.290035 0.785730
v 2.422395 0.010829 0.787086
v 2.265533 -0.290035 1.154350
v 2.269444 0.010829 1.156342
v 2.057060 -0.290035 1.494545
v 2.060612 0.010829 1.497125
v 1.797936 -0.290035 1.797940
v 1.801040 0.010829 1.801043
v 1.494541 -0.290035 2.057064
v 1.497121 0.010829 2.060614
v 1.154345 -0.290035 2.265535
v 1.156338 0.010829 2.269446
v 0.785725 -0.290035 2.418222
v 0.787082 0.010829 2.422396
v 0.397758 -0.290035 2.511364
v 0.398445 0.010829 2.515699
v -0.000003 -0.290035 2.542668
v -0.000003 0.010829 2.547057
v -0.397764 -0.290035 2.511363
v -0.398450 0.010829 2.515698
v -0.785731 -0.290035 2.418220
v -0.787087 0.010829 2.422394
v -1.154351 -0.290035 2.265532
v -1.156342 0.010829 2.269442
v -1.494546 -0.290035 2.057059
v -1.497125 0.010829 2.060610
v -1.797941 -0.290035 1.797935
v -1.801043 0.010829 1.801038
v -2.057064 -0.290035 1.494539
v -2.060614 0.010829 1.497119
v -2.265536 -0.290035 1.154343
v -2.269445 0.010829 1.156335
v -2.418223 -0.290035 0.785723
v -2.422396 0.010829 0.787079
v -2.511364 -0.290035 0.397756
v -2.515698 0.010829 0.398442
vt 0.897980 0.328104
vt 0.916272 0.239059
vt 0.949629 0.308762
vt 0.868338 0.266466
vt 0.872057 0.175672
vt 0.829205 0.210536
vt 0.818339 0.120038
vt 0.781429 0.161525
vt 0.756210 0.073676
vt 0.726277 0.120490
vt 0.687317 0.037591
vt 0.665169 0.088683
vt 0.613358 0.012896
vt 0.599572 0.066918
vt 0.536397 0.000363
vt 0.531371 0.055927
vt 0.458304 0.000099
vt 0.462156 0.055863
vt 0.381023 0.012217
vt 0.393660 0.066770
vt 0.306503 0.036435
vt 0.327626 0.088397
vt 0.236633 0.072164
vt 0.265726 0.120220
vt 0.173180 0.118520
vt 0.209521 0.161456
vt 0.117743 0.174346
vt 0.160427 0.211083
vt 0.071715 0.238248
vt 0.119676 0.267867
vt 0.036245 0.308625
vt 0.088283 0.330397
vt 0.012195 0.383710
vt 0.067014 0.397124
vt 0.000099 0.461618
vt 0.056364 0.466413
vt 0.000099 0.540440
vt 0.056465 0.536557
vt 0.012129 0.618393
vt 0.067438 0.605907
vt 0.035815 0.693961
vt 0.121395 0.735598
vt 0.071306 0.766135
vt 0.162457 0.792721
vt 0.119579 0.830223
vt 0.211435 0.842111
vt 0.175610 0.885117
vt 0.267245 0.882760
vt 0.238810 0.930487
vt 0.328502 0.913761
vt 0.308072 0.965219
vt 0.393844 0.934530
vt 0.381868 0.988564
vt 0.461713 0.944602
vt 0.458481 0.999901
vt 0.530414 0.943744
vt 0.536016 0.998929
vt 0.598215 0.931957
vt 0.612531 0.985641
vt 0.663400 0.909517
vt 0.686090 0.960337
vt 0.724309 0.876968
vt 0.754818 0.923624
vt 0.779382 0.835114
vt 0.816950 0.876400
vt 0.827203 0.785011
vt 0.870862 0.819847
vt 0.866554 0.727943
vt 0.915119 0.755434
vt 0.896502 0.665398
vt 0.948569 0.684954
vt 0.916681 0.599117
vt 0.970498 0.610531
vt 0.927056 0.530961
vt 0.980690 0.534843
vt 0.926547 0.461948
vt 0.981332 0.458783
vt 0.917472 0.393757
vt 0.971358 0.382753
vt 0.089014 0.672832
vn -0.7289 0.6846 0.0000
vn -0.9876 -0.0146 -0.1564
vn -0.9999 -0.0146 0.0000
vn -0.7200 0.6846 -0.1140
vn -0.9509 -0.0146 -0.3090
vn -0.6933 0.6846 -0.2252
vn -0.8909 -0.0146 -0.4539
vn -0.6495 0.6846 -0.3309
vn -0.8089 -0.0146 -0.5877
vn -0.5897 0.6846 -0.4284
vn -0.7070 -0.0146 -0.7070
vn -0.5154 0.6846 -0.5154
vn -0.5877 -0.0146 -0.8089
vn -0.4284 0.6846 -0.5897
vn -0.4539 -0.0146 -0.8909
vn -0.3309 0.6846 -0.6495
vn -0.3090 -0.0146 -0.9509
vn -0.2252 0.6846 -0.6933
vn -0.1564 -0.0146 -0.9876
vn -0.1140 0.6846 -0.7200
vn 0.0000 -0.0146 -0.9999
vn 0.0000 0.6846 -0.7289
vn 0.1564 -0.0146 -0.9876
vn 0.1140 0.6846 -0.7200
vn 0.3090 -0.0146 -0.9509
vn 0.2252 0.6846 -0.6933
vn 0.4539 -0.0146 -0.8909
vn 0.3309 0.6846 -0.6495
vn 0.5877 -0.0146 -0.8089
vn 0.4284 0.6846 -0.5897
vn 0.7070 -0.0146 -0.7070
vn 0.5154 0.6846 -0.5154
vn 0.8089 -0.0146 -0.5877
vn 0.5897 0.6846 -0.4284
vn 0.8909 -0.0146 -0.4539
vn 0.6495 0.6846 -0.3309
vn 0.9509 -0.0146 -0.3090
vn 0.6933 0.6846 -0.2252
vn 0.9876 -0.0146 -0.1564
vn 0.7200 0.6846 -0.1140
vn 0.9999 -0.0146 0.0000
vn 0.7200 0.6846 0.1140
vn 0.9876 -0.0146 0.1564
vn 0.6933 0.6846 0.2252
vn 0.9509 -0.0146 0.3090
vn 0.6495 0.6846 0.3309
vn 0.8909 -0.0146 0.4539
vn 0.5897 0.6846 0.4284
vn 0.8089 -0.0146 0.5877
vn 0.5154 0.6846 0.5154
vn 0.7070 -0.0146 0.7070
vn 0.4284 0.6846 0.5897
vn 0.5877 -0.0146 0.8089
vn 0.3309 0.6846 0.6495
vn 0.4539 -0.0146 0.8909
vn 0.2252 0.6846 0.6933
vn 0.3090 -0.0146 0.9509
vn 0.1140 0.6846 0.7200
vn 0.1564 -0.0146 0.9876
vn 0.0000 0.6846 0.7289
vn 0.0000 -0.0146 0.9999
vn -0.1140 0.6846 0.7200
vn -0.1564 -0.0146 0.9876
vn -0.2252 0.6846 0.6933
vn -0.3090 -0.0146 0.9509
vn -0.3309 0.6846 0.6495
vn -0.4539 -0.0146 0.8909
vn -0.4284 0.6846 0.5897
vn -0.5877 -0.0146 0.8089
vn -0.5154 0.6846 0.5154
vn -0.7070 -0.0146 0.7070
vn -0.5897 0.6846 0.4284
vn -0.8089 -0.0146 0.5877
vn -0.6495 0.6846 0.3309
vn -0.8909 -0.0146 0.4539
vn -0.6933 0.6846 0.2252
vn -0.9509 -0.0146 0.3090
vn -0.7200 0.6846 0.1140
vn -0.9876 -0.0146 0.1564
vn 0.7289 0.6846 0.0000
s 1
f 2/1/1 3/2/2 1/3/3
f 4/4/4 5/5/5 3/2/2
f 6/6/6 7/7/7 5/5/5
f 8/8/8 9/9/9 7/7/7
f 10/10/10 11/11/11 9/9/9
f 12/12/12 13/13/13 11/11/11
f 14/14/14 15/15/15 13/13/13
f 16/16/16 17/17/17 15/15/15
f 18/18/18 19/19/19 17/17/17
f 20/20/20 21/21/21 19/19/19
f 22/22/22 23/23/23 21/21/21
f 24/24/24 25/25/25 23/23/23
f 26/26/26 27/27/27 25/25/25
f 28/28/28 29/29/29 27/27/27
f 30/30/30 31/31/31 29/29/29
f 32/32/32 33/33/33 31/31/31
f 34/34/34 35/35/35 33/33/33
f 36/36/36 37/37/37 35/35/35
f 38/38/38 39/39/39 37/37/37
f 40/40/40 41/41/41 39/39/39
f 41/41/41 44/42/42 43/43/43
f 43/43/43 46/44/44 45/45/45
f 45/45/45 48/46/46 47/47/47
f 47/47/47 50/48/48 49/49/49
f 49/49/49 52/50/50 51/51/51
f 51/51/51 54/52/52 53/53/53
f 53/53/53 56/54/54 55/55/55
f 55/55/55 58/56/56 57/57/57
f 57/57/57 60/58/58 59/59/59
f 59/59/59 62/60/60 61/61/61
f 61/61/61 64/62/62 63/63/63
f 63/63/63 66/64/64 65/65/65
f 65/65/65 68/66/66 67/67/67
f 67/67/67 70/68/68 69/69/69
f 69/69/69 72/70/70 71/71/71
f 71/71/71 74/72/72 73/73/73
f 73/73/73 76/74/74 75/75/75
f 75/75/75 78/76/76 77/77/77
f 38/38/38 22/22/22 6/6/6
f 77/77/77 80/78/78 79/79/79
f 80/78/78 1/3/3 79/79/79
f 2/1/1 4/4/4 3/2/2
f 4/4/4 6/6/6 5/5/5
f 6/6/6 8/8/8 7/7/7
f 8/8/8 10/10/10 9/9/9
f 10/10/10 12/12/12 11/11/11
f 12/12/12 14/14/14 13/13/13
f 14/14/14 16/16/16 15/15/15
f 16/16/16 18/18/18 17/17/17
f 18/18/18 20/20/20 19/19/19
f 20/20/20 22/22/22 21/21/21
f 22/22/22 24/24/24 23/23/23
f 24/24/24 26/26/26 25/25/25
f 26/26/26 28/28/28 27/27/27
f 28/28/28 30/30/30 29/29/29
f 30/30/30 32/32/32 31/31/31
f 32/32/32 34/34/34 33/33/33
f 34/34/34 36/36/36 35/35/35
f 36/36/36 38/38/38 37/37/37
f 38/38/38 40/40/40 39/39/39
f 40/40/40 42/80/80 41/41/41
f 41/41/41 42/80/80 44/42/42
f 43/43/43 44/42/42 46/44/44
f 45/45/45 46/44/44 48/46/46
f 47/47/47 48/46/46 50/48/48
f 49/49/49 50/48/48 52/50/50
f 51/51/51 52/50/50 54/52/52
f 53/53/53 54/52/52 56/54/54
f 55/55/55 56/54/54 58/56/56
f 57/57/57 58/56/56 60/58/58
f 59/59/59 60/58/58 62/60/60
f 61/61/61 62/60/60 64/62/62
f 63/63/63 64/62/62 66/64/64
f 65/65/65 66/64/64 68/66/66
f 67/67/67 68/66/66 70/68/68
f 69/69/69 70/68/68 72/70/70
f 71/71/71 72/70/70 74/72/72
f 73/73/73 74/72/72 76/74/74
f 75/75/75 76/74/74 78/76/76
f 6/6/6 4/4/4 2/1/1
f 2/1/1 80/78/78 6/6/6
f 78/76/76 76/74/74 74/72/72
f 74/72/72 72/70/70 70/68/68
f 70/68/68 68/66/66 66/64/64
f 66/64/64 64/62/62 62/60/60
f 62/60/60 60/58/58 58/56/56
f 58/56/56 56/54/54 54/52/52
f 54/52/52 52/50/50 50/48/48
f 50/48/48 48/46/46 46/44/44
f 46/44/44 44/42/42 38/38/38
f 42/80/80 40/40/40 38/38/38
f 38/38/38 36/36/36 34/34/34
f 34/34/34 32/32/32 30/30/30
f 30/30/30 28/28/28 26/26/26
f 26/26/26 24/24/24 22/22/22
f 22/22/22 20/20/20 18/18/18
f 18/18/18 16/16/16 14/14/14
f 14/14/14 12/12/12 10/10/10
f 10/10/10 8/8/8 6/6/6
f 6/6/6 80/78/78 78/76/76
f 78/76/76 74/72/72 70/68/68
f 70/68/68 66/64/64 62/60/60
f 62/60/60 58/56/56 70/68/68
f 54/52/52 50/48/48 46/44/44
f 44/42/42 42/80/80 38/38/38
f 38/38/38 34/34/34 22/22/22
f 30/30/30 26/26/26 22/22/22
f 22/22/22 18/18/18 14/14/14
f 14/14/14 10/10/10 22/22/22
f 6/6/6 78/76/76 54/52/52
f 70/68/68 58/56/56 54/52/52
f 54/52/52 46/44/44 38/38/38
f 34/34/34 30/30/30 22/22/22
f 22/22/22 10/10/10 6/6/6
f 78/76/76 70/68/68 54/52/52
f 54/52/52 38/38/38 6/6/6
f 77/77/77 78/76/76 80/78/78
f 80/78/78 2/1/1 1/3/3
